<svg xmlns="http://www.w3.org/2000/svg" xmlns:xlink="http://www.w3.org/1999/xlink" xmlns:lucid="lucid" viewBox="0 0 1039.33 676"><g transform="translate(-356.5167800728833 -1.1666666666669698)" lucid:page-tab-id="0_0"><path d="M437.52 71.17c0 22.1-17.9 40-40 40s-40-17.9-40-40 17.9-40 40-40 40 17.9 40 40z" stroke="#282c33" stroke-width="2" fill="#008a0e"/><use xlink:href="#a" transform="matrix(1,0,0,1,362.5167800728833,36.16666666666697) translate(26.70464409722222 43.40277777777778)"/><path d="M439.02 71.17h31.2" stroke="#3a414a" fill="none"/><path d="M439.03 71.64h-.54l.02-.46-.02-.5h.53z" stroke="#3a414a" stroke-width=".05" fill="#3a414a"/><path d="M484.98 71.17L470.7 75.8v-9.27z" stroke="#3a414a" fill="#3a414a"/><path d="M581.82 4.55a8.77 8.77 0 0 1 9.9 0l92.43 63.23a4.1 4.1 0 0 1 0 6.77l-92.43 63.23a8.77 8.77 0 0 1-9.9 0L489.4 74.55a4.1 4.1 0 0 1 0-6.77z" stroke="#000" stroke-width="2" fill="#fff"/><use xlink:href="#b" transform="matrix(1,0,0,1,489.4334467812167,6.16666666666697) translate(66.56055555555555 38.15277777777778)"/><use xlink:href="#c" transform="matrix(1,0,0,1,489.4334467812167,6.16666666666697) translate(81.88694444444445 38.15277777777778)"/><use xlink:href="#d" transform="matrix(1,0,0,1,489.4334467812167,6.16666666666697) translate(47.26194444444445 55.361111111111114)"/><use xlink:href="#e" transform="matrix(1,0,0,1,489.4334467812167,6.16666666666697) translate(122.65083333333334 55.361111111111114)"/><use xlink:href="#f" transform="matrix(1,0,0,1,489.4334467812167,6.16666666666697) translate(33.48069444444443 72.56944444444446)"/><use xlink:href="#g" transform="matrix(1,0,0,1,489.4334467812167,6.16666666666697) translate(98.92513888888888 72.56944444444446)"/><use xlink:href="#c" transform="matrix(1,0,0,1,489.4334467812167,6.16666666666697) translate(115.96680555555555 72.56944444444446)"/><use xlink:href="#h" transform="matrix(1,0,0,1,489.4334467812167,6.16666666666697) translate(68.87652777777777 89.77777777777777)"/><use xlink:href="#i" transform="matrix(1,0,0,1,489.4334467812167,6.16666666666697) translate(63.574444444444445 106.98611111111111)"/><path d="M802.94 71.64h-115.5v-.95h115.5zm167.6 0h-136v-.95h136z" stroke="#008a0e" stroke-width=".05" fill="#008a0e"/><path d="M687.45 71.64h-.56l.04-.47-.05-.48h.55z" fill="#008a0e"/><path stroke="#008a0e" stroke-width=".05" fill="#008a0e"/><path d="M985.32 71.17l-14.27 4.63v-9.27z" fill="#008a0e"/><path d="M986.85 71.17l-16.27 5.3v-10.6zm-15.33 3.98l12.26-3.98-12.25-3.98z" stroke="#008a0e" stroke-width=".05" fill="#008a0e"/><use xlink:href="#j" transform="matrix(1,0,0,1,802.9431150084072,60.41145833333364) translate(0 17.22222222222222)"/><path d="M987.93 32.17a6 6 0 0 1 6-6h123.34a6 6 0 0 1 6 6v78a6 6 0 0 1-6 6H993.93a6 6 0 0 1-6-6z" stroke="#008a0e" stroke-width="2" fill="#fff"/><use xlink:href="#k" transform="matrix(1,0,0,1,992.9334467812167,31.16666666666697) translate(8.628472222222214 36.27777777777778)"/><use xlink:href="#l" transform="matrix(1,0,0,1,992.9334467812167,31.16666666666697) translate(58.190972222222214 36.27777777777778)"/><use xlink:href="#m" transform="matrix(1,0,0,1,992.9334467812167,31.16666666666697) translate(32.3125 53.486111111111114)"/><path d="M587.24 154.58h-.95V140.8h.94z" stroke="#e81313" stroke-width=".05" fill="#e81313"/><path d="M586.77 140.3l.47-.02v.54h-.95v-.54z" fill="#e81313"/><path stroke="#e81313" stroke-width=".05" fill="#e81313"/><path d="M586.77 188.74l-4.1-12.65h8.2z" fill="#e81313"/><path d="M586.77 190.27l-4.6-14.18h1l3.6 11.1 3.6-11.1h1z" stroke="#e81313" stroke-width=".05" fill="#e81313"/><use xlink:href="#n" transform="matrix(1,0,0,1,574.54021761455,154.57812502173917) translate(0 17.22222222222222)"/><path d="M581.82 192.9a8.77 8.77 0 0 1 9.9 0l92.43 63.2a4.1 4.1 0 0 1 0 6.8l-92.43 63.2a8.77 8.77 0 0 1-9.9 0l-92.43-63.2a4.1 4.1 0 0 1 0-6.8z" stroke="#000" stroke-width="2" fill="#fff"/><use xlink:href="#o" transform="matrix(1,0,0,1,489.4334467812167,194.5) translate(60.39888020833333 45.41666666666667)"/><use xlink:href="#p" transform="matrix(1,0,0,1,489.4334467812167,194.5) translate(74.76736979166667 45.41666666666667)"/><use xlink:href="#q" transform="matrix(1,0,0,1,489.4334467812167,194.5) translate(98.53690104166667 45.41666666666667)"/><use xlink:href="#r" transform="matrix(1,0,0,1,489.4334467812167,194.5) translate(47.76346354166667 61.54947916666667)"/><use xlink:href="#s" transform="matrix(1,0,0,1,489.4334467812167,194.5) translate(92.06684895833334 61.54947916666667)"/><use xlink:href="#t" transform="matrix(1,0,0,1,489.4334467812167,194.5) translate(26.015416666666663 77.68229166666667)"/><use xlink:href="#u" transform="matrix(1,0,0,1,489.4334467812167,194.5) translate(65.97505208333334 93.81510416666667)"/><use xlink:href="#v" transform="matrix(1,0,0,1,489.4334467812167,194.5) translate(88.89822916666667 93.81510416666667)"/><use xlink:href="#w" transform="matrix(1,0,0,1,489.4334467812167,194.5) translate(104.87479166666667 93.81510416666667)"/><path d="M1011.74 259.1l1 .24.92.4.87.52.77.66.66.77.53.86.38.94.24 1 .08.98V389.8h-.95V265.53l-.07-.88-.2-.85-.34-.8-.45-.75-.57-.66-.66-.57-.74-.45-.8-.33-.84-.2-.9-.07H835.95v-.96h174.8zm-324.3.88v-.96h116.9v.96z" stroke="#000" stroke-width=".05"/><path d="M687.45 259.98h-.56l.04-.48-.05-.48h.55z"/><path stroke="#000" stroke-width=".05"/><path d="M1016.72 404.58l-4.63-14.27h9.26z"/><path d="M1016.72 406.1l-5.3-16.26h10.6zm-3.98-15.3l3.98 12.24 4-12.25z" stroke="#000" stroke-width=".05"/><use xlink:href="#j" transform="matrix(1,0,0,1,804.3454913622257,248.74479166666683) translate(0 17.22222222222222)"/><path d="M1050.83 381.47a7.88 7.88 0 0 1 9.54 0l95.46 72.73a4.57 4.57 0 0 1 0 7.27l-95.46 72.73a7.88 7.88 0 0 1-9.54 0l-95.46-72.73a4.57 4.57 0 0 1 0-7.27z" stroke="#000" stroke-width="2" fill="#fff"/><use xlink:href="#x" transform="matrix(1,0,0,1,955.6001135312163,382.83333333333303) translate(64.448359375 45.72916666666667)"/><use xlink:href="#y" transform="matrix(1,0,0,1,955.6001135312163,382.83333333333303) translate(92.631953125 45.72916666666667)"/><use xlink:href="#z" transform="matrix(1,0,0,1,955.6001135312163,382.83333333333303) translate(103.97309895833334 45.72916666666667)"/><use xlink:href="#A" transform="matrix(1,0,0,1,955.6001135312163,382.83333333333303) translate(36.76932291666667 61.86197916666667)"/><use xlink:href="#B" transform="matrix(1,0,0,1,955.6001135312163,382.83333333333303) translate(76.0596875 61.86197916666667)"/><use xlink:href="#C" transform="matrix(1,0,0,1,955.6001135312163,382.83333333333303) translate(107.42036458333334 61.86197916666667)"/><use xlink:href="#D" transform="matrix(1,0,0,1,955.6001135312163,382.83333333333303) translate(133.25369791666668 61.86197916666667)"/><use xlink:href="#E" transform="matrix(1,0,0,1,955.6001135312163,382.83333333333303) translate(16.333125000000003 77.99479166666667)"/><use xlink:href="#p" transform="matrix(1,0,0,1,955.6001135312163,382.83333333333303) translate(53.61828125 77.99479166666667)"/><use xlink:href="#F" transform="matrix(1,0,0,1,955.6001135312163,382.83333333333303) translate(77.3878125 77.99479166666667)"/><use xlink:href="#G" transform="matrix(1,0,0,1,955.6001135312163,382.83333333333303) translate(135.3175 77.99479166666667)"/><use xlink:href="#H" transform="matrix(1,0,0,1,955.6001135312163,382.83333333333303) translate(164.50369791666665 77.99479166666667)"/><use xlink:href="#I" transform="matrix(1,0,0,1,955.6001135312163,382.83333333333303) translate(32.778437499999995 94.12760416666667)"/><use xlink:href="#p" transform="matrix(1,0,0,1,955.6001135312163,382.83333333333303) translate(49.54276041666666 94.12760416666667)"/><use xlink:href="#J" transform="matrix(1,0,0,1,955.6001135312163,382.83333333333303) translate(73.31229166666667 94.12760416666667)"/><use xlink:href="#K" transform="matrix(1,0,0,1,955.6001135312163,382.83333333333303) translate(99.17817708333334 94.12760416666667)"/><use xlink:href="#L" transform="matrix(1,0,0,1,955.6001135312163,382.83333333333303) translate(77.436640625 110.26041666666667)"/><path d="M587.24 372.3h-.95v-2.88h.94zm0-24.4h-.95v-18.75h.94z" stroke="#e81313" stroke-width=".05" fill="#e81313"/><path d="M586.77 328.65l.47-.03v.54h-.95v-.54z" fill="#e81313"/><path stroke="#e81313" stroke-width=".05" fill="#e81313"/><path d="M586.77 387.07l-4.64-14.27h9.27z" fill="#e81313"/><path d="M586.77 388.6l-5.3-16.27h10.6zm-4-15.32l4 12.25 3.98-12.25z" stroke="#e81313" stroke-width=".05" fill="#e81313"/><use xlink:href="#n" transform="matrix(1,0,0,1,574.54021761455,347.9114583550722) translate(0 17.22222222222222)"/><path d="M736.02 592.17a6 6 0 0 1 6-6h155.66a6 6 0 0 1 6 6v78a6 6 0 0 1-6 6H742.02a6 6 0 0 1-6-6z" stroke="#e81313" stroke-width="2" fill="#fff"/><g><use xlink:href="#k" transform="matrix(1,0,0,1,741.0167801562168,591.1666666666661) translate(35.83680555555556 36.27777777777778)"/><use xlink:href="#M" transform="matrix(1,0,0,1,741.0167801562168,591.1666666666661) translate(85.39930555555556 36.27777777777778)"/><use xlink:href="#N" transform="matrix(1,0,0,1,741.0167801562168,591.1666666666661) translate(18.006944444444443 53.486111111111114)"/><use xlink:href="#O" transform="matrix(1,0,0,1,741.0167801562168,591.1666666666661) translate(96.36111111111111 53.486111111111114)"/></g><path d="M1056.08 625.18l-.08 1-.24 1-.4.93-.52.87-.66.78-.77.66-.86.54-.94.4-1 .22-.98.08H921.07v-.95h128.5l.9-.08.84-.2.8-.33.75-.47.66-.56.57-.66.45-.73.33-.8.2-.84.08-.88v-20.08h.94zm0-41.63h-.95V537.3h.94z" stroke="#e81313" stroke-width=".05" fill="#e81313"/><path d="M1055.6 536.8l.48-.02v.54h-.95v-.54z" fill="#e81313"/><path stroke="#e81313" stroke-width=".05" fill="#e81313"/><path d="M920.57 635.8l-14.27-4.63 14.27-4.64z" fill="#e81313"/><path d="M921.04 636.46l-16.28-5.3 16.28-5.28zm-13.2-5.3l12.25 4v-7.98z" stroke="#e81313" stroke-width=".05" fill="#e81313"/><g><use xlink:href="#n" transform="matrix(1,0,0,1,1043.373550947883,583.5541508187355) translate(0 17.22222222222222)"/></g><path d="M1078.63 393.26h-.95V266.22h.95zm0-148.55h-.95V133.56h.95z" stroke="#008a0e" stroke-width=".05" fill="#008a0e"/><path d="M1078.63 394.12l-.95-.72v-.15h.95z" fill="#008a0e"/><path stroke="#008a0e" stroke-width=".05" fill="#008a0e"/><path d="M1082.8 133.05h-9.28l4.64-14.27z" fill="#008a0e"/><path d="M1083.44 133.53h-10.57l5.3-16.28zm-9.27-.96h7.97l-3.98-12.25z" stroke="#008a0e" stroke-width=".05" fill="#008a0e"/><g><use xlink:href="#j" transform="matrix(1,0,0,1,1062.3570578923277,244.70879853943893) translate(0 17.22222222222222)"/></g><path d="M1124.77 71.17h65.36" stroke="#3a414a" fill="none"/><path d="M1124.78 71.64h-.5v-.95h.5z" stroke="#3a414a" stroke-width=".05" fill="#3a414a"/><path d="M1204.9 71.17l-14.27 4.63v-9.27z" stroke="#3a414a" fill="#3a414a"/><path d="M1207.52 17.17a6 6 0 0 1 6-6h175.33a6 6 0 0 1 6 6v108a6 6 0 0 1-6 6h-175.33a6 6 0 0 1-6-6z" stroke="#000" stroke-width="2" fill="#fff"/><path d="M1226.25 11.17v120m149.87-120v120" stroke="#000" stroke-width="2" fill="none"/><g><use xlink:href="#P" transform="matrix(1,0,0,1,1235.9334467395504,16.16666666666697) translate(12.039713541666671 35.65104166666667)"/><use xlink:href="#p" transform="matrix(1,0,0,1,1235.9334467395504,16.16666666666697) translate(56.831380208333336 35.65104166666667)"/><use xlink:href="#Q" transform="matrix(1,0,0,1,1235.9334467395504,16.16666666666697) translate(80.60091145833333 35.65104166666667)"/><use xlink:href="#R" transform="matrix(1,0,0,1,1235.9334467395504,16.16666666666697) translate(0.4479166666666572 51.78385416666667)"/><use xlink:href="#S" transform="matrix(1,0,0,1,1235.9334467395504,16.16666666666697) translate(31.763020833333325 51.78385416666667)"/><use xlink:href="#T" transform="matrix(1,0,0,1,1235.9334467395504,16.16666666666697) translate(54.67968749999999 51.78385416666667)"/><use xlink:href="#U" transform="matrix(1,0,0,1,1235.9334467395504,16.16666666666697) translate(87.83723958333333 51.78385416666667)"/><use xlink:href="#V" transform="matrix(1,0,0,1,1235.9334467395504,16.16666666666697) translate(8.852864583333329 67.91666666666667)"/><use xlink:href="#W" transform="matrix(1,0,0,1,1235.9334467395504,16.16666666666697) translate(66.28125 67.91666666666667)"/><use xlink:href="#X" transform="matrix(1,0,0,1,1235.9334467395504,16.16666666666697) translate(11.170572916666671 84.04947916666667)"/><use xlink:href="#Y" transform="matrix(1,0,0,1,1235.9334467395504,16.16666666666697) translate(38.44921875000001 84.04947916666667)"/><use xlink:href="#y" transform="matrix(1,0,0,1,1235.9334467395504,16.16666666666697) translate(73.05208333333334 84.04947916666667)"/><use xlink:href="#v" transform="matrix(1,0,0,1,1235.9334467395504,16.16666666666697) translate(84.39322916666667 84.04947916666667)"/><use xlink:href="#Z" transform="matrix(1,0,0,1,1235.9334467395504,16.16666666666697) translate(100.36979166666667 84.04947916666667)"/></g><path d="M581.82 391.22a8.77 8.77 0 0 1 9.9 0l92.43 63.23a4.1 4.1 0 0 1 0 6.77l-92.43 63.23a8.77 8.77 0 0 1-9.9 0l-92.43-63.23a4.1 4.1 0 0 1 0-6.77z" stroke="#000" stroke-width="2" fill="#fff"/><g><use xlink:href="#x" transform="matrix(1,0,0,1,489.4334467812167,392.83333333333303) translate(18.027135416666663 61.66666666666667)"/><use xlink:href="#p" transform="matrix(1,0,0,1,489.4334467812167,392.83333333333303) translate(46.21072916666667 61.66666666666667)"/><use xlink:href="#aa" transform="matrix(1,0,0,1,489.4334467812167,392.83333333333303) translate(69.98026041666667 61.66666666666667)"/><use xlink:href="#ab" transform="matrix(1,0,0,1,489.4334467812167,392.83333333333303) translate(106.37348958333334 61.66666666666667)"/><use xlink:href="#ac" transform="matrix(1,0,0,1,489.4334467812167,392.83333333333303) translate(148.44380208333334 61.66666666666667)"/><use xlink:href="#ad" transform="matrix(1,0,0,1,489.4334467812167,392.83333333333303) translate(21.106562499999992 77.79947916666667)"/><use xlink:href="#ae" transform="matrix(1,0,0,1,489.4334467812167,392.83333333333303) translate(56.44510416666667 77.79947916666667)"/><use xlink:href="#af" transform="matrix(1,0,0,1,489.4334467812167,392.83333333333303) translate(87.24588541666667 77.79947916666667)"/></g><path d="M587.24 625.15l.07.88.2.84.35.8.45.74.56.67.66.56.74.46.8.32.84.2.88.07h125.85v.94H592.75l-1-.08-1-.23-.92-.4-.87-.52-.77-.65-.67-.78-.53-.86-.4-.93-.23-1-.08-1v-18.86h.94zm0-40.35h-.95v-57.32h.94z" stroke="#e81313" stroke-width=".05" fill="#e81313"/><path d="M586.77 526.98l.47-.03v.54h-.95v-.55z" fill="#e81313"/><path stroke="#e81313" stroke-width=".05" fill="#e81313"/><path d="M733.4 631.17l-14.27 4.63v-9.27z" fill="#e81313"/><path d="M734.94 631.17l-16.28 5.3v-10.6zm-15.33 3.98l12.26-3.98-12.25-4z" stroke="#e81313" stroke-width=".05" fill="#e81313"/><g><use xlink:href="#n" transform="matrix(1,0,0,1,574.54021761455,584.7984979169371) translate(0 17.22222222222222)"/></g><path d="M803.96 458.3H687.44v-.94h116.5zm132.22 0H835.55v-.94h100.63z" stroke="#3a414a" stroke-width=".05" fill="#3a414a"/><path d="M687.45 458.3h-.56l.04-.47-.05-.47h.55z" fill="#3a414a"/><path stroke="#3a414a" stroke-width=".05" fill="#3a414a"/><path d="M950.95 457.83l-14.27 4.64v-9.27z" fill="#3a414a"/><path d="M952.5 457.83l-16.3 5.3v-10.6zm-15.34 4l12.25-4-12.24-3.98z" stroke="#3a414a" stroke-width=".05" fill="#3a414a"/><g><use xlink:href="#j" transform="matrix(1,0,0,1,803.9549638342636,447.0781249999997) translate(0 17.22222222222222)"/></g><defs><path d="M49 0l509-1490h400L1480 0h-339l-115-346H497L386 0H49zm524-585h374c-75-213-124-402-192-666-66 268-110 453-182 666" id="ag"/><use transform="matrix(0.010850694444444444,0,0,0.010850694444444444,0,0)" xlink:href="#ag" id="a"/><path fill="#282c33" d="M370-1490V0H180v-1490h190" id="ah"/><path fill="#282c33" d="M538 24C308 24 148-78 108-271l171-41c32 123 123 178 257 178 156 0 256-77 256-169 0-77-54-128-164-154l-186-44c-203-48-300-148-300-305 0-192 176-326 414-326 230 0 351 112 402 269l-163 42c-31-80-94-158-238-158-133 0-233 69-233 162 0 83 57 129 188 160l169 40c203 48 298 149 298 302 0 196-179 339-441 339" id="ai"/><g id="b"><use transform="matrix(0.006944444444444445,0,0,0.006944444444444445,0,0)" xlink:href="#ah"/><use transform="matrix(0.006944444444444445,0,0,0.006944444444444445,3.8194444444444446,0)" xlink:href="#ai"/></g><path fill="#282c33" d="M180 0v-1490h224l606 953c40 63 108 177 176 312-27-437-7-821-13-1265h190V0h-226C860-448 622-778 356-1262c27 476 11 792 15 1262H180" id="aj"/><path fill="#282c33" d="M789 20c-398 0-667-293-667-764 0-473 273-766 655-766 315 0 558 198 612 487h-196c-61-191-204-311-415-311-262 0-471 207-471 590 0 380 208 588 482 588 249 0 420-165 425-427H828v-166h572v163c0 370-256 606-611 606" id="ak"/><path fill="#282c33" d="M57 0l534-763-501-727h220c122 187 296 416 391 605 94-191 272-419 396-605h215L811-770 1340 0h-219C986-204 811-426 699-640 588-430 407-202 273 0H57" id="al"/><g id="c"><use transform="matrix(0.006944444444444445,0,0,0.006944444444444445,0,0)" xlink:href="#aj"/><use transform="matrix(0.006944444444444445,0,0,0.006944444444444445,10.715277777777779,0)" xlink:href="#ak"/><use transform="matrix(0.006944444444444445,0,0,0.006944444444444445,21.326388888888893,0)" xlink:href="#ah"/><use transform="matrix(0.006944444444444445,0,0,0.006944444444444445,25.145833333333336,0)" xlink:href="#aj"/><use transform="matrix(0.006944444444444445,0,0,0.006944444444444445,35.861111111111114,0)" xlink:href="#al"/></g><path fill="#282c33" d="M613 24c-304 0-509-231-509-576 0-350 205-580 509-580 216 0 392 114 453 309l-173 49c-33-115-133-197-280-197-223 0-326 196-326 419 0 220 103 415 326 415 150 0 252-85 285-206l172 49C1010-95 832 24 613 24" id="am"/><path fill="#282c33" d="M613 24c-304 0-509-231-509-576 0-350 205-580 509-580 305 0 511 230 511 580 0 345-206 576-511 576zm0-161c226 0 329-195 329-415 0-222-103-419-329-419-223 0-326 196-326 419 0 220 103 415 326 415" id="an"/><path fill="#282c33" d="M338-670V0H158v-1118h173l1 207c72-158 192-221 342-221 226 0 378 139 378 422V0H872v-695c0-172-96-275-252-275-161 0-282 109-282 300" id="ao"/><path fill="#282c33" d="M628 24c-324 0-524-230-524-574 0-343 198-582 503-582 237 0 487 146 487 559v75H286c9 234 145 362 343 362 132 0 231-58 273-172l174 48C1024-91 857 24 628 24zM287-650h624c-17-190-120-322-304-322-192 0-309 151-320 322" id="ap"/><path fill="#282c33" d="M598-1118v154H368v674c0 100 37 144 132 144 23 0 62-6 92-12L629-6c-37 13-88 20-134 20-193 0-307-107-307-290v-688H20v-154h168v-266h180v266h230" id="aq"/><path fill="#282c33" d="M577 24c-279 0-473-224-473-580 0-354 195-576 474-576 218 0 287 134 324 193h14v-551h180V0H922v-173h-20C865-111 790 24 577 24zm27-161c203 0 314-172 314-421 0-247-108-413-314-413-212 0-317 181-317 413 0 235 108 421 317 421" id="ar"/><g id="d"><use transform="matrix(0.006944444444444445,0,0,0.006944444444444445,0,0)" xlink:href="#am"/><use transform="matrix(0.006944444444444445,0,0,0.006944444444444445,8.125,0)" xlink:href="#an"/><use transform="matrix(0.006944444444444445,0,0,0.006944444444444445,16.65277777777778,0)" xlink:href="#ao"/><use transform="matrix(0.006944444444444445,0,0,0.006944444444444445,25.055555555555557,0)" xlink:href="#ao"/><use transform="matrix(0.006944444444444445,0,0,0.006944444444444445,33.458333333333336,0)" xlink:href="#ap"/><use transform="matrix(0.006944444444444445,0,0,0.006944444444444445,41.75,0)" xlink:href="#am"/><use transform="matrix(0.006944444444444445,0,0,0.006944444444444445,49.875,0)" xlink:href="#aq"/><use transform="matrix(0.006944444444444445,0,0,0.006944444444444445,54.38888888888889,0)" xlink:href="#ap"/><use transform="matrix(0.006944444444444445,0,0,0.006944444444444445,62.68055555555556,0)" xlink:href="#ar"/></g><path fill="#282c33" d="M471 26C259 26 90-98 90-318c0-256 228-303 435-329 202-27 287-16 287-108 0-139-79-219-234-219-161 0-248 86-283 164l-173-57c86-203 278-265 451-265 150 0 419 46 419 395V0H815v-152h-12C765-73 660 26 471 26zm31-159c199 0 310-134 310-271v-155c-30 35-226 55-295 64-131 17-246 59-246 186 0 116 97 176 231 176" id="as"/><g id="e"><use transform="matrix(0.006944444444444445,0,0,0.006944444444444445,0,0)" xlink:href="#as"/><use transform="matrix(0.006944444444444445,0,0,0.006944444444444445,7.986111111111112,0)" xlink:href="#ao"/><use transform="matrix(0.006944444444444445,0,0,0.006944444444444445,16.38888888888889,0)" xlink:href="#ar"/></g><path fill="#282c33" d="M158 0v-1118h174v172h12c41-113 157-188 290-188 26 0 70 2 91 3v181c-11-2-60-10-108-10-161 0-279 109-279 260V0H158" id="at"/><path fill="#282c33" d="M158 418v-1536h174v179h20c37-59 106-193 324-193 279 0 474 222 474 576 0 356-194 580-473 580-213 0-288-135-325-197h-14v591H158zm492-555c209 0 317-186 317-421 0-232-105-413-317-413-206 0-314 166-314 413 0 249 111 421 314 421" id="au"/><path fill="#282c33" d="M158 0v-1118h180V0H158zm91-1301c-68 0-125-53-125-119s57-119 125-119c69 0 126 53 126 119s-57 119-126 119" id="av"/><path fill="#282c33" d="M611 442c-248 0-391-105-460-228l146-94c47 65 117 165 314 165 178 0 307-82 307-266v-224h-17C863-141 792-18 576-18c-268 0-472-195-472-546 0-346 197-568 476-568 216 0 288 133 326 193h17v-179h175V29c0 289-215 413-487 413zm-5-620c203 0 314-146 314-390 0-237-108-403-314-403-213 0-319 180-319 403 0 230 109 390 319 390" id="aw"/><g id="f"><use transform="matrix(0.006944444444444445,0,0,0.006944444444444445,0,0)" xlink:href="#at"/><use transform="matrix(0.006944444444444445,0,0,0.006944444444444445,5.118055555555556,0)" xlink:href="#ap"/><use transform="matrix(0.006944444444444445,0,0,0.006944444444444445,13.409722222222225,0)" xlink:href="#au"/><use transform="matrix(0.006944444444444445,0,0,0.006944444444444445,22.118055555555557,0)" xlink:href="#an"/><use transform="matrix(0.006944444444444445,0,0,0.006944444444444445,30.645833333333336,0)" xlink:href="#at"/><use transform="matrix(0.006944444444444445,0,0,0.006944444444444445,36.22222222222222,0)" xlink:href="#aq"/><use transform="matrix(0.006944444444444445,0,0,0.006944444444444445,40.875,0)" xlink:href="#av"/><use transform="matrix(0.006944444444444445,0,0,0.006944444444444445,44.31944444444444,0)" xlink:href="#ao"/><use transform="matrix(0.006944444444444445,0,0,0.006944444444444445,52.72222222222222,0)" xlink:href="#aw"/></g><g id="g"><use transform="matrix(0.006944444444444445,0,0,0.006944444444444445,0,0)" xlink:href="#aq"/><use transform="matrix(0.006944444444444445,0,0,0.006944444444444445,4.513888888888888,0)" xlink:href="#an"/></g><g id="h"><use transform="matrix(0.006944444444444445,0,0,0.006944444444444445,0,0)" xlink:href="#ah"/><use transform="matrix(0.006944444444444445,0,0,0.006944444444444445,3.8194444444444446,0)" xlink:href="#ao"/><use transform="matrix(0.006944444444444445,0,0,0.006944444444444445,12.222222222222223,0)" xlink:href="#ai"/><use transform="matrix(0.006944444444444445,0,0,0.006944444444444445,19.729166666666668,0)" xlink:href="#aq"/><use transform="matrix(0.006944444444444445,0,0,0.006944444444444445,24.45138888888889,0)" xlink:href="#as"/><use transform="matrix(0.006944444444444445,0,0,0.006944444444444445,32.4375,0)" xlink:href="#ao"/><use transform="matrix(0.006944444444444445,0,0,0.006944444444444445,40.84027777777778,0)" xlink:href="#am"/><use transform="matrix(0.006944444444444445,0,0,0.006944444444444445,48.96527777777778,0)" xlink:href="#ap"/></g><path fill="#282c33" d="M180 0v-1490h270l367 940c28 72 75 218 110 339 35-117 81-264 110-339l362-940h271V0h-187c2-448-5-837 7-1287-157 497-311 829-483 1287H842C666-458 514-784 354-1284c12 438 5 843 7 1284H180" id="ax"/><path fill="#282c33" d="M383-449c-3-277 82-343 222-425 88-53 156-134 156-250 0-139-108-227-243-227-118 0-235 70-246 236H82c10-251 200-395 436-395 259 0 427 165 427 393 0 161-74 273-203 352-132 80-180 132-178 316H383zm93 462c-75 0-135-60-135-134 0-75 60-135 135-135 74 0 134 60 134 135 0 74-60 134-134 134" id="ay"/><g id="i"><use transform="matrix(0.006944444444444445,0,0,0.006944444444444445,0,0)" xlink:href="#ax"/><use transform="matrix(0.006944444444444445,0,0,0.006944444444444445,12.847222222222223,0)" xlink:href="#as"/><use transform="matrix(0.006944444444444445,0,0,0.006944444444444445,20.833333333333336,0)" xlink:href="#ao"/><use transform="matrix(0.006944444444444445,0,0,0.006944444444444445,29.236111111111114,0)" xlink:href="#as"/><use transform="matrix(0.006944444444444445,0,0,0.006944444444444445,37.22222222222223,0)" xlink:href="#aw"/><use transform="matrix(0.006944444444444445,0,0,0.006944444444444445,45.94444444444445,0)" xlink:href="#ap"/><use transform="matrix(0.006944444444444445,0,0,0.006944444444444445,54.236111111111114,0)" xlink:href="#at"/><use transform="matrix(0.006944444444444445,0,0,0.006944444444444445,59.59027777777778,0)" xlink:href="#ay"/></g><path fill="#333" d="M601 0v-560L49-1490h357l252 464c38 68 67 130 97 208 96-243 225-446 337-672h356L905-560V0H601" id="az"/><path fill="#333" d="M633 22C291 22 81-200 81-553c0-345 210-579 537-579 292 0 525 185 525 567v84H378c7 183 109 277 260 277 105 0 184-46 216-132l272 51C1071-99 893 22 633 22zM380-669h474c-15-146-94-237-233-237-143 0-229 99-241 237" id="aA"/><path fill="#333" d="M572 22C302 22 117-98 78-306l279-48c29 105 101 156 224 156 114 0 185-48 185-115 0-118-228-130-337-155-215-49-322-150-322-317 0-215 187-347 470-347 265 0 424 116 466 298l-266 47c-24-76-87-130-196-130-98 0-174 46-174 113 0 56 38 95 144 117l201 40c216 44 320 143 320 302 0 220-207 367-500 367" id="aB"/><g id="j"><use transform="matrix(0.008680555555555556,0,0,0.008680555555555556,0,0)" xlink:href="#az"/><use transform="matrix(0.008680555555555556,0,0,0.008680555555555556,11.050347222222223,0)" xlink:href="#aA"/><use transform="matrix(0.008680555555555556,0,0,0.008680555555555556,21.640625,0)" xlink:href="#aB"/></g><g id="k"><use transform="matrix(0.006944444444444445,0,0,0.006944444444444445,0,0)" xlink:href="#aj"/><use transform="matrix(0.006944444444444445,0,0,0.006944444444444445,10.715277777777779,0)" xlink:href="#ak"/><use transform="matrix(0.006944444444444445,0,0,0.006944444444444445,21.326388888888893,0)" xlink:href="#ah"/><use transform="matrix(0.006944444444444445,0,0,0.006944444444444445,25.145833333333336,0)" xlink:href="#aj"/><use transform="matrix(0.006944444444444445,0,0,0.006944444444444445,35.861111111111114,0)" xlink:href="#al"/></g><g id="l"><use transform="matrix(0.006944444444444445,0,0,0.006944444444444445,0,0)" xlink:href="#an"/><use transform="matrix(0.006944444444444445,0,0,0.006944444444444445,8.527777777777779,0)" xlink:href="#au"/><use transform="matrix(0.006944444444444445,0,0,0.006944444444444445,17.236111111111114,0)" xlink:href="#ap"/><use transform="matrix(0.006944444444444445,0,0,0.006944444444444445,25.527777777777782,0)" xlink:href="#at"/><use transform="matrix(0.006944444444444445,0,0,0.006944444444444445,30.881944444444454,0)" xlink:href="#as"/><use transform="matrix(0.006944444444444445,0,0,0.006944444444444445,38.868055555555564,0)" xlink:href="#aq"/><use transform="matrix(0.006944444444444445,0,0,0.006944444444444445,43.38194444444446,0)" xlink:href="#ap"/><use transform="matrix(0.006944444444444445,0,0,0.006944444444444445,51.67361111111113,0)" xlink:href="#ai"/></g><path fill="#282c33" d="M158 0v-1118h175l1 205c55-151 181-225 313-225 147 0 245 90 285 228 53-141 190-228 352-228 194 0 352 125 352 384V0h-181v-749c0-161-105-225-225-225-151 0-243 103-243 244V0H807v-767c0-124-93-207-219-207-131 0-250 92-250 270V0H158" id="aC"/><path fill="#282c33" d="M338-1490V0H158v-1490h180" id="aD"/><path fill="#282c33" d="M140 405l46-156c120 36 205 19 263-150l32-93L54-1118h197c107 313 237 620 324 950 87-331 219-637 326-950h196L606 167c-68 178-176 259-334 259-64 0-113-12-132-21" id="aE"/><path fill="#282c33" d="M295 13c-75 0-135-60-135-135s60-135 135-135 135 60 135 135S370 13 295 13" id="aF"/><g id="m"><use transform="matrix(0.006944444444444445,0,0,0.006944444444444445,0,0)" xlink:href="#ao"/><use transform="matrix(0.006944444444444445,0,0,0.006944444444444445,8.402777777777779,0)" xlink:href="#an"/><use transform="matrix(0.006944444444444445,0,0,0.006944444444444445,16.930555555555557,0)" xlink:href="#at"/><use transform="matrix(0.006944444444444445,0,0,0.006944444444444445,22.506944444444446,0)" xlink:href="#aC"/><use transform="matrix(0.006944444444444445,0,0,0.006944444444444445,34.96527777777778,0)" xlink:href="#as"/><use transform="matrix(0.006944444444444445,0,0,0.006944444444444445,42.95138888888889,0)" xlink:href="#aD"/><use transform="matrix(0.006944444444444445,0,0,0.006944444444444445,46.395833333333336,0)" xlink:href="#aD"/><use transform="matrix(0.006944444444444445,0,0,0.006944444444444445,49.90972222222222,0)" xlink:href="#aE"/><use transform="matrix(0.006944444444444445,0,0,0.006944444444444445,57.27777777777778,0)" xlink:href="#aF"/></g><path fill="#333" d="M135 0v-1490h340l471 754c59 97 122 210 187 365-32-387-14-721-19-1119h312V0h-341C855-382 627-689 427-1113c32 420 16 695 20 1113H135" id="aG"/><path fill="#333" d="M628 22C291 22 81-210 81-554c0-346 210-578 547-578 336 0 547 232 547 578 0 344-211 576-547 576zm0-236c160 0 242-146 242-341 0-197-82-341-242-341S387-753 387-555c0 195 81 341 241 341" id="aH"/><g id="n"><use transform="matrix(0.008680555555555556,0,0,0.008680555555555556,0,0)" xlink:href="#aG"/><use transform="matrix(0.008680555555555556,0,0,0.008680555555555556,13.550347222222223,0)" xlink:href="#aH"/></g><path d="M370-1490V0H180v-1490h190" id="aI"/><path d="M538 24C308 24 148-78 108-271l171-41c32 123 123 178 257 178 156 0 256-77 256-169 0-77-54-128-164-154l-186-44c-203-48-300-148-300-305 0-192 176-326 414-326 230 0 351 112 402 269l-163 42c-31-80-94-158-238-158-133 0-233 69-233 162 0 83 57 129 188 160l169 40c203 48 298 149 298 302 0 196-179 339-441 339" id="aJ"/><g id="o"><use transform="matrix(0.006510416666666667,0,0,0.006510416666666667,0,0)" xlink:href="#aI"/><use transform="matrix(0.006510416666666667,0,0,0.006510416666666667,3.580729166666667,0)" xlink:href="#aJ"/></g><path d="M598-1118v154H368v674c0 100 37 144 132 144 23 0 62-6 92-12L629-6c-37 13-88 20-134 20-193 0-307-107-307-290v-688H20v-154h168v-266h180v266h230" id="aK"/><path d="M338-670V0H158v-1490h180v566c73-149 190-208 336-208 226 0 379 139 379 422V0H872v-695c0-172-96-275-252-275-161 0-282 109-282 300" id="aL"/><path d="M628 24c-324 0-524-230-524-574 0-343 198-582 503-582 237 0 487 146 487 559v75H286c9 234 145 362 343 362 132 0 231-58 273-172l174 48C1024-91 857 24 628 24zM287-650h624c-17-190-120-322-304-322-192 0-309 151-320 322" id="aM"/><g id="p"><use transform="matrix(0.006510416666666667,0,0,0.006510416666666667,0,0)" xlink:href="#aK"/><use transform="matrix(0.006510416666666667,0,0,0.006510416666666667,4.361979166666667,0)" xlink:href="#aL"/><use transform="matrix(0.006510416666666667,0,0,0.006510416666666667,12.24609375,0)" xlink:href="#aM"/></g><path d="M611 442c-248 0-391-105-460-228l146-94c47 65 117 165 314 165 178 0 307-82 307-266v-224h-17C863-141 792-18 576-18c-268 0-472-195-472-546 0-346 197-568 476-568 216 0 288 133 326 193h17v-179h175V29c0 289-215 413-487 413zm-5-620c203 0 314-146 314-390 0-237-108-403-314-403-213 0-319 180-319 403 0 230 109 390 319 390" id="aN"/><path d="M158 0v-1118h174v172h12c41-113 157-188 290-188 26 0 70 2 91 3v181c-11-2-60-10-108-10-161 0-279 109-279 260V0H158" id="aO"/><path d="M471 26C259 26 90-98 90-318c0-256 228-303 435-329 202-27 287-16 287-108 0-139-79-219-234-219-161 0-248 86-283 164l-173-57c86-203 278-265 451-265 150 0 419 46 419 395V0H815v-152h-12C765-73 660 26 471 26zm31-159c199 0 310-134 310-271v-155c-30 35-226 55-295 64-131 17-246 59-246 186 0 116 97 176 231 176" id="aP"/><path d="M613 24c-304 0-509-231-509-576 0-350 205-580 509-580 216 0 392 114 453 309l-173 49c-33-115-133-197-280-197-223 0-326 196-326 419 0 220 103 415 326 415 150 0 252-85 285-206l172 49C1010-95 832 24 613 24" id="aQ"/><g id="q"><use transform="matrix(0.006510416666666667,0,0,0.006510416666666667,0,0)" xlink:href="#aN"/><use transform="matrix(0.006510416666666667,0,0,0.006510416666666667,8.177083333333334,0)" xlink:href="#aO"/><use transform="matrix(0.006510416666666667,0,0,0.006510416666666667,13.196614583333334,0)" xlink:href="#aP"/><use transform="matrix(0.006510416666666667,0,0,0.006510416666666667,20.68359375,0)" xlink:href="#aQ"/><use transform="matrix(0.006510416666666667,0,0,0.006510416666666667,28.30078125,0)" xlink:href="#aM"/></g><path d="M158 418v-1536h174v179h20c37-59 106-193 324-193 279 0 474 222 474 576 0 356-194 580-473 580-213 0-288-135-325-197h-14v591H158zm492-555c209 0 317-186 317-421 0-232-105-413-317-413-206 0-314 166-314 413 0 249 111 421 314 421" id="aR"/><path d="M158 0v-1118h180V0H158zm91-1301c-68 0-125-53-125-119s57-119 125-119c69 0 126 53 126 119s-57 119-126 119" id="aS"/><path d="M613 24c-304 0-509-231-509-576 0-350 205-580 509-580 305 0 511 230 511 580 0 345-206 576-511 576zm0-161c226 0 329-195 329-415 0-222-103-419-329-419-223 0-326 196-326 419 0 220 103 415 326 415" id="aT"/><path d="M577 24c-279 0-473-224-473-580 0-354 195-576 474-576 218 0 287 134 324 193h14v-551h180V0H922v-173h-20C865-111 790 24 577 24zm27-161c203 0 314-172 314-421 0-247-108-413-314-413-212 0-317 181-317 413 0 235 108 421 317 421" id="aU"/><g id="r"><use transform="matrix(0.006510416666666667,0,0,0.006510416666666667,0,0)" xlink:href="#aR"/><use transform="matrix(0.006510416666666667,0,0,0.006510416666666667,8.1640625,0)" xlink:href="#aM"/><use transform="matrix(0.006510416666666667,0,0,0.006510416666666667,15.9375,0)" xlink:href="#aO"/><use transform="matrix(0.006510416666666667,0,0,0.006510416666666667,21.165364583333332,0)" xlink:href="#aS"/><use transform="matrix(0.006510416666666667,0,0,0.006510416666666667,24.39453125,0)" xlink:href="#aT"/><use transform="matrix(0.006510416666666667,0,0,0.006510416666666667,32.389322916666664,0)" xlink:href="#aU"/></g><path d="M481 0L54-1118h197c107 314 236 620 325 951 87-331 217-637 324-951h197L670 0H481" id="aV"/><g id="s"><use transform="matrix(0.006510416666666667,0,0,0.006510416666666667,0,0)" xlink:href="#aU"/><use transform="matrix(0.006510416666666667,0,0,0.006510416666666667,8.1640625,0)" xlink:href="#aS"/><use transform="matrix(0.006510416666666667,0,0,0.006510416666666667,11.393229166666668,0)" xlink:href="#aO"/><use transform="matrix(0.006510416666666667,0,0,0.006510416666666667,16.19140625,0)" xlink:href="#aM"/><use transform="matrix(0.006510416666666667,0,0,0.006510416666666667,23.96484375,0)" xlink:href="#aQ"/><use transform="matrix(0.006510416666666667,0,0,0.006510416666666667,31.58203125,0)" xlink:href="#aK"/><use transform="matrix(0.006510416666666667,0,0,0.006510416666666667,35.944010416666664,0)" xlink:href="#aS"/><use transform="matrix(0.006510416666666667,0,0,0.006510416666666667,39.17317708333333,0)" xlink:href="#aV"/><use transform="matrix(0.006510416666666667,0,0,0.006510416666666667,46.40625,0)" xlink:href="#aM"/></g><path d="M218-607c0-325 108-727 258-974h175c-155 315-250 682-250 974 0 265 78 531 250 886H476C306-10 218-315 218-607" id="aW"/><path d="M338-670V0H158v-1118h173l1 207c72-158 192-221 342-221 226 0 378 139 378 422V0H872v-695c0-172-96-275-252-275-161 0-282 109-282 300" id="aX"/><path d="M678-1118v154H420V0H240v-964H20v-154h220v-149c0-194 155-293 318-293 85 0 141 18 168 30l-50 154c-19-6-47-17-97-17-111 0-159 58-159 166v109h258" id="aY"/><path d="M934 0v166H0V0h934" id="aZ"/><path d="M338-1490V0H158v-1490h180" id="ba"/><path d="M96 279C273-86 346-350 346-607c0-292-95-659-250-974h175c150 246 258 650 258 974 0 297-91 602-258 886H96" id="bb"/><g id="t"><use transform="matrix(0.006510416666666667,0,0,0.006510416666666667,0,0)" xlink:href="#aW"/><use transform="matrix(0.006510416666666667,0,0,0.006510416666666667,4.713541666666667,0)" xlink:href="#aM"/><use transform="matrix(0.006510416666666667,0,0,0.006510416666666667,12.486979166666668,0)" xlink:href="#aX"/><use transform="matrix(0.006510416666666667,0,0,0.006510416666666667,20.364583333333336,0)" xlink:href="#aY"/><use transform="matrix(0.006510416666666667,0,0,0.006510416666666667,24.90885416666667,0)" xlink:href="#aT"/><use transform="matrix(0.006510416666666667,0,0,0.006510416666666667,32.903645833333336,0)" xlink:href="#aO"/><use transform="matrix(0.006510416666666667,0,0,0.006510416666666667,37.70182291666667,0)" xlink:href="#aQ"/><use transform="matrix(0.006510416666666667,0,0,0.006510416666666667,45.31901041666667,0)" xlink:href="#aM"/><use transform="matrix(0.006510416666666667,0,0,0.006510416666666667,53.09244791666667,0)" xlink:href="#aZ"/><use transform="matrix(0.006510416666666667,0,0,0.006510416666666667,59.622395833333336,0)" xlink:href="#aS"/><use transform="matrix(0.006510416666666667,0,0,0.006510416666666667,62.8515625,0)" xlink:href="#aX"/><use transform="matrix(0.006510416666666667,0,0,0.006510416666666667,70.72916666666667,0)" xlink:href="#aS"/><use transform="matrix(0.006510416666666667,0,0,0.006510416666666667,73.95833333333334,0)" xlink:href="#aK"/><use transform="matrix(0.006510416666666667,0,0,0.006510416666666667,78.32031250000001,0)" xlink:href="#aS"/><use transform="matrix(0.006510416666666667,0,0,0.006510416666666667,81.54947916666669,0)" xlink:href="#aP"/><use transform="matrix(0.006510416666666667,0,0,0.006510416666666667,89.03645833333336,0)" xlink:href="#ba"/><use transform="matrix(0.006510416666666667,0,0,0.006510416666666667,92.26562500000003,0)" xlink:href="#aZ"/><use transform="matrix(0.006510416666666667,0,0,0.006510416666666667,98.7955729166667,0)" xlink:href="#aO"/><use transform="matrix(0.006510416666666667,0,0,0.006510416666666667,103.59375000000003,0)" xlink:href="#aM"/><use transform="matrix(0.006510416666666667,0,0,0.006510416666666667,111.36718750000003,0)" xlink:href="#aR"/><use transform="matrix(0.006510416666666667,0,0,0.006510416666666667,119.53125000000003,0)" xlink:href="#aT"/><use transform="matrix(0.006510416666666667,0,0,0.006510416666666667,127.5260416666667,0)" xlink:href="#aO"/><use transform="matrix(0.006510416666666667,0,0,0.006510416666666667,132.75390625000003,0)" xlink:href="#aK"/><use transform="matrix(0.006510416666666667,0,0,0.006510416666666667,137.11588541666669,0)" xlink:href="#bb"/></g><g id="u"><use transform="matrix(0.006510416666666667,0,0,0.006510416666666667,0,0)" xlink:href="#aJ"/><use transform="matrix(0.006510416666666667,0,0,0.006510416666666667,7.037760416666667,0)" xlink:href="#aM"/><use transform="matrix(0.006510416666666667,0,0,0.006510416666666667,14.811197916666668,0)" xlink:href="#aK"/></g><g id="v"><use transform="matrix(0.006510416666666667,0,0,0.006510416666666667,0,0)" xlink:href="#aK"/><use transform="matrix(0.006510416666666667,0,0,0.006510416666666667,4.231770833333334,0)" xlink:href="#aT"/></g><path d="M383-449c-3-277 82-343 222-425 88-53 156-134 156-250 0-139-108-227-243-227-118 0-235 70-246 236H82c10-251 200-395 436-395 259 0 427 165 427 393 0 161-74 273-203 352-132 80-180 132-178 316H383zm93 462c-75 0-135-60-135-134 0-75 60-135 135-135 74 0 134 60 134 135 0 74-60 134-134 134" id="bc"/><g id="w"><use transform="matrix(0.006510416666666667,0,0,0.006510416666666667,0,0)" xlink:href="#aT"/><use transform="matrix(0.006510416666666667,0,0,0.006510416666666667,7.994791666666667,0)" xlink:href="#aY"/><use transform="matrix(0.006510416666666667,0,0,0.006510416666666667,12.408854166666668,0)" xlink:href="#aY"/><use transform="matrix(0.006510416666666667,0,0,0.006510416666666667,17.34375,0)" xlink:href="#bc"/></g><path d="M180 0v-1490h190v644h782v-644h190V0h-190v-678H370V0H180" id="bd"/><g id="x"><use transform="matrix(0.006510416666666667,0,0,0.006510416666666667,0,0)" xlink:href="#bd"/><use transform="matrix(0.006510416666666667,0,0,0.006510416666666667,9.908854166666668,0)" xlink:href="#aP"/><use transform="matrix(0.006510416666666667,0,0,0.006510416666666667,17.395833333333336,0)" xlink:href="#aJ"/></g><g id="y"><use transform="matrix(0.006510416666666667,0,0,0.006510416666666667,0,0)" xlink:href="#aS"/><use transform="matrix(0.006510416666666667,0,0,0.006510416666666667,3.229166666666667,0)" xlink:href="#aK"/></g><path d="M677 24c-213 0-288-135-325-197h-20V0H158v-1490h180v551h14c37-59 106-193 324-193 279 0 474 222 474 576 0 356-194 580-473 580zm-27-161c209 0 317-186 317-421 0-232-105-413-317-413-206 0-314 166-314 413 0 249 111 421 314 421" id="be"/><g id="z"><use transform="matrix(0.006510416666666667,0,0,0.006510416666666667,0,0)" xlink:href="#be"/><use transform="matrix(0.006510416666666667,0,0,0.006510416666666667,8.1640625,0)" xlink:href="#aM"/><use transform="matrix(0.006510416666666667,0,0,0.006510416666666667,15.9375,0)" xlink:href="#aM"/><use transform="matrix(0.006510416666666667,0,0,0.006510416666666667,23.7109375,0)" xlink:href="#aX"/></g><path d="M409 0L70-1118h191c89 329 165 560 243 925 75-353 154-601 240-925h192c85 325 161 564 235 922 77-354 157-598 244-922h191L1267 0h-179c-86-307-176-590-250-913C763-588 675-308 588 0H409" id="bf"/><g id="A"><use transform="matrix(0.006510416666666667,0,0,0.006510416666666667,0,0)" xlink:href="#aY"/><use transform="matrix(0.006510416666666667,0,0,0.006510416666666667,4.544270833333334,0)" xlink:href="#aM"/><use transform="matrix(0.006510416666666667,0,0,0.006510416666666667,12.076822916666668,0)" xlink:href="#bf"/><use transform="matrix(0.006510416666666667,0,0,0.006510416666666667,22.747395833333336,0)" xlink:href="#aM"/><use transform="matrix(0.006510416666666667,0,0,0.006510416666666667,30.520833333333336,0)" xlink:href="#aO"/></g><g id="B"><use transform="matrix(0.006510416666666667,0,0,0.006510416666666667,0,0)" xlink:href="#aK"/><use transform="matrix(0.006510416666666667,0,0,0.006510416666666667,4.361979166666667,0)" xlink:href="#aL"/><use transform="matrix(0.006510416666666667,0,0,0.006510416666666667,12.24609375,0)" xlink:href="#aP"/><use transform="matrix(0.006510416666666667,0,0,0.006510416666666667,19.733072916666668,0)" xlink:href="#aX"/></g><path d="M653-1490V0H466v-1314h-10L96-1047v-204l324-239h233" id="bg"/><path d="M633 20c-303 0-511-173-511-416 0-188 124-348 291-378v-8c-145-37-237-174-237-332 0-227 192-396 457-396 261 0 456 169 456 396 0 158-94 295-235 332v8c162 30 291 190 291 378 0 243-212 416-512 416zm0-165c197 0 322-103 322-261 0-165-138-283-322-283-188 0-324 118-324 283 0 158 123 261 324 261zm0-703c157 0 272-101 272-252 0-149-110-246-272-246-165 0-273 97-273 246 0 151 112 252 273 252" id="bh"/><path d="M646 20c-332 0-524-278-524-764 0-483 194-766 524-766s524 283 524 766c0 485-191 764-524 764zm0-166c218 0 341-220 341-598 0-380-123-601-341-601s-341 222-341 601c0 378 123 598 341 598" id="bi"/><g id="C"><use transform="matrix(0.006510416666666667,0,0,0.006510416666666667,0,0)" xlink:href="#bg"/><use transform="matrix(0.006510416666666667,0,0,0.006510416666666667,5.423177083333334,0)" xlink:href="#bh"/><use transform="matrix(0.006510416666666667,0,0,0.006510416666666667,13.671875,0)" xlink:href="#bi"/></g><path d="M140 405l46-156c120 36 205 19 263-150l32-93L54-1118h197c107 313 237 620 324 950 87-331 219-637 326-950h196L606 167c-68 178-176 259-334 259-64 0-113-12-132-21" id="bj"/><g id="D"><use transform="matrix(0.006510416666666667,0,0,0.006510416666666667,0,0)" xlink:href="#aU"/><use transform="matrix(0.006510416666666667,0,0,0.006510416666666667,8.1640625,0)" xlink:href="#aP"/><use transform="matrix(0.006510416666666667,0,0,0.006510416666666667,15.455729166666668,0)" xlink:href="#bj"/><use transform="matrix(0.006510416666666667,0,0,0.006510416666666667,22.94921875,0)" xlink:href="#aJ"/></g><g id="E"><use transform="matrix(0.006510416666666667,0,0,0.006510416666666667,0,0)" xlink:href="#aJ"/><use transform="matrix(0.006510416666666667,0,0,0.006510416666666667,7.037760416666667,0)" xlink:href="#aS"/><use transform="matrix(0.006510416666666667,0,0,0.006510416666666667,10.266927083333334,0)" xlink:href="#aX"/><use transform="matrix(0.006510416666666667,0,0,0.006510416666666667,18.14453125,0)" xlink:href="#aQ"/><use transform="matrix(0.006510416666666667,0,0,0.006510416666666667,25.76171875,0)" xlink:href="#aM"/></g><g id="F"><use transform="matrix(0.006510416666666667,0,0,0.006510416666666667,0,0)" xlink:href="#aU"/><use transform="matrix(0.006510416666666667,0,0,0.006510416666666667,8.1640625,0)" xlink:href="#aS"/><use transform="matrix(0.006510416666666667,0,0,0.006510416666666667,11.393229166666668,0)" xlink:href="#aO"/><use transform="matrix(0.006510416666666667,0,0,0.006510416666666667,16.19140625,0)" xlink:href="#aM"/><use transform="matrix(0.006510416666666667,0,0,0.006510416666666667,23.96484375,0)" xlink:href="#aQ"/><use transform="matrix(0.006510416666666667,0,0,0.006510416666666667,31.58203125,0)" xlink:href="#aK"/><use transform="matrix(0.006510416666666667,0,0,0.006510416666666667,35.944010416666664,0)" xlink:href="#aS"/><use transform="matrix(0.006510416666666667,0,0,0.006510416666666667,39.17317708333333,0)" xlink:href="#aV"/><use transform="matrix(0.006510416666666667,0,0,0.006510416666666667,46.40625,0)" xlink:href="#aM"/></g><g id="G"><use transform="matrix(0.006510416666666667,0,0,0.006510416666666667,0,0)" xlink:href="#bf"/><use transform="matrix(0.006510416666666667,0,0,0.006510416666666667,10.911458333333334,0)" xlink:href="#aP"/><use transform="matrix(0.006510416666666667,0,0,0.006510416666666667,18.3984375,0)" xlink:href="#aJ"/></g><g id="H"><use transform="matrix(0.006510416666666667,0,0,0.006510416666666667,0,0)" xlink:href="#aJ"/><use transform="matrix(0.006510416666666667,0,0,0.006510416666666667,7.037760416666667,0)" xlink:href="#aM"/><use transform="matrix(0.006510416666666667,0,0,0.006510416666666667,14.811197916666668,0)" xlink:href="#aK"/></g><g id="I"><use transform="matrix(0.006510416666666667,0,0,0.006510416666666667,0,0)" xlink:href="#aT"/><use transform="matrix(0.006510416666666667,0,0,0.006510416666666667,7.994791666666667,0)" xlink:href="#aO"/></g><g id="J"><use transform="matrix(0.006510416666666667,0,0,0.006510416666666667,0,0)" xlink:href="#ba"/><use transform="matrix(0.006510416666666667,0,0,0.006510416666666667,3.229166666666667,0)" xlink:href="#aP"/><use transform="matrix(0.006510416666666667,0,0,0.006510416666666667,10.716145833333334,0)" xlink:href="#aJ"/><use transform="matrix(0.006510416666666667,0,0,0.006510416666666667,17.75390625,0)" xlink:href="#aK"/></g><path d="M537 14c-226 0-379-139-379-422v-710h180v695c0 172 97 275 253 275 160 0 281-109 281-300v-670h181V0H879v-209C806-46 684 14 537 14" id="bk"/><g id="K"><use transform="matrix(0.006510416666666667,0,0,0.006510416666666667,0,0)" xlink:href="#aJ"/><use transform="matrix(0.006510416666666667,0,0,0.006510416666666667,7.037760416666667,0)" xlink:href="#bk"/><use transform="matrix(0.006510416666666667,0,0,0.006510416666666667,14.921875,0)" xlink:href="#aQ"/><use transform="matrix(0.006510416666666667,0,0,0.006510416666666667,22.5390625,0)" xlink:href="#aQ"/><use transform="matrix(0.006510416666666667,0,0,0.006510416666666667,30.15625,0)" xlink:href="#aM"/><use transform="matrix(0.006510416666666667,0,0,0.006510416666666667,37.9296875,0)" xlink:href="#aJ"/><use transform="matrix(0.006510416666666667,0,0,0.006510416666666667,44.967447916666664,0)" xlink:href="#aJ"/><use transform="matrix(0.006510416666666667,0,0,0.006510416666666667,52.00520833333333,0)" xlink:href="#aY"/><use transform="matrix(0.006510416666666667,0,0,0.006510416666666667,56.94010416666667,0)" xlink:href="#bk"/><use transform="matrix(0.006510416666666667,0,0,0.006510416666666667,64.82421875,0)" xlink:href="#ba"/></g><g id="L"><use transform="matrix(0.006510416666666667,0,0,0.006510416666666667,0,0)" xlink:href="#aO"/><use transform="matrix(0.006510416666666667,0,0,0.006510416666666667,4.798177083333333,0)" xlink:href="#aM"/><use transform="matrix(0.006510416666666667,0,0,0.006510416666666667,12.571614583333332,0)" xlink:href="#aR"/><use transform="matrix(0.006510416666666667,0,0,0.006510416666666667,20.735677083333332,0)" xlink:href="#aT"/><use transform="matrix(0.006510416666666667,0,0,0.006510416666666667,28.73046875,0)" xlink:href="#aO"/><use transform="matrix(0.006510416666666667,0,0,0.006510416666666667,33.95833333333333,0)" xlink:href="#aK"/><use transform="matrix(0.006510416666666667,0,0,0.006510416666666667,38.32031249999999,0)" xlink:href="#bc"/></g><g id="M"><use transform="matrix(0.006944444444444445,0,0,0.006944444444444445,0,0)" xlink:href="#ai"/><use transform="matrix(0.006944444444444445,0,0,0.006944444444444445,7.506944444444445,0)" xlink:href="#aq"/><use transform="matrix(0.006944444444444445,0,0,0.006944444444444445,12.020833333333332,0)" xlink:href="#an"/><use transform="matrix(0.006944444444444445,0,0,0.006944444444444445,20.54861111111111,0)" xlink:href="#au"/><use transform="matrix(0.006944444444444445,0,0,0.006944444444444445,29.25694444444444,0)" xlink:href="#ai"/></g><g id="N"><use transform="matrix(0.006944444444444445,0,0,0.006944444444444445,0,0)" xlink:href="#au"/><use transform="matrix(0.006944444444444445,0,0,0.006944444444444445,8.708333333333334,0)" xlink:href="#at"/><use transform="matrix(0.006944444444444445,0,0,0.006944444444444445,13.82638888888889,0)" xlink:href="#an"/><use transform="matrix(0.006944444444444445,0,0,0.006944444444444445,22.354166666666668,0)" xlink:href="#am"/><use transform="matrix(0.006944444444444445,0,0,0.006944444444444445,30.479166666666668,0)" xlink:href="#ap"/><use transform="matrix(0.006944444444444445,0,0,0.006944444444444445,38.770833333333336,0)" xlink:href="#ai"/><use transform="matrix(0.006944444444444445,0,0,0.006944444444444445,46.27777777777778,0)" xlink:href="#ai"/><use transform="matrix(0.006944444444444445,0,0,0.006944444444444445,53.78472222222222,0)" xlink:href="#av"/><use transform="matrix(0.006944444444444445,0,0,0.006944444444444445,57.22916666666666,0)" xlink:href="#ao"/><use transform="matrix(0.006944444444444445,0,0,0.006944444444444445,65.63194444444444,0)" xlink:href="#aw"/></g><path fill="#282c33" d="M678-1118v154H420V0H240v-964H20v-154h220v-149c0-194 155-293 318-293 85 0 141 18 168 30l-50 154c-19-6-47-17-97-17-111 0-159 58-159 166v109h258" id="bl"/><g id="O"><use transform="matrix(0.006944444444444445,0,0,0.006944444444444445,0,0)" xlink:href="#aq"/><use transform="matrix(0.006944444444444445,0,0,0.006944444444444445,4.652777777777778,0)" xlink:href="#at"/><use transform="matrix(0.006944444444444445,0,0,0.006944444444444445,10.006944444444445,0)" xlink:href="#as"/><use transform="matrix(0.006944444444444445,0,0,0.006944444444444445,17.993055555555557,0)" xlink:href="#bl"/><use transform="matrix(0.006944444444444445,0,0,0.006944444444444445,22.70138888888889,0)" xlink:href="#bl"/><use transform="matrix(0.006944444444444445,0,0,0.006944444444444445,27.96527777777778,0)" xlink:href="#av"/><use transform="matrix(0.006944444444444445,0,0,0.006944444444444445,31.409722222222225,0)" xlink:href="#am"/><use transform="matrix(0.006944444444444445,0,0,0.006944444444444445,39.53472222222222,0)" xlink:href="#aF"/></g><path d="M180 0v-1490h908v168H370v486h669v168H370v500h727V0H180" id="bm"/><path d="M65 0l393-574-370-544h210c88 136 192 297 267 435 67-142 176-302 264-435h206L661-564 1053 0H844c-94-144-206-310-287-458C484-308 366-142 273 0H65" id="bn"/><g id="P"><use transform="matrix(0.006510416666666667,0,0,0.006510416666666667,0,0)" xlink:href="#bm"/><use transform="matrix(0.006510416666666667,0,0,0.006510416666666667,8.014322916666668,0)" xlink:href="#bn"/><use transform="matrix(0.006510416666666667,0,0,0.006510416666666667,15.29296875,0)" xlink:href="#aR"/><use transform="matrix(0.006510416666666667,0,0,0.006510416666666667,23.45703125,0)" xlink:href="#aT"/><use transform="matrix(0.006510416666666667,0,0,0.006510416666666667,31.451822916666668,0)" xlink:href="#aO"/><use transform="matrix(0.006510416666666667,0,0,0.006510416666666667,36.6796875,0)" xlink:href="#aK"/></g><g id="Q"><use transform="matrix(0.006510416666666667,0,0,0.006510416666666667,0,0)" xlink:href="#bk"/><use transform="matrix(0.006510416666666667,0,0,0.006510416666666667,7.884114583333334,0)" xlink:href="#aJ"/><use transform="matrix(0.006510416666666667,0,0,0.006510416666666667,14.921875,0)" xlink:href="#aP"/><use transform="matrix(0.006510416666666667,0,0,0.006510416666666667,22.408854166666668,0)" xlink:href="#aN"/><use transform="matrix(0.006510416666666667,0,0,0.006510416666666667,30.5859375,0)" xlink:href="#aM"/></g><g id="R"><use transform="matrix(0.006510416666666667,0,0,0.006510416666666667,0,0)" xlink:href="#aU"/><use transform="matrix(0.006510416666666667,0,0,0.006510416666666667,8.1640625,0)" xlink:href="#aP"/><use transform="matrix(0.006510416666666667,0,0,0.006510416666666667,15.651041666666668,0)" xlink:href="#aK"/><use transform="matrix(0.006510416666666667,0,0,0.006510416666666667,20.078125,0)" xlink:href="#aP"/></g><g id="S"><use transform="matrix(0.006510416666666667,0,0,0.006510416666666667,0,0)" xlink:href="#aY"/><use transform="matrix(0.006510416666666667,0,0,0.006510416666666667,4.934895833333334,0)" xlink:href="#aS"/><use transform="matrix(0.006510416666666667,0,0,0.006510416666666667,8.1640625,0)" xlink:href="#ba"/><use transform="matrix(0.006510416666666667,0,0,0.006510416666666667,11.393229166666668,0)" xlink:href="#aM"/></g><path d="M158 0v-1118h175l1 205c55-151 181-225 313-225 147 0 245 90 285 228 53-141 190-228 352-228 194 0 352 125 352 384V0h-181v-749c0-161-105-225-225-225-151 0-243 103-243 244V0H807v-767c0-124-93-207-219-207-131 0-250 92-250 270V0H158" id="bo"/><g id="T"><use transform="matrix(0.006510416666666667,0,0,0.006510416666666667,0,0)" xlink:href="#aY"/><use transform="matrix(0.006510416666666667,0,0,0.006510416666666667,4.934895833333334,0)" xlink:href="#aO"/><use transform="matrix(0.006510416666666667,0,0,0.006510416666666667,9.733072916666668,0)" xlink:href="#aT"/><use transform="matrix(0.006510416666666667,0,0,0.006510416666666667,17.727864583333336,0)" xlink:href="#bo"/></g><path d="M180 0v-1490h224l606 953c40 63 108 177 176 312-27-437-7-821-13-1265h190V0h-226C860-448 622-778 356-1262c27 476 11 792 15 1262H180" id="bp"/><path d="M789 20c-398 0-667-293-667-764 0-473 273-766 655-766 315 0 558 198 612 487h-196c-61-191-204-311-415-311-262 0-471 207-471 590 0 380 208 588 482 588 249 0 420-165 425-427H828v-166h572v163c0 370-256 606-611 606" id="bq"/><path d="M57 0l534-763-501-727h220c122 187 296 416 391 605 94-191 272-419 396-605h215L811-770 1340 0h-219C986-204 811-426 699-640 588-430 407-202 273 0H57" id="br"/><g id="U"><use transform="matrix(0.006510416666666667,0,0,0.006510416666666667,0,0)" xlink:href="#bp"/><use transform="matrix(0.006510416666666667,0,0,0.006510416666666667,10.045572916666668,0)" xlink:href="#bq"/><use transform="matrix(0.006510416666666667,0,0,0.006510416666666667,19.993489583333336,0)" xlink:href="#aI"/><use transform="matrix(0.006510416666666667,0,0,0.006510416666666667,23.574218750000004,0)" xlink:href="#bp"/><use transform="matrix(0.006510416666666667,0,0,0.006510416666666667,33.61979166666667,0)" xlink:href="#br"/></g><g id="V"><use transform="matrix(0.006510416666666667,0,0,0.006510416666666667,0,0)" xlink:href="#aI"/><use transform="matrix(0.006510416666666667,0,0,0.006510416666666667,3.580729166666667,0)" xlink:href="#aX"/><use transform="matrix(0.006510416666666667,0,0,0.006510416666666667,11.458333333333334,0)" xlink:href="#aJ"/><use transform="matrix(0.006510416666666667,0,0,0.006510416666666667,18.49609375,0)" xlink:href="#aK"/><use transform="matrix(0.006510416666666667,0,0,0.006510416666666667,22.923177083333336,0)" xlink:href="#aP"/><use transform="matrix(0.006510416666666667,0,0,0.006510416666666667,30.41015625,0)" xlink:href="#aX"/><use transform="matrix(0.006510416666666667,0,0,0.006510416666666667,38.28776041666667,0)" xlink:href="#aQ"/><use transform="matrix(0.006510416666666667,0,0,0.006510416666666667,45.90494791666667,0)" xlink:href="#aM"/></g><path d="M180 0v-1490h270l367 940c28 72 75 218 110 339 35-117 81-264 110-339l362-940h271V0h-187c2-448-5-837 7-1287-157 497-311 829-483 1287H842C666-458 514-784 354-1284c12 438 5 843 7 1284H180" id="bs"/><g id="W"><use transform="matrix(0.006510416666666667,0,0,0.006510416666666667,0,0)" xlink:href="#bs"/><use transform="matrix(0.006510416666666667,0,0,0.006510416666666667,12.044270833333334,0)" xlink:href="#aP"/><use transform="matrix(0.006510416666666667,0,0,0.006510416666666667,19.53125,0)" xlink:href="#aX"/><use transform="matrix(0.006510416666666667,0,0,0.006510416666666667,27.408854166666668,0)" xlink:href="#aP"/><use transform="matrix(0.006510416666666667,0,0,0.006510416666666667,34.895833333333336,0)" xlink:href="#aN"/><use transform="matrix(0.006510416666666667,0,0,0.006510416666666667,43.07291666666667,0)" xlink:href="#aM"/><use transform="matrix(0.006510416666666667,0,0,0.006510416666666667,50.84635416666667,0)" xlink:href="#aO"/></g><g id="X"><use transform="matrix(0.006510416666666667,0,0,0.006510416666666667,0,0)" xlink:href="#aP"/><use transform="matrix(0.006510416666666667,0,0,0.006510416666666667,7.486979166666667,0)" xlink:href="#aX"/><use transform="matrix(0.006510416666666667,0,0,0.006510416666666667,15.364583333333334,0)" xlink:href="#aU"/></g><g id="Y"><use transform="matrix(0.006510416666666667,0,0,0.006510416666666667,0,0)" xlink:href="#aJ"/><use transform="matrix(0.006510416666666667,0,0,0.006510416666666667,7.037760416666667,0)" xlink:href="#aM"/><use transform="matrix(0.006510416666666667,0,0,0.006510416666666667,14.811197916666668,0)" xlink:href="#aX"/><use transform="matrix(0.006510416666666667,0,0,0.006510416666666667,22.688802083333336,0)" xlink:href="#aU"/></g><path d="M180 0v-1490h901v168H370v510h643v168H370V0H180" id="bt"/><path d="M626 20c-262 0-458-168-468-396h184c12 133 134 229 284 229 180 0 311-137 311-326 0-192-136-335-323-335-92 0-196 33-255 78l-178-22 88-738h784v167H429l-51 435h8c61-51 160-87 263-87 273 0 474 211 474 499 0 286-210 496-497 496" id="bu"/><path d="M295 13c-75 0-135-60-135-135s60-135 135-135 135 60 135 135S370 13 295 13" id="bv"/><g id="Z"><use transform="matrix(0.006510416666666667,0,0,0.006510416666666667,0,0)" xlink:href="#bt"/><use transform="matrix(0.006510416666666667,0,0,0.006510416666666667,7.87109375,0)" xlink:href="#bu"/><use transform="matrix(0.006510416666666667,0,0,0.006510416666666667,15.61848958333333,0)" xlink:href="#bv"/></g><g id="aa"><use transform="matrix(0.006510416666666667,0,0,0.006510416666666667,0,0)" xlink:href="#aS"/><use transform="matrix(0.006510416666666667,0,0,0.006510416666666667,3.229166666666667,0)" xlink:href="#aX"/><use transform="matrix(0.006510416666666667,0,0,0.006510416666666667,11.106770833333334,0)" xlink:href="#aS"/><use transform="matrix(0.006510416666666667,0,0,0.006510416666666667,14.3359375,0)" xlink:href="#aK"/><use transform="matrix(0.006510416666666667,0,0,0.006510416666666667,18.697916666666668,0)" xlink:href="#aS"/><use transform="matrix(0.006510416666666667,0,0,0.006510416666666667,21.927083333333336,0)" xlink:href="#aP"/><use transform="matrix(0.006510416666666667,0,0,0.006510416666666667,29.4140625,0)" xlink:href="#ba"/></g><g id="ab"><use transform="matrix(0.006510416666666667,0,0,0.006510416666666667,0,0)" xlink:href="#aO"/><use transform="matrix(0.006510416666666667,0,0,0.006510416666666667,4.798177083333333,0)" xlink:href="#aM"/><use transform="matrix(0.006510416666666667,0,0,0.006510416666666667,12.571614583333332,0)" xlink:href="#aR"/><use transform="matrix(0.006510416666666667,0,0,0.006510416666666667,20.735677083333332,0)" xlink:href="#aT"/><use transform="matrix(0.006510416666666667,0,0,0.006510416666666667,28.73046875,0)" xlink:href="#aO"/><use transform="matrix(0.006510416666666667,0,0,0.006510416666666667,33.95833333333333,0)" xlink:href="#aK"/></g><g id="ac"><use transform="matrix(0.006510416666666667,0,0,0.006510416666666667,0,0)" xlink:href="#aM"/><use transform="matrix(0.006510416666666667,0,0,0.006510416666666667,7.513020833333334,0)" xlink:href="#aV"/><use transform="matrix(0.006510416666666667,0,0,0.006510416666666667,14.74609375,0)" xlink:href="#aM"/><use transform="matrix(0.006510416666666667,0,0,0.006510416666666667,22.51953125,0)" xlink:href="#aO"/></g><g id="ad"><use transform="matrix(0.006510416666666667,0,0,0.006510416666666667,0,0)" xlink:href="#be"/><use transform="matrix(0.006510416666666667,0,0,0.006510416666666667,8.1640625,0)" xlink:href="#aM"/><use transform="matrix(0.006510416666666667,0,0,0.006510416666666667,15.9375,0)" xlink:href="#aM"/><use transform="matrix(0.006510416666666667,0,0,0.006510416666666667,23.7109375,0)" xlink:href="#aX"/></g><g id="ae"><use transform="matrix(0.006510416666666667,0,0,0.006510416666666667,0,0)" xlink:href="#aJ"/><use transform="matrix(0.006510416666666667,0,0,0.006510416666666667,7.037760416666667,0)" xlink:href="#aM"/><use transform="matrix(0.006510416666666667,0,0,0.006510416666666667,14.811197916666668,0)" xlink:href="#aX"/><use transform="matrix(0.006510416666666667,0,0,0.006510416666666667,22.688802083333336,0)" xlink:href="#aK"/></g><g id="af"><use transform="matrix(0.006510416666666667,0,0,0.006510416666666667,0,0)" xlink:href="#aJ"/><use transform="matrix(0.006510416666666667,0,0,0.006510416666666667,7.037760416666667,0)" xlink:href="#bk"/><use transform="matrix(0.006510416666666667,0,0,0.006510416666666667,14.921875,0)" xlink:href="#aQ"/><use transform="matrix(0.006510416666666667,0,0,0.006510416666666667,22.5390625,0)" xlink:href="#aQ"/><use transform="matrix(0.006510416666666667,0,0,0.006510416666666667,30.15625,0)" xlink:href="#aM"/><use transform="matrix(0.006510416666666667,0,0,0.006510416666666667,37.9296875,0)" xlink:href="#aJ"/><use transform="matrix(0.006510416666666667,0,0,0.006510416666666667,44.967447916666664,0)" xlink:href="#aJ"/><use transform="matrix(0.006510416666666667,0,0,0.006510416666666667,52.00520833333333,0)" xlink:href="#aY"/><use transform="matrix(0.006510416666666667,0,0,0.006510416666666667,56.94010416666667,0)" xlink:href="#bk"/><use transform="matrix(0.006510416666666667,0,0,0.006510416666666667,64.82421875,0)" xlink:href="#ba"/><use transform="matrix(0.006510416666666667,0,0,0.006510416666666667,68.05338541666667,0)" xlink:href="#ba"/><use transform="matrix(0.006510416666666667,0,0,0.006510416666666667,71.34765625000001,0)" xlink:href="#bj"/><use transform="matrix(0.006510416666666667,0,0,0.006510416666666667,78.84114583333334,0)" xlink:href="#bc"/></g></defs></g></svg>