<svg xmlns="http://www.w3.org/2000/svg" xmlns:xlink="http://www.w3.org/1999/xlink" xmlns:lucid="lucid" viewBox="0 0 1967.97 446.19"><g transform="translate(-179 -819)" lucid:page-tab-id="0_0"><path d="M180 826a6 6 0 0 1 6-6h327.94a6 6 0 0 1 6 6v432.2a6 6 0 0 1-6 6H186a6 6 0 0 1-6-6z" stroke="#000" stroke-width="2" fill="#fff"/><use xlink:href="#a" transform="matrix(1,0,0,1,192,832) translate(83.71907552083333 19.173177083333336)"/><use xlink:href="#b" transform="matrix(1,0,0,1,192,832) translate(151.1279296875 19.173177083333336)"/><use xlink:href="#c" transform="matrix(1,0,0,1,192,832) translate(196.34635416666669 19.173177083333336)"/><use xlink:href="#d" transform="matrix(1,0,0,1,192,832) translate(114.99658203125 43.39192708333334)"/><use xlink:href="#e" transform="matrix(1,0,0,1,192,832) translate(158.79215494791669 43.39192708333334)"/><path d="M1000 826a6 6 0 0 1 6-6h379.04a6 6 0 0 1 6 6v312.2a6 6 0 0 1-6 6H1006a6 6 0 0 1-6-6z" stroke="#000" stroke-width="2" fill="#fff"/><use xlink:href="#f" transform="matrix(1,0,0,1,1012,832) translate(172.48600260416666 19.173177083333336)"/><path d="M1185.1 869.88a8.75 8.75 0 0 1 9.88 0l105.1 72.06a4.12 4.12 0 0 1 0 6.8l-105.1 72.06a8.75 8.75 0 0 1-9.9 0L1080 948.73a4.12 4.12 0 0 1 0-6.8z" stroke="#000" stroke-width="3" fill="#fff"/><use xlink:href="#g" transform="matrix(1,0,0,1,1080.0495235363956,871.4833473937255) translate(61.09830729166666 56.84505208333333)"/><use xlink:href="#h" transform="matrix(1,0,0,1,1080.0495235363956,871.4833473937255) translate(82.49153645833333 56.84505208333333)"/><use xlink:href="#i" transform="matrix(1,0,0,1,1080.0495235363956,871.4833473937255) translate(116.6904296875 56.84505208333333)"/><use xlink:href="#j" transform="matrix(1,0,0,1,1080.0495235363956,871.4833473937255) translate(54.892252604166664 81.06380208333334)"/><use xlink:href="#k" transform="matrix(1,0,0,1,1080.0495235363956,871.4833473937255) translate(100.59505208333334 81.06380208333334)"/><use xlink:href="#l" transform="matrix(1,0,0,1,1080.0495235363956,871.4833473937255) translate(61.87027994791666 105.28255208333334)"/><use xlink:href="#m" transform="matrix(1,0,0,1,1080.0495235363956,871.4833473937255) translate(107.76481119791666 105.28255208333334)"/><path d="M1510 891.34a6 6 0 0 1 6-6h148a6 6 0 0 1 6 6v108a6 6 0 0 1-6 6h-148a6 6 0 0 1-6-6z" stroke="#008a0e" stroke-width="2" fill="#fff"/><use xlink:href="#n" transform="matrix(1,0,0,1,1514.9998641017937,890.3377200103602) translate(16.46126302083333 49.95442708333333)"/><use xlink:href="#o" transform="matrix(1,0,0,1,1514.9998641017937,890.3377200103602) translate(95.65657552083333 49.95442708333333)"/><use xlink:href="#p" transform="matrix(1,0,0,1,1514.9998641017937,890.3377200103602) translate(49.51985677083333 74.17317708333334)"/><path d="M1784.96 826a6 6 0 0 1 6-6h349a6 6 0 0 1 6 6v428a6 6 0 0 1-6 6h-349a6 6 0 0 1-6-6z" stroke="#000" stroke-width="2" fill="#fff"/><use xlink:href="#q" transform="matrix(1,0,0,1,1796.9584223955494,832) translate(91.38395182291666 215.06380208333334)"/><use xlink:href="#r" transform="matrix(1,0,0,1,1796.9584223955494,832) translate(167.41064453125 215.06380208333334)"/><path d="M1488.96 1216c11.04 0 20 8.94 20 20 0 11.03-8.96 20-20 20H1320c-11.05 0-20-8.97-20-20 0-11.06 8.95-20 20-20z" stroke="#000" stroke-width="2" fill="#fff"/><use xlink:href="#s" transform="matrix(1,0,0,1,1312,1227.9858677576026) translate(22.381673177083314 19.173177083333336)"/><use xlink:href="#t" transform="matrix(1,0,0,1,1312,1227.9858677576026) translate(111.65804036458333 19.173177083333336)"/><path d="M651.28 927.03a7.8 7.8 0 0 1 7.55-5.8h215.14a4.6 4.6 0 0 1 4.45 5.8l-9.76 36.62a7.8 7.8 0 0 1-7.55 5.8H645.98a4.6 4.6 0 0 1-4.46-5.8z" stroke="#000" stroke-width="2" fill="#fff"/><use xlink:href="#u" transform="matrix(1,0,0,1,651.9682789891833,933.2283450103602) translate(17.310872395833343 19.563802083333336)"/><use xlink:href="#v" transform="matrix(1,0,0,1,651.9682789891833,933.2283450103602) translate(73.86165364583334 19.563802083333336)"/><use xlink:href="#w" transform="matrix(1,0,0,1,651.9682789891833,933.2283450103602) translate(87.49479166666667 19.563802083333336)"/><path d="M649.36 1130.98a7.8 7.8 0 0 1 7.54-5.8H899a4.6 4.6 0 0 1 4.44 5.8l-32.86 123.22a7.8 7.8 0 0 1-7.55 5.8H620.95a4.6 4.6 0 0 1-4.45-5.8z" stroke="#000" stroke-width="2" fill="#fff"/><use xlink:href="#x" transform="matrix(1,0,0,1,626.9517711437181,1137.1813706629318) translate(61.46940104166666 50.45442708333333)"/><use xlink:href="#y" transform="matrix(1,0,0,1,626.9517711437181,1137.1813706629318) translate(101.40006510416666 50.45442708333333)"/><use xlink:href="#z" transform="matrix(1,0,0,1,626.9517711437181,1137.1813706629318) translate(133.03580729166666 50.45442708333333)"/><use xlink:href="#A" transform="matrix(1,0,0,1,626.9517711437181,1137.1813706629318) translate(30.1111653645833 74.67317708333334)"/><path d="M875.07 945.34h185.25" stroke="#3a414a" fill="none"/><path d="M875.1 945.8h-.65l.25-.94h.4z" stroke="#3a414a" stroke-width=".05" fill="#3a414a"/><path d="M1075.1 945.34l-14.28 4.63v-9.27z" stroke="#3a414a" fill="#3a414a"/><path d="M1322.32 946.3h-17.96v-1.94h17.96zm168.18 0h-125.05v-1.94h125.05z" stroke="#008a0e" stroke-width=".05" fill="#008a0e"/><path d="M1304.4 946.3h-1.13l.1-.96-.1-.98h1.12z" fill="#008a0e"/><path stroke="#008a0e" stroke-width=".05" fill="#008a0e"/><path d="M1505.76 945.34l-14.26 4.63v-9.27z" fill="#008a0e"/><path d="M1508.92 945.34l-18.4 5.98v-11.96zm-16.45 3.3l10.14-3.3-10.13-3.3z" stroke="#008a0e" stroke-width=".05" fill="#008a0e"/><use xlink:href="#B" transform="matrix(1,0,0,1,1322.3234875502303,931.7592694895268) translate(0.004999999999999005 21.74305555555555)"/><path d="M1672 945.34h93.46" stroke="#008a0e" stroke-width="2" fill="none"/><path d="M1672.03 946.3H1671v-1.94h1.03z" stroke="#008a0e" stroke-width=".05" fill="#008a0e"/><path d="M1780.72 945.34l-14.26 4.63v-9.27z" stroke="#008a0e" stroke-width="2" fill="#008a0e"/><path d="M1783.46 1236h-257.12" stroke="#3a414a" fill="none"/><path d="M1783.96 1236.46h-.5v-.95h.5z" stroke="#3a414a" stroke-width=".05" fill="#3a414a"/><path d="M1511.58 1236l14.26-4.65v9.27z" stroke="#3a414a" fill="#3a414a"/><path d="M1298.5 1236H892.86" stroke="#3a414a" fill="none"/><path d="M1299 1235.94l.02.52h-.53v-.95h.55z" stroke="#3a414a" stroke-width=".05" fill="#3a414a"/><path d="M878.1 1236l14.26-4.65v9.27z" stroke="#3a414a" fill="#3a414a"/><path d="M1190.03 1024.84v121.8a12 12 0 0 1-12 12H915.6" stroke="#e81313" stroke-width="2" fill="none"/><path d="M1190.03 1023.84l.98-.06v1.08h-1.94v-1.08z" stroke="#e81313" stroke-width=".05" fill="#e81313"/><path d="M900.34 1158.63l14.26-4.64v9.27z" stroke="#e81313" stroke-width="2" fill="#e81313"/><g><use xlink:href="#C" transform="matrix(1,0,0,1,1198.0330156909304,1051.3213017051653) translate(0.004999999999999005 21.74305555555555)"/></g><path d="M631.4 1192.6H437.37" stroke="#3a414a" fill="none"/><path d="M631.77 1193.07h-.4v-.95h.65z" stroke="#3a414a" stroke-width=".05" fill="#3a414a"/><path d="M422.62 1192.6l14.26-4.64v9.27z" stroke="#3a414a" fill="#3a414a"/><path d="M381.5 943.48H629.47" stroke="#3a414a" fill="none"/><path d="M381.5 943.95h-.53l.03-.46-.02-.5h.53z" stroke="#3a414a" stroke-width=".05" fill="#3a414a"/><path d="M644.24 943.48l-14.27 4.63v-9.26z" stroke="#3a414a" fill="#3a414a"/><path d="M260 1108a8 8 0 0 1 8-8h144a8 8 0 0 1 8 8v104a8 8 0 0 1-8 8H268a8 8 0 0 1-8-8z" stroke="#000" stroke-width="2" fill="#fff"/><g><use xlink:href="#D" transform="matrix(1,0,0,1,272,1112) translate(35.203776041666664 26.00130208333333)"/><use xlink:href="#E" transform="matrix(1,0,0,1,272,1112) translate(33.614420572916664 55.063802083333336)"/><use xlink:href="#F" transform="matrix(1,0,0,1,272,1112) translate(9.864908854166664 84.12630208333334)"/><use xlink:href="#G" transform="matrix(1,0,0,1,272,1112) translate(79.78645833333334 84.12630208333334)"/></g><path d="M380 943.48c0 22.1-17.9 40-40 40s-40-17.9-40-40 17.9-40 40-40 40 17.9 40 40z" stroke="#282c33" stroke-width="2" fill="#008a0e"/><g><use xlink:href="#H" transform="matrix(1,0,0,1,305,908.4784559312315) translate(26.70464409722222 43.083767361111114)"/></g><defs><path d="M1288 0h-193L362-1122V0H169v-1456h193l735 1127v-1127h191V0" id="I"/><path d="M730-137c145 0 253-29 323-105v-327H716v-156h528v534C1148-51 964 20 729 20c-394 0-598-279-607-678v-127c-5-410 194-690 585-691 310-1 499 171 537 447h-192c-36-193-151-289-344-289-285 0-393 220-393 528v119c-5 296 140 534 415 534" id="J"/><path d="M375 0H183v-1456h192V0" id="K"/><path d="M644-898l349-558h226L759-734 1230 0h-228L644-568 284 0H57l472-734-461-722h225" id="L"/><g id="a"><use transform="matrix(0.010091145833333334,0,0,0.010091145833333334,0,0)" xlink:href="#I"/><use transform="matrix(0.010091145833333334,0,0,0.010091145833333334,14.733072916666668,0)" xlink:href="#J"/><use transform="matrix(0.010091145833333334,0,0,0.010091145833333334,28.810221354166668,0)" xlink:href="#K"/><use transform="matrix(0.010091145833333334,0,0,0.010091145833333334,34.430989583333336,0)" xlink:href="#I"/><use transform="matrix(0.010091145833333334,0,0,0.010091145833333334,49.33561197916667,0)" xlink:href="#L"/></g><path d="M1216-1011c-1 297-202 441-512 441H361V0H169v-1456h537c297-6 510 164 510 445zm-192 2c1-178-126-288-307-289H361v571h345c196 1 318-92 318-282" id="M"/><path d="M341 0H156v-1536h185V0" id="N"/><path d="M491 20c-241-1-355-148-355-398v-704h185v699c0 164 67 246 200 246 141 0 235-53 282-158v-787h185V0H812l-4-107C736-22 630 20 491 20" id="O"/><path d="M538-131c121 0 232-49 232-156 0-50-20-88-56-117-73-60-334-92-420-143-92-55-162-110-162-238 0-190 192-317 400-317 223 0 414 129 413 338H759c0-108-110-186-227-186-119 0-215 53-215 159 0 45 18 78 53 101 76 52 331 90 416 139 98 57 169 115 169 251C955-92 760 20 538 20c-176 0-314-68-386-174-38-55-57-115-57-179h185c6 129 116 202 258 202" id="P"/><g id="b"><use transform="matrix(0.010091145833333334,0,0,0.010091145833333334,0,0)" xlink:href="#M"/><use transform="matrix(0.010091145833333334,0,0,0.010091145833333334,13.037760416666668,0)" xlink:href="#N"/><use transform="matrix(0.010091145833333334,0,0,0.010091145833333334,18.053059895833336,0)" xlink:href="#O"/><use transform="matrix(0.010091145833333334,0,0,0.010091145833333334,29.44596354166667,0)" xlink:href="#P"/></g><path d="M1161-1018c0 201-122 330-278 388l342 618V0h-206L703-589H361V0H168v-1456h482c310-2 511 139 511 438zm-193 0c0-187-120-280-313-280H361v552h295c179 3 313-101 312-272" id="Q"/><path d="M832-402c-1-179-119-264-303-265H390v-151h139c164 0 281-91 281-250 0-171-85-256-255-256-154 0-265 99-263 250H107c-4-235 205-402 448-402 266 0 444 150 440 412-2 148-109 272-229 317 147 45 249 158 251 341 3 262-197 426-461 426C299 20 91-135 94-384h186c-2 156 116 253 276 253 176 0 277-96 276-271" id="R"/><path d="M884-462c0-185-111-323-291-323-113 0-183 39-239 93l-148-38 74-726h746v171H437l-44 397c71-42 152-63 243-63 273-2 433 205 433 487 0 293-170 484-461 484-260 0-436-159-454-403h175c20 156 111 252 279 252 182 0 276-140 276-331" id="S"/><g id="c"><use transform="matrix(0.010091145833333334,0,0,0.010091145833333334,0,0)" xlink:href="#Q"/><use transform="matrix(0.010091145833333334,0,0,0.010091145833333334,12.724934895833334,0)" xlink:href="#R"/><use transform="matrix(0.010091145833333334,0,0,0.010091145833333334,24.329752604166668,0)" xlink:href="#S"/></g><path d="M1098-255l208-827h185L1176 0h-150L763-820 507 0H357L43-1082h184l213 810 252-810h149" id="T"/><path d="M341 0H156v-1082h185V0zm-91-1264c-68 0-108-42-109-105 0-62 41-107 109-107s110 44 110 107-42 105-110 105" id="U"/><path d="M456 20C285 20 205-92 206-268v-671H9v-143h197v-262h185v262h202v143H391v671c-9 125 92 149 207 118V0c-49 13-96 20-142 20" id="V"/><path d="M589-945c-131 0-219 81-264 174V0H140v-1536h185v585c82-101 189-151 320-151 229 0 346 129 346 387V0H806v-716c-2-153-65-229-217-229" id="W"/><g id="d"><use transform="matrix(0.010091145833333334,0,0,0.010091145833333334,0,0)" xlink:href="#T"/><use transform="matrix(0.010091145833333334,0,0,0.010091145833333334,15.530273437500002,0)" xlink:href="#U"/><use transform="matrix(0.010091145833333334,0,0,0.010091145833333334,20.545572916666668,0)" xlink:href="#V"/><use transform="matrix(0.010091145833333334,0,0,0.010091145833333334,27.296549479166668,0)" xlink:href="#W"/></g><path d="M512-137c164 0 267-115 267-285v-1034h193v1031c4 276-186 445-460 445C234 20 52-130 53-402h192c0 167 97 265 267 265" id="X"/><path d="M483-459l28 192 41-173 288-1016h162l281 1016 40 176 31-196 226-996h193L1420 0h-175L945-1061l-23-111-23 111L588 0H413L61-1456h192" id="Y"/><path d="M1175-1298H707V0H516v-1298H49v-158h1126v158" id="Z"/><g id="e"><use transform="matrix(0.010091145833333334,0,0,0.010091145833333334,0,0)" xlink:href="#X"/><use transform="matrix(0.010091145833333334,0,0,0.010091145833333334,11.402994791666668,0)" xlink:href="#Y"/><use transform="matrix(0.010091145833333334,0,0,0.010091145833333334,29.8798828125,0)" xlink:href="#Z"/></g><path d="M972-643H361V0H169v-1456h902v158H361v498h611v157" id="aa"/><g id="f"><use transform="matrix(0.010091145833333334,0,0,0.010091145833333334,0,0)" xlink:href="#aa"/><use transform="matrix(0.010091145833333334,0,0,0.010091145833333334,11.423177083333334,0)" xlink:href="#S"/></g><g id="g"><use transform="matrix(0.010091145833333334,0,0,0.010091145833333334,0,0)" xlink:href="#K"/><use transform="matrix(0.010091145833333334,0,0,0.010091145833333334,5.620768229166667,0)" xlink:href="#P"/></g><path d="M599-131c141 0 220-65 285-146l113 88C906-50 770 20 589 20 281 21 93-214 93-545c0-223 93-397 233-485 74-48 154-72 240-72 300 2 449 218 445 537v77H278c0 197 129 357 321 357zm227-509c-3-180-88-310-260-310-170 0-264 140-282 310h542" id="ab"/><g id="h"><use transform="matrix(0.010091145833333334,0,0,0.010091145833333334,0,0)" xlink:href="#V"/><use transform="matrix(0.010091145833333334,0,0,0.010091145833333334,6.7509765625,0)" xlink:href="#W"/><use transform="matrix(0.010091145833333334,0,0,0.010091145833333334,18.1337890625,0)" xlink:href="#ab"/></g><g id="i"><use transform="matrix(0.010091145833333334,0,0,0.010091145833333334,0,0)" xlink:href="#X"/><use transform="matrix(0.010091145833333334,0,0,0.010091145833333334,11.402994791666668,0)" xlink:href="#Y"/><use transform="matrix(0.010091145833333334,0,0,0.010091145833333334,29.8798828125,0)" xlink:href="#Z"/></g><path d="M589-945c-131 0-219 81-264 174V0H140v-1082h175l6 136c83-104 191-156 324-156 229 0 346 129 346 387V0H806v-716c-2-153-65-229-217-229" id="ac"/><path d="M561-1102c238-4 403 126 403 351v498c0 99 13 178 38 237V0H808c-11-21-19-59-26-114C696-25 593 20 474 20c-199 0-368-130-365-320 4-251 214-359 490-356h180v-85c-1-135-86-212-229-212-115 0-232 67-233 171H131c20-205 206-316 430-320zM294-326c0 117 90 185 207 185 122 0 239-75 278-162v-222H634c-227 0-340 66-340 199" id="ad"/><path d="M663-916c-163-27-288 18-338 148V0H140v-1082h180l3 125c61-97 147-145 258-145 36 0 63 5 82 14v172" id="ae"/><g id="j"><use transform="matrix(0.010091145833333334,0,0,0.010091145833333334,0,0)" xlink:href="#ac"/><use transform="matrix(0.010091145833333334,0,0,0.010091145833333334,11.402994791666668,0)" xlink:href="#ab"/><use transform="matrix(0.010091145833333334,0,0,0.010091145833333334,22.351888020833336,0)" xlink:href="#ad"/><use transform="matrix(0.010091145833333334,0,0,0.010091145833333334,33.59342447916667,0)" xlink:href="#ae"/></g><path d="M503-687l240-395h216L605-547 970 0H756L506-405 256 0H41l365-547-354-535h214" id="af"/><path d="M632-1102c291 0 422 251 422 573 0 297-141 548-419 549-131 0-235-42-310-125v521H140v-1498h169l9 120c75-93 180-140 314-140zm-53 971c207 0 290-180 290-419 0-218-92-395-292-395-112 0-196 50-252 149v517c55 99 140 148 254 148" id="ag"/><path d="M494-271l252-811h198L509 167C425 381 299 474 84 421V271c167 16 242-37 283-173l41-110L22-1082h202" id="ah"/><path d="M486-1476c244 0 401 141 400 380 0 117-54 232-162 345L615-643c-49 54-73 132-73 233H357c6-184 32-232 129-341 78-87 215-190 215-339 0-139-76-224-215-224-128 0-227 74-226 199H75c0-220 182-361 411-361zM458 11c-68 0-108-41-109-104 0-63 41-106 109-106s110 43 110 106S526 11 458 11" id="ai"/><g id="k"><use transform="matrix(0.010091145833333334,0,0,0.010091145833333334,0,0)" xlink:href="#ab"/><use transform="matrix(0.010091145833333334,0,0,0.010091145833333334,10.948893229166668,0)" xlink:href="#af"/><use transform="matrix(0.010091145833333334,0,0,0.010091145833333334,21.19140625,0)" xlink:href="#ag"/><use transform="matrix(0.010091145833333334,0,0,0.010091145833333334,32.7861328125,0)" xlink:href="#U"/><use transform="matrix(0.010091145833333334,0,0,0.010091145833333334,37.801432291666664,0)" xlink:href="#ae"/><use transform="matrix(0.010091145833333334,0,0,0.010091145833333334,44.97623697916666,0)" xlink:href="#ah"/><use transform="matrix(0.010091145833333334,0,0,0.010091145833333334,54.75455729166666,0)" xlink:href="#ai"/></g><path d="M319-664C304-226 428 158 661 357l-38 113c-89-49-172-133-254-248C142-97 71-578 194-1025c67-244 240-513 429-618l38 122c-201 153-330 502-342 857" id="aj"/><path d="M264-644l626 253v196L72-574v-146l818-378v196" id="ak"/><path d="M574-1476c351 0 454 237 460 615v240c0 217-37 378-111 483S733 20 576 20c-346 0-454-246-461-616v-247c0-214 37-373 111-477s190-156 348-156zm275 905c0-337 59-752-275-753-95 0-160 38-207 107-80 118-66 409-67 625 0 157 22 273 68 348s115 113 208 113c91 0 160-35 204-106s69-182 69-334" id="al"/><g id="l"><use transform="matrix(0.010091145833333334,0,0,0.010091145833333334,0,0)" xlink:href="#aj"/><use transform="matrix(0.010091145833333334,0,0,0.010091145833333334,7.063802083333334,0)" xlink:href="#ak"/><use transform="matrix(0.010091145833333334,0,0,0.010091145833333334,17.568684895833336,0)" xlink:href="#R"/><use transform="matrix(0.010091145833333334,0,0,0.010091145833333334,29.17350260416667,0)" xlink:href="#al"/></g><path d="M520 20C244 20 95-247 95-550c0-298 151-550 427-552 127 0 227 43 301 130v-564h185V0H838l-9-116C755-25 652 20 520 20zm48-965c-210 0-288 177-288 416 0 218 87 392 286 392 117 0 203-53 257-158v-497c-55-102-140-153-255-153" id="am"/><path d="M38 357C331 141 457-487 337-984c-53-219-157-429-299-546l39-113c190 106 362 378 431 621 75 268 76 597 0 868C440 88 266 365 77 470" id="an"/><g id="m"><use transform="matrix(0.010091145833333334,0,0,0.010091145833333334,0,0)" xlink:href="#am"/><use transform="matrix(0.010091145833333334,0,0,0.010091145833333334,11.6552734375,0)" xlink:href="#ad"/><use transform="matrix(0.010091145833333334,0,0,0.010091145833333334,22.745442708333336,0)" xlink:href="#ah"/><use transform="matrix(0.010091145833333334,0,0,0.010091145833333334,32.523763020833336,0)" xlink:href="#P"/><use transform="matrix(0.010091145833333334,0,0,0.010091145833333334,43.180013020833336,0)" xlink:href="#an"/></g><path d="M497-251l268-831h189L566 0H425L33-1082h189" id="ao"/><g id="n"><use transform="matrix(0.010091145833333334,0,0,0.010091145833333334,0,0)" xlink:href="#Q"/><use transform="matrix(0.010091145833333334,0,0,0.010091145833333334,12.724934895833334,0)" xlink:href="#ab"/><use transform="matrix(0.010091145833333334,0,0,0.010091145833333334,23.673828125,0)" xlink:href="#V"/><use transform="matrix(0.010091145833333334,0,0,0.010091145833333334,30.4248046875,0)" xlink:href="#ae"/><use transform="matrix(0.010091145833333334,0,0,0.010091145833333334,37.41796875,0)" xlink:href="#U"/><use transform="matrix(0.010091145833333334,0,0,0.010091145833333334,42.43326822916666,0)" xlink:href="#ab"/><use transform="matrix(0.010091145833333334,0,0,0.010091145833333334,53.2509765625,0)" xlink:href="#ao"/><use transform="matrix(0.010091145833333334,0,0,0.010091145833333334,63.13020833333333,0)" xlink:href="#ab"/></g><g id="o"><use transform="matrix(0.010091145833333334,0,0,0.010091145833333334,0,0)" xlink:href="#ac"/><use transform="matrix(0.010091145833333334,0,0,0.010091145833333334,11.402994791666668,0)" xlink:href="#ab"/><use transform="matrix(0.010091145833333334,0,0,0.010091145833333334,22.351888020833336,0)" xlink:href="#T"/></g><path d="M584 20C278 26 81-227 91-551c10-320 175-545 491-551 308-5 503 247 494 573-9 322-175 543-492 549zm-2-970c-208 0-305 185-305 421 0 216 106 398 307 398 211 0 307-186 307-420 0-214-109-399-309-399" id="ap"/><path d="M442-501L326-380V0H141v-1536h185v929c135-169 291-317 436-475h225L566-630 1036 0H819" id="aq"/><g id="p"><use transform="matrix(0.010091145833333334,0,0,0.010091145833333334,0,0)" xlink:href="#V"/><use transform="matrix(0.010091145833333334,0,0,0.010091145833333334,6.549153645833332,0)" xlink:href="#ap"/><use transform="matrix(0.010091145833333334,0,0,0.010091145833333334,18.335611979166668,0)" xlink:href="#aq"/><use transform="matrix(0.010091145833333334,0,0,0.010091145833333334,28.6083984375,0)" xlink:href="#ab"/><use transform="matrix(0.010091145833333334,0,0,0.010091145833333334,39.55729166666667,0)" xlink:href="#ac"/></g><path d="M362-157h690V0H169v-1456h193v1299" id="ar"/><path d="M277-555c0 244 77 420 297 424 127 2 249-93 255-210h175C980-127 805 20 574 20 258 20 81-222 92-562c11-319 164-533 481-540 237-5 426 165 431 392H829c-7-133-115-242-256-240-209 4-296 166-296 395" id="as"/><g id="q"><use transform="matrix(0.010091145833333334,0,0,0.010091145833333334,0,0)" xlink:href="#ar"/><use transform="matrix(0.010091145833333334,0,0,0.010091145833333334,11.120442708333334,0)" xlink:href="#U"/><use transform="matrix(0.010091145833333334,0,0,0.010091145833333334,16.1357421875,0)" xlink:href="#as"/><use transform="matrix(0.010091145833333334,0,0,0.010091145833333334,26.953450520833336,0)" xlink:href="#ab"/><use transform="matrix(0.010091145833333334,0,0,0.010091145833333334,37.90234375,0)" xlink:href="#ac"/><use transform="matrix(0.010091145833333334,0,0,0.010091145833333334,49.30533854166667,0)" xlink:href="#P"/><use transform="matrix(0.010091145833333334,0,0,0.010091145833333334,59.96158854166667,0)" xlink:href="#ab"/></g><path d="M1160-420C1159-145 963 0 674 0H169v-1456h476c294-1 476 112 476 388 0 153-99 253-216 302 146 38 255 167 255 346zM678-157c171 2 289-95 289-261 0-175-95-263-286-263H361v524h317zm250-912c-2-172-104-229-283-229H361v463h290c157 3 278-84 277-234" id="at"/><g id="r"><use transform="matrix(0.010091145833333334,0,0,0.010091145833333334,0,0)" xlink:href="#at"/><use transform="matrix(0.010091145833333334,0,0,0.010091145833333334,12.8662109375,0)" xlink:href="#ad"/><use transform="matrix(0.010091145833333334,0,0,0.010091145833333334,24.107747395833336,0)" xlink:href="#as"/><use transform="matrix(0.010091145833333334,0,0,0.010091145833333334,34.92545572916667,0)" xlink:href="#aq"/><use transform="matrix(0.010091145833333334,0,0,0.010091145833333334,45.1982421875,0)" xlink:href="#ab"/><use transform="matrix(0.010091145833333334,0,0,0.010091145833333334,56.14713541666667,0)" xlink:href="#ac"/><use transform="matrix(0.010091145833333334,0,0,0.010091145833333334,67.55013020833334,0)" xlink:href="#am"/></g><g id="s"><use transform="matrix(0.010091145833333334,0,0,0.010091145833333334,0,0)" xlink:href="#Q"/><use transform="matrix(0.010091145833333334,0,0,0.010091145833333334,12.724934895833334,0)" xlink:href="#ab"/><use transform="matrix(0.010091145833333334,0,0,0.010091145833333334,23.673828125,0)" xlink:href="#ac"/><use transform="matrix(0.010091145833333334,0,0,0.010091145833333334,35.07682291666667,0)" xlink:href="#ab"/><use transform="matrix(0.010091145833333334,0,0,0.010091145833333334,46.02571614583334,0)" xlink:href="#T"/><use transform="matrix(0.010091145833333334,0,0,0.010091145833333334,61.55598958333334,0)" xlink:href="#ab"/><use transform="matrix(0.010091145833333334,0,0,0.010091145833333334,72.50488281250001,0)" xlink:href="#am"/></g><g id="t"><use transform="matrix(0.010091145833333334,0,0,0.010091145833333334,0,0)" xlink:href="#V"/><use transform="matrix(0.010091145833333334,0,0,0.010091145833333334,6.549153645833332,0)" xlink:href="#ap"/><use transform="matrix(0.010091145833333334,0,0,0.010091145833333334,18.335611979166668,0)" xlink:href="#aq"/><use transform="matrix(0.010091145833333334,0,0,0.010091145833333334,28.6083984375,0)" xlink:href="#ab"/><use transform="matrix(0.010091145833333334,0,0,0.010091145833333334,39.55729166666667,0)" xlink:href="#ac"/></g><path d="M703-1476c426 0 599 333 586 795-11 408-187 701-584 701-422 0-587-333-587-793 0-282 106-507 280-617 89-56 190-86 305-86zm2 1333c312 0 393-279 393-632 0-308-116-536-395-536-269 0-394 232-394 523v107c-4 298 123 538 396 538" id="au"/><path d="M631-137c179 0 314-70 314-231 0-71-25-127-75-166s-141-77-272-115c-165-47-285-106-360-175s-112-154-112-255c0-245 231-397 495-397 206 0 369 89 449 218 43 68 65 142 65 223H942c0-184-129-283-321-283-172 0-299 76-301 236 0 59 26 109 76 150s135 78 256 113c205 59 345 116 436 256 35 53 50 119 50 193-2 256-231 398-507 390C333 12 90-129 80-422h193c0 187 160 285 358 285" id="av"/><g id="u"><use transform="matrix(0.010091145833333334,0,0,0.010091145833333334,0,0)" xlink:href="#M"/><use transform="matrix(0.010091145833333334,0,0,0.010091145833333334,13.037760416666668,0)" xlink:href="#au"/><use transform="matrix(0.010091145833333334,0,0,0.010091145833333334,27.24609375,0)" xlink:href="#av"/><use transform="matrix(0.010091145833333334,0,0,0.010091145833333334,39.5068359375,0)" xlink:href="#Z"/></g><path d="M177 125H18l608-1581h158" id="aw"/><use transform="matrix(0.010091145833333334,0,0,0.010091145833333334,0,0)" xlink:href="#aw" id="v"/><path d="M521 20C240 20 96-239 96-550c0-303 147-552 427-552 132 0 235 47 309 140l9-120h169V-26c4 277-183 454-459 452-165-1-334-81-400-187l96-111c79 98 176 147 291 147 180 1 288-109 286-290v-93C750-23 649 20 521 20zm48-965c-209 0-287 178-287 416 0 217 86 392 285 392 117 0 202-53 257-159v-494c-57-103-142-155-255-155" id="ax"/><path d="M525-543H37v-151h488v151" id="ay"/><g id="w"><use transform="matrix(0.010091145833333334,0,0,0.010091145833333334,0,0)" xlink:href="#ac"/><use transform="matrix(0.010091145833333334,0,0,0.010091145833333334,11.402994791666668,0)" xlink:href="#ax"/><use transform="matrix(0.010091145833333334,0,0,0.010091145833333334,22.997721354166668,0)" xlink:href="#U"/><use transform="matrix(0.010091145833333334,0,0,0.010091145833333334,28.013020833333336,0)" xlink:href="#ac"/><use transform="matrix(0.010091145833333334,0,0,0.010091145833333334,39.416015625,0)" xlink:href="#af"/><use transform="matrix(0.010091145833333334,0,0,0.010091145833333334,49.658528645833336,0)" xlink:href="#ay"/><use transform="matrix(0.010091145833333334,0,0,0.010091145833333334,55.36002604166667,0)" xlink:href="#O"/><use transform="matrix(0.010091145833333334,0,0,0.010091145833333334,66.7529296875,0)" xlink:href="#P"/><use transform="matrix(0.010091145833333334,0,0,0.010091145833333334,77.4091796875,0)" xlink:href="#ad"/><use transform="matrix(0.010091145833333334,0,0,0.010091145833333334,88.65071614583331,0)" xlink:href="#ax"/><use transform="matrix(0.010091145833333334,0,0,0.010091145833333334,100.24544270833331,0)" xlink:href="#ab"/></g><path d="M569-1476c255 0 440 146 439 390 0 143-91 314-274 512L344-151h731V0H121v-133l504-560c75-85 125-155 155-207 105-184 6-424-211-424-183 0-293 113-291 297H93c-3-270 199-449 476-449" id="az"/><path d="M902-489h202v151H902V0H716v-338H53v-109l652-1009h197v967zm-639 0h453v-714l-22 40" id="aA"/><g id="x"><use transform="matrix(0.010091145833333334,0,0,0.010091145833333334,0,0)" xlink:href="#az"/><use transform="matrix(0.010091145833333334,0,0,0.010091145833333334,11.604817708333334,0)" xlink:href="#al"/><use transform="matrix(0.010091145833333334,0,0,0.010091145833333334,23.209635416666668,0)" xlink:href="#aA"/></g><g id="y"><use transform="matrix(0.010091145833333334,0,0,0.010091145833333334,0,0)" xlink:href="#I"/><use transform="matrix(0.010091145833333334,0,0,0.010091145833333334,14.733072916666668,0)" xlink:href="#ap"/></g><path d="M688-137c238 0 323-102 359-325h193c-32 297-228 482-552 482-361 0-569-299-569-680 0-197 8-360 73-497 88-186 257-317 513-319 316-2 509 195 535 488h-193c-31-212-118-330-342-330-272 0-397 224-393 523v141c-3 282 115 517 376 517" id="aB"/><g id="z"><use transform="matrix(0.010091145833333334,0,0,0.010091145833333334,0,0)" xlink:href="#aB"/><use transform="matrix(0.010091145833333334,0,0,0.010091145833333334,13.451497395833334,0)" xlink:href="#ap"/><use transform="matrix(0.010091145833333334,0,0,0.010091145833333334,25.237955729166668,0)" xlink:href="#ac"/><use transform="matrix(0.010091145833333334,0,0,0.010091145833333334,36.640950520833336,0)" xlink:href="#V"/><use transform="matrix(0.010091145833333334,0,0,0.010091145833333334,43.391927083333336,0)" xlink:href="#ab"/><use transform="matrix(0.010091145833333334,0,0,0.010091145833333334,54.3408203125,0)" xlink:href="#ac"/><use transform="matrix(0.010091145833333334,0,0,0.010091145833333334,65.74381510416667,0)" xlink:href="#V"/></g><g id="A"><use transform="matrix(0.010091145833333334,0,0,0.010091145833333334,0,0)" xlink:href="#aj"/><use transform="matrix(0.010091145833333334,0,0,0.010091145833333334,7.063802083333334,0)" xlink:href="#L"/><use transform="matrix(0.010091145833333334,0,0,0.010091145833333334,19.556640625,0)" xlink:href="#ay"/><use transform="matrix(0.010091145833333334,0,0,0.010091145833333334,25.258138020833336,0)" xlink:href="#aa"/><use transform="matrix(0.010091145833333334,0,0,0.010091145833333334,36.68131510416667,0)" xlink:href="#S"/><use transform="matrix(0.010091145833333334,0,0,0.010091145833333334,48.2861328125,0)" xlink:href="#ay"/><use transform="matrix(0.010091145833333334,0,0,0.010091145833333334,53.98763020833334,0)" xlink:href="#Q"/><use transform="matrix(0.010091145833333334,0,0,0.010091145833333334,66.71256510416667,0)" xlink:href="#ab"/><use transform="matrix(0.010091145833333334,0,0,0.010091145833333334,77.66145833333334,0)" xlink:href="#ac"/><use transform="matrix(0.010091145833333334,0,0,0.010091145833333334,89.064453125,0)" xlink:href="#ab"/><use transform="matrix(0.010091145833333334,0,0,0.010091145833333334,100.01334635416669,0)" xlink:href="#T"/><use transform="matrix(0.010091145833333334,0,0,0.010091145833333334,115.54361979166669,0)" xlink:href="#ab"/><use transform="matrix(0.010091145833333334,0,0,0.010091145833333334,126.49251302083336,0)" xlink:href="#am"/><use transform="matrix(0.010091145833333334,0,0,0.010091145833333334,138.14778645833337,0)" xlink:href="#ay"/><use transform="matrix(0.010091145833333334,0,0,0.010091145833333334,143.8492838541667,0)" xlink:href="#Z"/><use transform="matrix(0.010091145833333334,0,0,0.010091145833333334,155.18164062500006,0)" xlink:href="#ap"/><use transform="matrix(0.010091145833333334,0,0,0.010091145833333334,166.96809895833343,0)" xlink:href="#aq"/><use transform="matrix(0.010091145833333334,0,0,0.010091145833333334,177.24088541666674,0)" xlink:href="#ab"/><use transform="matrix(0.010091145833333334,0,0,0.010091145833333334,188.18977864583343,0)" xlink:href="#ac"/><use transform="matrix(0.010091145833333334,0,0,0.010091145833333334,199.59277343750006,0)" xlink:href="#an"/></g><path fill="#3a414a" d="M600 0v-610L52-1490h220l295 481c50 82 90 150 130 243 40-96 80-164 128-243l294-481h219L790-610V0H600" id="aC"/><path fill="#3a414a" d="M180 0v-1490h908v168H370v486h669v168H370v500h727V0H180" id="aD"/><path fill="#3a414a" d="M657 26c-323 0-524-166-541-416h195c15 169 171 246 346 246 202 0 356-106 356-265 5-203-294-238-475-293-239-73-380-191-380-389 0-252 224-419 512-419 294 0 499 171 508 396H992c-17-145-151-228-328-228-193 0-321 102-321 242 0 156 175 211 284 241l149 41c160 44 422 134 422 412 0 244-197 432-541 432" id="aE"/><g id="B"><use transform="matrix(0.010959201388888886,0,0,0.010959201388888886,0,0)" xlink:href="#aC"/><use transform="matrix(0.010959201388888886,0,0,0.010959201388888886,15.233289930555552,0)" xlink:href="#aD"/><use transform="matrix(0.010959201388888886,0,0,0.010959201388888886,28.72406684027777,0)" xlink:href="#aE"/></g><path fill="#3a414a" d="M180 0v-1490h224l606 953c40 63 108 177 176 312-27-437-7-821-13-1265h190V0h-226C860-448 622-778 356-1262c27 476 11 792 15 1262H180" id="aF"/><path fill="#3a414a" d="M784 20c-382 0-662-292-662-764 0-473 280-766 662-766s660 293 660 766c0 472-278 764-660 764zm0-176c266 0 475-207 475-588 0-383-209-590-475-590-268 0-477 208-477 590 0 380 209 588 477 588" id="aG"/><g id="C"><use transform="matrix(0.010959201388888886,0,0,0.010959201388888886,0,0)" xlink:href="#aF"/><use transform="matrix(0.010959201388888886,0,0,0.010959201388888886,16.91004774305555,0)" xlink:href="#aG"/></g><path d="M665-137c214 0 337-121 336-332v-987h193v990c-3 300-218 486-529 486-309 0-526-181-525-484v-992h190v986c-1 210 123 333 335 333" id="aH"/><g id="D"><use transform="matrix(0.010091145833333334,0,0,0.010091145833333334,0,0)" xlink:href="#aH"/><use transform="matrix(0.010091145833333334,0,0,0.010091145833333334,13.401041666666668,0)" xlink:href="#ag"/><use transform="matrix(0.010091145833333334,0,0,0.010091145833333334,24.995768229166668,0)" xlink:href="#am"/><use transform="matrix(0.010091145833333334,0,0,0.010091145833333334,36.65104166666667,0)" xlink:href="#ad"/><use transform="matrix(0.010091145833333334,0,0,0.010091145833333334,47.892578125,0)" xlink:href="#V"/><use transform="matrix(0.010091145833333334,0,0,0.010091145833333334,54.6435546875,0)" xlink:href="#ab"/></g><g id="E"><use transform="matrix(0.010091145833333334,0,0,0.010091145833333334,0,0)" xlink:href="#U"/><use transform="matrix(0.010091145833333334,0,0,0.010091145833333334,5.015299479166667,0)" xlink:href="#ac"/><use transform="matrix(0.010091145833333334,0,0,0.010091145833333334,16.418294270833336,0)" xlink:href="#V"/><use transform="matrix(0.010091145833333334,0,0,0.010091145833333334,23.169270833333336,0)" xlink:href="#ab"/><use transform="matrix(0.010091145833333334,0,0,0.010091145833333334,34.1181640625,0)" xlink:href="#ae"/><use transform="matrix(0.010091145833333334,0,0,0.010091145833333334,41.111328125,0)" xlink:href="#ac"/><use transform="matrix(0.010091145833333334,0,0,0.010091145833333334,52.51432291666667,0)" xlink:href="#ad"/><use transform="matrix(0.010091145833333334,0,0,0.010091145833333334,63.75585937500001,0)" xlink:href="#N"/></g><g id="F"><use transform="matrix(0.010091145833333334,0,0,0.010091145833333334,0,0)" xlink:href="#N"/><use transform="matrix(0.010091145833333334,0,0,0.010091145833333334,5.015299479166667,0)" xlink:href="#U"/><use transform="matrix(0.010091145833333334,0,0,0.010091145833333334,10.030598958333334,0)" xlink:href="#as"/><use transform="matrix(0.010091145833333334,0,0,0.010091145833333334,20.848307291666668,0)" xlink:href="#ab"/><use transform="matrix(0.010091145833333334,0,0,0.010091145833333334,31.797200520833336,0)" xlink:href="#ac"/><use transform="matrix(0.010091145833333334,0,0,0.010091145833333334,43.2001953125,0)" xlink:href="#P"/><use transform="matrix(0.010091145833333334,0,0,0.010091145833333334,53.8564453125,0)" xlink:href="#ab"/></g><g id="G"><use transform="matrix(0.010091145833333334,0,0,0.010091145833333334,0,0)" xlink:href="#P"/><use transform="matrix(0.010091145833333334,0,0,0.010091145833333334,10.65625,0)" xlink:href="#V"/><use transform="matrix(0.010091145833333334,0,0,0.010091145833333334,17.4072265625,0)" xlink:href="#ad"/><use transform="matrix(0.010091145833333334,0,0,0.010091145833333334,28.648763020833336,0)" xlink:href="#V"/><use transform="matrix(0.010091145833333334,0,0,0.010091145833333334,35.399739583333336,0)" xlink:href="#ab"/></g><path d="M49 0l509-1490h400L1480 0h-339l-115-346H497L386 0H49zm524-585h374c-75-213-124-402-192-666-66 268-110 453-182 666" id="aI"/><use transform="matrix(0.010850694444444444,0,0,0.010850694444444444,0,0)" xlink:href="#aI" id="H"/></defs></g></svg>