<svg xmlns="http://www.w3.org/2000/svg" xmlns:xlink="http://www.w3.org/1999/xlink" xmlns:lucid="lucid" viewBox="0 0 1001.5 731.5"><g transform="translate(-425.95833329166675 -370.25000000000045)" lucid:page-tab-id="0_0"><path d="M568.3 411.25c0 22.1-17.92 40-40 40-22.1 0-40-17.9-40-40s17.9-40 40-40c22.08 0 40 17.9 40 40z" stroke="#282c33" stroke-width="2" fill="#008a0e"/><use xlink:href="#a" transform="matrix(1,0,0,1,493.29166662500006,376.25000000000045) translate(26.70464409722222 43.40277777777778)"/><path d="M528.3 452.75v49.64" stroke="#3a414a" fill="none"/><path d="M528.28 452.25l.5-.02v.53h-.96v-.54z" stroke="#3a414a" stroke-width=".05" fill="#3a414a"/><path d="M528.3 517.15l-4.64-14.26h9.27z" stroke="#3a414a" fill="#3a414a"/><path d="M523.34 521.3a8.77 8.77 0 0 1 9.9 0l92.43 63.23a4.1 4.1 0 0 1 0 6.77l-92.43 63.23a8.77 8.77 0 0 1-9.9 0L430.9 591.3a4.1 4.1 0 0 1 0-6.77z" stroke="#000" stroke-width="2" fill="#fff"/><use xlink:href="#b" transform="matrix(1,0,0,1,430.95833329166675,522.916666666667) translate(66.56055555555555 38.15277777777778)"/><use xlink:href="#c" transform="matrix(1,0,0,1,430.95833329166675,522.916666666667) translate(81.88694444444445 38.15277777777778)"/><use xlink:href="#d" transform="matrix(1,0,0,1,430.95833329166675,522.916666666667) translate(47.26194444444445 55.361111111111114)"/><use xlink:href="#e" transform="matrix(1,0,0,1,430.95833329166675,522.916666666667) translate(122.65083333333334 55.361111111111114)"/><use xlink:href="#f" transform="matrix(1,0,0,1,430.95833329166675,522.916666666667) translate(35.064027777777774 72.56944444444446)"/><use xlink:href="#g" transform="matrix(1,0,0,1,430.95833329166675,522.916666666667) translate(100.50847222222222 72.56944444444446)"/><use xlink:href="#h" transform="matrix(1,0,0,1,430.95833329166675,522.916666666667) translate(117.5501388888889 72.56944444444446)"/><use xlink:href="#i" transform="matrix(1,0,0,1,430.95833329166675,522.916666666667) translate(142.90430555555557 72.56944444444446)"/><use xlink:href="#j" transform="matrix(1,0,0,1,430.95833329166675,522.916666666667) translate(67.61263888888888 89.77777777777777)"/><use xlink:href="#k" transform="matrix(1,0,0,1,430.95833329166675,522.916666666667) translate(63.80013888888889 106.98611111111111)"/><path d="M1320.17 521.3a8.77 8.77 0 0 1 9.9 0l92.44 63.23a4.1 4.1 0 0 1 0 6.77l-92.42 63.23a8.77 8.77 0 0 1-9.9 0l-92.44-63.23a4.1 4.1 0 0 1 0-6.77z" stroke="#000" stroke-width="2" fill="#fff"/><use xlink:href="#b" transform="matrix(1,0,0,1,1227.7916666250003,522.916666666667) translate(66.56055555555555 38.15277777777778)"/><use xlink:href="#c" transform="matrix(1,0,0,1,1227.7916666250003,522.916666666667) translate(81.88694444444445 38.15277777777778)"/><use xlink:href="#d" transform="matrix(1,0,0,1,1227.7916666250003,522.916666666667) translate(47.26194444444445 55.361111111111114)"/><use xlink:href="#e" transform="matrix(1,0,0,1,1227.7916666250003,522.916666666667) translate(122.65083333333334 55.361111111111114)"/><use xlink:href="#f" transform="matrix(1,0,0,1,1227.7916666250003,522.916666666667) translate(33.48069444444443 72.56944444444446)"/><use xlink:href="#g" transform="matrix(1,0,0,1,1227.7916666250003,522.916666666667) translate(98.92513888888888 72.56944444444446)"/><use xlink:href="#c" transform="matrix(1,0,0,1,1227.7916666250003,522.916666666667) translate(115.96680555555555 72.56944444444446)"/><use xlink:href="#l" transform="matrix(1,0,0,1,1227.7916666250003,522.916666666667) translate(68.87652777777777 89.77777777777777)"/><use xlink:href="#m" transform="matrix(1,0,0,1,1227.7916666250003,522.916666666667) translate(63.574444444444445 106.98611111111111)"/><path d="M875.13 548.92a6 6 0 0 1 6-6h123.33a6 6 0 0 1 6 6v78a6 6 0 0 1-6 6H881.12a6 6 0 0 1-6-6z" stroke="#008a0e" stroke-width="2" fill="#fff"/><use xlink:href="#n" transform="matrix(1,0,0,1,880.1249999583333,547.916666666667) translate(8.628472222222214 36.27777777777778)"/><use xlink:href="#o" transform="matrix(1,0,0,1,880.1249999583333,547.916666666667) translate(58.190972222222214 36.27777777777778)"/><use xlink:href="#p" transform="matrix(1,0,0,1,880.1249999583333,547.916666666667) translate(32.3125 53.486111111111114)"/><path d="M1325.6 1085.27l-.08 1-.24.98-.38.94-.54.86-.65.77-.77.66-.87.52-.93.4-1 .23-1 .07h-580.2l-.98-.07-1-.24-.93-.38-.87-.53-.77-.67-.66-.77-.53-.87-.4-.95-.24-1-.08-.98v-18.5h.95v18.46l.07.88.2.86.34.8.45.74.55.66.66.56.75.45.8.33.84.2.88.08h580.13l.9-.07.83-.2.8-.33.74-.45.66-.56.56-.66.45-.74.33-.8.2-.85.07-.87V889.65h.95zm0-217.13h-.95V657.56h.95z" stroke="#e81313" stroke-width=".05" fill="#e81313"/><path d="M1325.13 657.06l.47-.03v.55h-.95v-.55z" fill="#e81313"/><path stroke="#e81313" stroke-width=".05" fill="#e81313"/><path d="M737.6 1066.28h-9.28l4.64-14.27z" fill="#e81313"/><path d="M738.25 1066.76h-10.58l5.3-16.28zm-9.27-.95h7.96l-3.98-12.25z" stroke="#e81313" stroke-width=".05" fill="#e81313"/><use xlink:href="#q" transform="matrix(1,0,0,1,1312.898437458334,868.1362751761202) translate(0 17.22222222222222)"/><path d="M728 914.64a8.77 8.77 0 0 1 9.9 0l92.44 63.22a4.1 4.1 0 0 1 0 6.78l-92.43 63.22a8.77 8.77 0 0 1-9.9 0l-92.42-63.22a4.1 4.1 0 0 1 0-6.78z" stroke="#000" stroke-width="2" fill="#fff"/><use xlink:href="#r" transform="matrix(1,0,0,1,635.6249999583338,916.2499999999995) translate(60.39888020833333 45.41666666666667)"/><use xlink:href="#s" transform="matrix(1,0,0,1,635.6249999583338,916.2499999999995) translate(74.76736979166667 45.41666666666667)"/><use xlink:href="#t" transform="matrix(1,0,0,1,635.6249999583338,916.2499999999995) translate(98.53690104166667 45.41666666666667)"/><use xlink:href="#u" transform="matrix(1,0,0,1,635.6249999583338,916.2499999999995) translate(47.76346354166667 61.54947916666667)"/><use xlink:href="#v" transform="matrix(1,0,0,1,635.6249999583338,916.2499999999995) translate(92.06684895833334 61.54947916666667)"/><use xlink:href="#w" transform="matrix(1,0,0,1,635.6249999583338,916.2499999999995) translate(26.015416666666663 77.68229166666667)"/><use xlink:href="#x" transform="matrix(1,0,0,1,635.6249999583338,916.2499999999995) translate(65.97505208333334 93.81510416666667)"/><use xlink:href="#y" transform="matrix(1,0,0,1,635.6249999583338,916.2499999999995) translate(88.89822916666667 93.81510416666667)"/><use xlink:href="#z" transform="matrix(1,0,0,1,635.6249999583338,916.2499999999995) translate(104.87479166666667 93.81510416666667)"/><path d="M733.43 911.6h-.95v-60.26h.95zm88-126.54h-82.45l-.9.07-.83.2-.8.33-.74.46-.65.56-.56.66-.46.74-.33.8-.2.84-.07.88v39.23h-.95v-39.26l.08-1 .24-1 .4-.93.52-.86.66-.78.77-.66.87-.53.94-.38 1-.23.98-.1h82.48z" stroke="#000" stroke-width=".05"/><path d="M733.43 912.13l-.47-.03-.48.03v-.54h.95z"/><path stroke="#000" stroke-width=".05"/><path d="M836.2 784.58l-14.28 4.64v-9.27z"/><path d="M837.73 784.58l-16.28 5.3v-10.6zm-15.33 4l12.25-4-12.25-3.98z" stroke="#000" stroke-width=".05"/><use xlink:href="#A" transform="matrix(1,0,0,1,717.159722180556,829.8281250000003) translate(0 17.22222222222222)"/><path d="M528.77 975.23l.07.88.2.86.33.8.45.74.57.66.64.56.74.45.8.33.85.2.88.07h82.1v.96h-82.13l-1-.08-.98-.24-.95-.38-.87-.53-.77-.67-.65-.77-.53-.87-.4-.95-.23-1-.08-.98V808.65h.95zm0-188.1h-.95V657.57h.95z" stroke="#e81313" stroke-width=".05" fill="#e81313"/><path d="M528.3 657.06l.47-.03v.55h-.95v-.55z" fill="#e81313"/><path stroke="#e81313" stroke-width=".05" fill="#e81313"/><path d="M631.17 981.25l-14.27 4.63v-9.26z" fill="#e81313"/><path d="M632.7 981.25l-16.27 5.3v-10.6zm-15.32 3.98l12.25-3.98-12.25-3.98z" stroke="#e81313" stroke-width=".05" fill="#e81313"/><use xlink:href="#q" transform="matrix(1,0,0,1,516.0651041250001,787.1444901268361) translate(0 17.22222222222222)"/><path d="M937.55 727.5a10.75 10.75 0 0 1 10.48 0l97.02 54.16a3.35 3.35 0 0 1 0 5.85l-97.02 54.16a10.75 10.75 0 0 1-10.48 0l-97.02-54.15a3.35 3.35 0 0 1 0-5.84z" stroke="#000" stroke-width="2" fill="#fff"/><use xlink:href="#B" transform="matrix(1,0,0,1,840.2916666250001,729.5833333333335) translate(90.288203125 16.354166666666668)"/><use xlink:href="#C" transform="matrix(1,0,0,1,840.2916666250001,729.5833333333335) translate(61.39497395833333 32.48697916666667)"/><use xlink:href="#D" transform="matrix(1,0,0,1,840.2916666250001,729.5833333333335) translate(72.73611979166667 32.48697916666667)"/><use xlink:href="#E" transform="matrix(1,0,0,1,840.2916666250001,729.5833333333335) translate(108.07466145833334 32.48697916666667)"/><use xlink:href="#F" transform="matrix(1,0,0,1,840.2916666250001,729.5833333333335) translate(40.271927083333324 48.61979166666667)"/><use xlink:href="#G" transform="matrix(1,0,0,1,840.2916666250001,729.5833333333335) translate(71.63260416666665 48.61979166666667)"/><use xlink:href="#H" transform="matrix(1,0,0,1,840.2916666250001,729.5833333333335) translate(97.4659375 48.61979166666667)"/><use xlink:href="#I" transform="matrix(1,0,0,1,840.2916666250001,729.5833333333335) translate(131.20291666666668 48.61979166666667)"/><use xlink:href="#s" transform="matrix(1,0,0,1,840.2916666250001,729.5833333333335) translate(17.208776041666663 64.75260416666667)"/><use xlink:href="#J" transform="matrix(1,0,0,1,840.2916666250001,729.5833333333335) translate(40.97830729166667 64.75260416666667)"/><use xlink:href="#K" transform="matrix(1,0,0,1,840.2916666250001,729.5833333333335) translate(98.90799479166667 64.75260416666667)"/><use xlink:href="#x" transform="matrix(1,0,0,1,840.2916666250001,729.5833333333335) translate(128.09419270833334 64.75260416666667)"/><use xlink:href="#L" transform="matrix(1,0,0,1,840.2916666250001,729.5833333333335) translate(151.01736979166668 64.75260416666667)"/><use xlink:href="#M" transform="matrix(1,0,0,1,840.2916666250001,729.5833333333335) translate(167.78169270833334 64.75260416666667)"/><use xlink:href="#N" transform="matrix(1,0,0,1,840.2916666250001,729.5833333333335) translate(55.54536458333333 80.88541666666667)"/><use xlink:href="#O" transform="matrix(1,0,0,1,840.2916666250001,729.5833333333335) translate(81.41125 80.88541666666667)"/><use xlink:href="#P" transform="matrix(1,0,0,1,840.2916666250001,729.5833333333335) translate(79.93664062500001 97.01822916666667)"/><path d="M1365.13 411.25c0 22.1-17.9 40-40 40s-40-17.9-40-40 17.9-40 40-40 40 17.9 40 40z" stroke="#282c33" stroke-width="2" fill="#008a0e"/><use xlink:href="#Q" transform="matrix(1,0,0,1,1290.124999958334,376.25000000000045) translate(26.70464409722222 43.40277777777778)"/><path d="M1325.13 452.75v49.64" stroke="#3a414a" fill="none"/><path d="M1325.1 452.25l.5-.02v.53h-.95v-.54z" stroke="#3a414a" stroke-width=".05" fill="#3a414a"/><path d="M1325.13 517.15l-4.64-14.26h9.26z" stroke="#3a414a" fill="#3a414a"/><path d="M1126.5 745.58a6 6 0 0 1 6-6h155.68a6 6 0 0 1 6 6v78a6 6 0 0 1-6 6H1132.5a6 6 0 0 1-6-6z" stroke="#e81313" stroke-width="2" fill="#fff"/><use xlink:href="#n" transform="matrix(1,0,0,1,1131.5089333953308,744.5833333333335) translate(35.83680555555556 36.27777777777778)"/><use xlink:href="#R" transform="matrix(1,0,0,1,1131.5089333953308,744.5833333333335) translate(85.39930555555556 36.27777777777778)"/><use xlink:href="#S" transform="matrix(1,0,0,1,1131.5089333953308,744.5833333333335) translate(18.006944444444443 53.486111111111114)"/><use xlink:href="#T" transform="matrix(1,0,0,1,1131.5089333953308,744.5833333333335) translate(96.36111111111111 53.486111111111114)"/><path d="M735.5 588.4H628.96v-.96H735.5zm122.24 0H767.1v-.96h90.64z" stroke="#3a414a" stroke-width=".05" fill="#3a414a"/><path d="M628.98 588.4h-.56l.04-.48-.04-.48h.56z" fill="#3a414a"/><path stroke="#3a414a" stroke-width=".05" fill="#3a414a"/><path d="M872.5 587.92l-14.26 4.63v-9.27z" fill="#3a414a"/><path d="M874.04 587.92l-16.27 5.3v-10.6zm-15.32 3.98l12.25-3.98-12.25-4z" stroke="#3a414a" stroke-width=".05" fill="#3a414a"/><g><use xlink:href="#A" transform="matrix(1,0,0,1,735.4961545965508,577.1614583333336) translate(0 17.22222222222222)"/></g><path d="M1102.4 588.4h-74.56v-.96h74.57zm122.05 0H1134v-.96h90.45z" stroke="#3a414a" stroke-width=".05" fill="#3a414a"/><path d="M1224.95 587.92l.05.47h-.56v-.96h.56z" fill="#3a414a"/><path stroke="#3a414a" stroke-width=".05" fill="#3a414a"/><path d="M1027.34 592.55l-14.26-4.63 14.26-4.64z" fill="#3a414a"/><path d="M1027.82 593.2l-16.28-5.28 16.28-5.3zm-13.2-5.28l12.25 3.98v-7.97z" stroke="#3a414a" stroke-width=".05" fill="#3a414a"/><g><use xlink:href="#A" transform="matrix(1,0,0,1,1102.406623097894,577.1614583333336) translate(0 17.22222222222222)"/></g><path d="M943.27 724.64h-.95v-23.57h.95zm0-45.08h-.95V650.3h.95z" stroke="#3a414a" stroke-width=".05" fill="#3a414a"/><path d="M943.27 725.17l-.48-.03-.48.03v-.54h.95z" fill="#3a414a"/><path stroke="#3a414a" stroke-width=".05" fill="#3a414a"/><path d="M947.43 649.8h-9.27l4.63-14.26z" fill="#3a414a"/><path d="M948.08 650.27H937.5l5.3-16.27zm-9.27-.94h7.97l-3.98-12.26z" stroke="#3a414a" stroke-width=".05" fill="#3a414a"/><g><use xlink:href="#A" transform="matrix(1,0,0,1,926.993055513889,679.562264357869) translate(0 17.22222222222222)"/></g><path d="M1074.4 785.06h-26.13v-.95h26.14zm34.72 0h-10.25v-.95h10.26z" stroke="#3a414a" stroke-width=".05" fill="#3a414a"/><path d="M1048.3 785.06h-.58l.06-.48-.06-.47h.57z" fill="#3a414a"/><path stroke="#3a414a" stroke-width=".05" fill="#3a414a"/><path d="M1123.9 784.58l-14.28 4.64v-9.27z" fill="#3a414a"/><path d="M1125.43 784.58l-16.28 5.3v-10.6zm-15.33 4l12.25-4-12.25-3.98z" stroke="#3a414a" stroke-width=".05" fill="#3a414a"/><g><use xlink:href="#q" transform="matrix(1,0,0,1,1074.4153373428594,773.8281250000001) translate(0 17.22222222222222)"/></g><path d="M964.88 1005.06H803.45v-.95h161.43zm170 0H989.32v-.95h145.54z" stroke="#3a414a" stroke-width=".05" fill="#3a414a"/><path d="M803.46 1005.06h-1.2l1.2-.83z" fill="#3a414a"/><path stroke="#3a414a" stroke-width=".05" fill="#3a414a"/><path d="M1149.64 1004.58l-14.27 4.64v-9.27z" fill="#3a414a"/><path d="M1151.17 1004.58l-16.27 5.3v-10.6zm-15.32 4l12.25-4-12.25-3.98z" stroke="#3a414a" stroke-width=".05" fill="#3a414a"/><g><use xlink:href="#q" transform="matrix(1,0,0,1,964.8769482100429,993.8281249999995) translate(0 17.22222222222222)"/></g><path d="M1205.68 915.03a7.4 7.4 0 0 1 9.32 0l76.93 62.44a4.87 4.87 0 0 1 0 7.56l-76.93 62.44a7.4 7.4 0 0 1-9.32 0l-76.93-62.44a4.87 4.87 0 0 1 0-7.56z" stroke="#000" stroke-width="2" fill="#fff"/><g><use xlink:href="#U" transform="matrix(1,0,0,1,1129.0922667286638,916.2499999999995) translate(39.20682291666667 53.54166666666667)"/><use xlink:href="#s" transform="matrix(1,0,0,1,1129.0922667286638,916.2499999999995) translate(67.39041666666667 53.54166666666667)"/><use xlink:href="#V" transform="matrix(1,0,0,1,1129.0922667286638,916.2499999999995) translate(91.15994791666667 53.54166666666667)"/><use xlink:href="#W" transform="matrix(1,0,0,1,1129.0922667286638,916.2499999999995) translate(13.630651041666662 69.67447916666667)"/><use xlink:href="#X" transform="matrix(1,0,0,1,1129.0922667286638,916.2499999999995) translate(55.70096354166665 69.67447916666667)"/><use xlink:href="#D" transform="matrix(1,0,0,1,1129.0922667286638,916.2499999999995) translate(86.99002604166665 69.67447916666667)"/><use xlink:href="#Y" transform="matrix(1,0,0,1,1129.0922667286638,916.2499999999995) translate(122.32856770833332 69.67447916666667)"/><use xlink:href="#Z" transform="matrix(1,0,0,1,1129.0922667286638,916.2499999999995) translate(38.676223958333324 85.80729166666667)"/></g><path d="M943.27 951.9l.07.88.2.84.33.8.45.74.57.66.64.56.74.46.8.33.85.2.88.07h86.03v.95h-86.06l-1-.1-.98-.22-.95-.4-.87-.52-.77-.66-.65-.78-.53-.86-.4-.94-.23-1-.08-1v-91.5h.95zm207.5 5.54v.95h-84.35v-.96z" stroke="#3a414a" stroke-width=".05" fill="#3a414a"/><path d="M1150.74 958.33v-.9h1.1z" fill="#3a414a"/><path stroke="#3a414a" stroke-width=".05" fill="#3a414a"/><path d="M947.43 859.9h-9.27l4.63-14.26z" fill="#3a414a"/><path d="M948.08 860.38H937.5l5.3-16.28zm-9.27-.95h7.97l-3.98-12.25z" stroke="#3a414a" stroke-width=".05" fill="#3a414a"/><g><use xlink:href="#A" transform="matrix(1,0,0,1,1034.8263888472222,947.1614583333334) translate(0 17.22222222222222)"/></g><path d="M1210.82 911.88h-.95V890h.95zm0-43.38h-.95v-21.53h.95z" stroke="#3a414a" stroke-width=".05" fill="#3a414a"/><path d="M1210.82 912.4l-.48-.02-.47.03v-.54h.95z" fill="#3a414a"/><path stroke="#3a414a" stroke-width=".05" fill="#3a414a"/><path d="M1214.98 846.47h-9.27l4.64-14.27z" fill="#3a414a"/><path d="M1215.63 846.94h-10.58l5.3-16.28zm-9.27-.95h7.96l-3.98-12.26z" stroke="#3a414a" stroke-width=".05" fill="#3a414a"/><g><use xlink:href="#q" transform="matrix(1,0,0,1,1198.1157042286638,868.4947916666672) translate(0 17.22222222222222)"/></g><defs><path d="M49 0l509-1490h400L1480 0h-339l-115-346H497L386 0H49zm524-585h374c-75-213-124-402-192-666-66 268-110 453-182 666" id="aa"/><use transform="matrix(0.010850694444444444,0,0,0.010850694444444444,0,0)" xlink:href="#aa" id="a"/><path fill="#282c33" d="M370-1490V0H180v-1490h190" id="ab"/><path fill="#282c33" d="M538 24C308 24 148-78 108-271l171-41c32 123 123 178 257 178 156 0 256-77 256-169 0-77-54-128-164-154l-186-44c-203-48-300-148-300-305 0-192 176-326 414-326 230 0 351 112 402 269l-163 42c-31-80-94-158-238-158-133 0-233 69-233 162 0 83 57 129 188 160l169 40c203 48 298 149 298 302 0 196-179 339-441 339" id="ac"/><g id="b"><use transform="matrix(0.006944444444444445,0,0,0.006944444444444445,0,0)" xlink:href="#ab"/><use transform="matrix(0.006944444444444445,0,0,0.006944444444444445,3.8194444444444446,0)" xlink:href="#ac"/></g><path fill="#282c33" d="M180 0v-1490h224l606 953c40 63 108 177 176 312-27-437-7-821-13-1265h190V0h-226C860-448 622-778 356-1262c27 476 11 792 15 1262H180" id="ad"/><path fill="#282c33" d="M789 20c-398 0-667-293-667-764 0-473 273-766 655-766 315 0 558 198 612 487h-196c-61-191-204-311-415-311-262 0-471 207-471 590 0 380 208 588 482 588 249 0 420-165 425-427H828v-166h572v163c0 370-256 606-611 606" id="ae"/><path fill="#282c33" d="M57 0l534-763-501-727h220c122 187 296 416 391 605 94-191 272-419 396-605h215L811-770 1340 0h-219C986-204 811-426 699-640 588-430 407-202 273 0H57" id="af"/><g id="c"><use transform="matrix(0.006944444444444445,0,0,0.006944444444444445,0,0)" xlink:href="#ad"/><use transform="matrix(0.006944444444444445,0,0,0.006944444444444445,10.715277777777779,0)" xlink:href="#ae"/><use transform="matrix(0.006944444444444445,0,0,0.006944444444444445,21.326388888888893,0)" xlink:href="#ab"/><use transform="matrix(0.006944444444444445,0,0,0.006944444444444445,25.145833333333336,0)" xlink:href="#ad"/><use transform="matrix(0.006944444444444445,0,0,0.006944444444444445,35.861111111111114,0)" xlink:href="#af"/></g><path fill="#282c33" d="M613 24c-304 0-509-231-509-576 0-350 205-580 509-580 216 0 392 114 453 309l-173 49c-33-115-133-197-280-197-223 0-326 196-326 419 0 220 103 415 326 415 150 0 252-85 285-206l172 49C1010-95 832 24 613 24" id="ag"/><path fill="#282c33" d="M613 24c-304 0-509-231-509-576 0-350 205-580 509-580 305 0 511 230 511 580 0 345-206 576-511 576zm0-161c226 0 329-195 329-415 0-222-103-419-329-419-223 0-326 196-326 419 0 220 103 415 326 415" id="ah"/><path fill="#282c33" d="M338-670V0H158v-1118h173l1 207c72-158 192-221 342-221 226 0 378 139 378 422V0H872v-695c0-172-96-275-252-275-161 0-282 109-282 300" id="ai"/><path fill="#282c33" d="M628 24c-324 0-524-230-524-574 0-343 198-582 503-582 237 0 487 146 487 559v75H286c9 234 145 362 343 362 132 0 231-58 273-172l174 48C1024-91 857 24 628 24zM287-650h624c-17-190-120-322-304-322-192 0-309 151-320 322" id="aj"/><path fill="#282c33" d="M598-1118v154H368v674c0 100 37 144 132 144 23 0 62-6 92-12L629-6c-37 13-88 20-134 20-193 0-307-107-307-290v-688H20v-154h168v-266h180v266h230" id="ak"/><path fill="#282c33" d="M577 24c-279 0-473-224-473-580 0-354 195-576 474-576 218 0 287 134 324 193h14v-551h180V0H922v-173h-20C865-111 790 24 577 24zm27-161c203 0 314-172 314-421 0-247-108-413-314-413-212 0-317 181-317 413 0 235 108 421 317 421" id="al"/><g id="d"><use transform="matrix(0.006944444444444445,0,0,0.006944444444444445,0,0)" xlink:href="#ag"/><use transform="matrix(0.006944444444444445,0,0,0.006944444444444445,8.125,0)" xlink:href="#ah"/><use transform="matrix(0.006944444444444445,0,0,0.006944444444444445,16.65277777777778,0)" xlink:href="#ai"/><use transform="matrix(0.006944444444444445,0,0,0.006944444444444445,25.055555555555557,0)" xlink:href="#ai"/><use transform="matrix(0.006944444444444445,0,0,0.006944444444444445,33.458333333333336,0)" xlink:href="#aj"/><use transform="matrix(0.006944444444444445,0,0,0.006944444444444445,41.75,0)" xlink:href="#ag"/><use transform="matrix(0.006944444444444445,0,0,0.006944444444444445,49.875,0)" xlink:href="#ak"/><use transform="matrix(0.006944444444444445,0,0,0.006944444444444445,54.38888888888889,0)" xlink:href="#aj"/><use transform="matrix(0.006944444444444445,0,0,0.006944444444444445,62.68055555555556,0)" xlink:href="#al"/></g><path fill="#282c33" d="M471 26C259 26 90-98 90-318c0-256 228-303 435-329 202-27 287-16 287-108 0-139-79-219-234-219-161 0-248 86-283 164l-173-57c86-203 278-265 451-265 150 0 419 46 419 395V0H815v-152h-12C765-73 660 26 471 26zm31-159c199 0 310-134 310-271v-155c-30 35-226 55-295 64-131 17-246 59-246 186 0 116 97 176 231 176" id="am"/><g id="e"><use transform="matrix(0.006944444444444445,0,0,0.006944444444444445,0,0)" xlink:href="#am"/><use transform="matrix(0.006944444444444445,0,0,0.006944444444444445,7.986111111111112,0)" xlink:href="#ai"/><use transform="matrix(0.006944444444444445,0,0,0.006944444444444445,16.38888888888889,0)" xlink:href="#al"/></g><path fill="#282c33" d="M158 0v-1118h174v172h12c41-113 157-188 290-188 26 0 70 2 91 3v181c-11-2-60-10-108-10-161 0-279 109-279 260V0H158" id="an"/><path fill="#282c33" d="M158 418v-1536h174v179h20c37-59 106-193 324-193 279 0 474 222 474 576 0 356-194 580-473 580-213 0-288-135-325-197h-14v591H158zm492-555c209 0 317-186 317-421 0-232-105-413-317-413-206 0-314 166-314 413 0 249 111 421 314 421" id="ao"/><path fill="#282c33" d="M158 0v-1118h180V0H158zm91-1301c-68 0-125-53-125-119s57-119 125-119c69 0 126 53 126 119s-57 119-126 119" id="ap"/><path fill="#282c33" d="M611 442c-248 0-391-105-460-228l146-94c47 65 117 165 314 165 178 0 307-82 307-266v-224h-17C863-141 792-18 576-18c-268 0-472-195-472-546 0-346 197-568 476-568 216 0 288 133 326 193h17v-179h175V29c0 289-215 413-487 413zm-5-620c203 0 314-146 314-390 0-237-108-403-314-403-213 0-319 180-319 403 0 230 109 390 319 390" id="aq"/><g id="f"><use transform="matrix(0.006944444444444445,0,0,0.006944444444444445,0,0)" xlink:href="#an"/><use transform="matrix(0.006944444444444445,0,0,0.006944444444444445,5.118055555555556,0)" xlink:href="#aj"/><use transform="matrix(0.006944444444444445,0,0,0.006944444444444445,13.409722222222225,0)" xlink:href="#ao"/><use transform="matrix(0.006944444444444445,0,0,0.006944444444444445,22.118055555555557,0)" xlink:href="#ah"/><use transform="matrix(0.006944444444444445,0,0,0.006944444444444445,30.645833333333336,0)" xlink:href="#an"/><use transform="matrix(0.006944444444444445,0,0,0.006944444444444445,36.22222222222222,0)" xlink:href="#ak"/><use transform="matrix(0.006944444444444445,0,0,0.006944444444444445,40.875,0)" xlink:href="#ap"/><use transform="matrix(0.006944444444444445,0,0,0.006944444444444445,44.31944444444444,0)" xlink:href="#ai"/><use transform="matrix(0.006944444444444445,0,0,0.006944444444444445,52.72222222222222,0)" xlink:href="#aq"/></g><g id="g"><use transform="matrix(0.006944444444444445,0,0,0.006944444444444445,0,0)" xlink:href="#ak"/><use transform="matrix(0.006944444444444445,0,0,0.006944444444444445,4.513888888888888,0)" xlink:href="#ah"/></g><path fill="#282c33" d="M338-670V0H158v-1490h180v566c73-149 190-208 336-208 226 0 379 139 379 422V0H872v-695c0-172-96-275-252-275-161 0-282 109-282 300" id="ar"/><g id="h"><use transform="matrix(0.006944444444444445,0,0,0.006944444444444445,0,0)" xlink:href="#ak"/><use transform="matrix(0.006944444444444445,0,0,0.006944444444444445,4.652777777777778,0)" xlink:href="#ar"/><use transform="matrix(0.006944444444444445,0,0,0.006944444444444445,13.0625,0)" xlink:href="#aj"/></g><path fill="#282c33" d="M180 0v-1490h901v168H370v510h643v168H370V0H180" id="as"/><path fill="#282c33" d="M626 20c-262 0-458-168-468-396h184c12 133 134 229 284 229 180 0 311-137 311-326 0-192-136-335-323-335-92 0-196 33-255 78l-178-22 88-738h784v167H429l-51 435h8c61-51 160-87 263-87 273 0 474 211 474 499 0 286-210 496-497 496" id="at"/><g id="i"><use transform="matrix(0.006944444444444445,0,0,0.006944444444444445,0,0)" xlink:href="#as"/><use transform="matrix(0.006944444444444445,0,0,0.006944444444444445,8.395833333333334,0)" xlink:href="#at"/></g><path fill="#282c33" d="M338-1490V0H158v-1490h180" id="au"/><g id="j"><use transform="matrix(0.006944444444444445,0,0,0.006944444444444445,0,0)" xlink:href="#au"/><use transform="matrix(0.006944444444444445,0,0,0.006944444444444445,3.4444444444444446,0)" xlink:href="#ap"/><use transform="matrix(0.006944444444444445,0,0,0.006944444444444445,6.888888888888889,0)" xlink:href="#ag"/><use transform="matrix(0.006944444444444445,0,0,0.006944444444444445,15.01388888888889,0)" xlink:href="#aj"/><use transform="matrix(0.006944444444444445,0,0,0.006944444444444445,23.305555555555557,0)" xlink:href="#ai"/><use transform="matrix(0.006944444444444445,0,0,0.006944444444444445,31.708333333333336,0)" xlink:href="#ac"/><use transform="matrix(0.006944444444444445,0,0,0.006944444444444445,39.21527777777778,0)" xlink:href="#ap"/><use transform="matrix(0.006944444444444445,0,0,0.006944444444444445,42.65972222222222,0)" xlink:href="#ai"/><use transform="matrix(0.006944444444444445,0,0,0.006944444444444445,51.0625,0)" xlink:href="#aq"/></g><path fill="#282c33" d="M383-449c-3-277 82-343 222-425 88-53 156-134 156-250 0-139-108-227-243-227-118 0-235 70-246 236H82c10-251 200-395 436-395 259 0 427 165 427 393 0 161-74 273-203 352-132 80-180 132-178 316H383zm93 462c-75 0-135-60-135-134 0-75 60-135 135-135 74 0 134 60 134 135 0 74-60 134-134 134" id="av"/><g id="k"><use transform="matrix(0.006944444444444445,0,0,0.006944444444444445,0,0)" xlink:href="#aj"/><use transform="matrix(0.006944444444444445,0,0,0.006944444444444445,8.291666666666668,0)" xlink:href="#ai"/><use transform="matrix(0.006944444444444445,0,0,0.006944444444444445,16.694444444444446,0)" xlink:href="#al"/><use transform="matrix(0.006944444444444445,0,0,0.006944444444444445,25.40277777777778,0)" xlink:href="#ao"/><use transform="matrix(0.006944444444444445,0,0,0.006944444444444445,34.111111111111114,0)" xlink:href="#ah"/><use transform="matrix(0.006944444444444445,0,0,0.006944444444444445,42.63888888888889,0)" xlink:href="#ap"/><use transform="matrix(0.006944444444444445,0,0,0.006944444444444445,46.083333333333336,0)" xlink:href="#ai"/><use transform="matrix(0.006944444444444445,0,0,0.006944444444444445,54.486111111111114,0)" xlink:href="#ak"/><use transform="matrix(0.006944444444444445,0,0,0.006944444444444445,59.13888888888889,0)" xlink:href="#av"/></g><g id="l"><use transform="matrix(0.006944444444444445,0,0,0.006944444444444445,0,0)" xlink:href="#ab"/><use transform="matrix(0.006944444444444445,0,0,0.006944444444444445,3.8194444444444446,0)" xlink:href="#ai"/><use transform="matrix(0.006944444444444445,0,0,0.006944444444444445,12.222222222222223,0)" xlink:href="#ac"/><use transform="matrix(0.006944444444444445,0,0,0.006944444444444445,19.729166666666668,0)" xlink:href="#ak"/><use transform="matrix(0.006944444444444445,0,0,0.006944444444444445,24.45138888888889,0)" xlink:href="#am"/><use transform="matrix(0.006944444444444445,0,0,0.006944444444444445,32.4375,0)" xlink:href="#ai"/><use transform="matrix(0.006944444444444445,0,0,0.006944444444444445,40.84027777777778,0)" xlink:href="#ag"/><use transform="matrix(0.006944444444444445,0,0,0.006944444444444445,48.96527777777778,0)" xlink:href="#aj"/></g><path fill="#282c33" d="M180 0v-1490h270l367 940c28 72 75 218 110 339 35-117 81-264 110-339l362-940h271V0h-187c2-448-5-837 7-1287-157 497-311 829-483 1287H842C666-458 514-784 354-1284c12 438 5 843 7 1284H180" id="aw"/><g id="m"><use transform="matrix(0.006944444444444445,0,0,0.006944444444444445,0,0)" xlink:href="#aw"/><use transform="matrix(0.006944444444444445,0,0,0.006944444444444445,12.847222222222223,0)" xlink:href="#am"/><use transform="matrix(0.006944444444444445,0,0,0.006944444444444445,20.833333333333336,0)" xlink:href="#ai"/><use transform="matrix(0.006944444444444445,0,0,0.006944444444444445,29.236111111111114,0)" xlink:href="#am"/><use transform="matrix(0.006944444444444445,0,0,0.006944444444444445,37.22222222222223,0)" xlink:href="#aq"/><use transform="matrix(0.006944444444444445,0,0,0.006944444444444445,45.94444444444445,0)" xlink:href="#aj"/><use transform="matrix(0.006944444444444445,0,0,0.006944444444444445,54.236111111111114,0)" xlink:href="#an"/><use transform="matrix(0.006944444444444445,0,0,0.006944444444444445,59.59027777777778,0)" xlink:href="#av"/></g><g id="n"><use transform="matrix(0.006944444444444445,0,0,0.006944444444444445,0,0)" xlink:href="#ad"/><use transform="matrix(0.006944444444444445,0,0,0.006944444444444445,10.715277777777779,0)" xlink:href="#ae"/><use transform="matrix(0.006944444444444445,0,0,0.006944444444444445,21.326388888888893,0)" xlink:href="#ab"/><use transform="matrix(0.006944444444444445,0,0,0.006944444444444445,25.145833333333336,0)" xlink:href="#ad"/><use transform="matrix(0.006944444444444445,0,0,0.006944444444444445,35.861111111111114,0)" xlink:href="#af"/></g><g id="o"><use transform="matrix(0.006944444444444445,0,0,0.006944444444444445,0,0)" xlink:href="#ah"/><use transform="matrix(0.006944444444444445,0,0,0.006944444444444445,8.527777777777779,0)" xlink:href="#ao"/><use transform="matrix(0.006944444444444445,0,0,0.006944444444444445,17.236111111111114,0)" xlink:href="#aj"/><use transform="matrix(0.006944444444444445,0,0,0.006944444444444445,25.527777777777782,0)" xlink:href="#an"/><use transform="matrix(0.006944444444444445,0,0,0.006944444444444445,30.881944444444454,0)" xlink:href="#am"/><use transform="matrix(0.006944444444444445,0,0,0.006944444444444445,38.868055555555564,0)" xlink:href="#ak"/><use transform="matrix(0.006944444444444445,0,0,0.006944444444444445,43.38194444444446,0)" xlink:href="#aj"/><use transform="matrix(0.006944444444444445,0,0,0.006944444444444445,51.67361111111113,0)" xlink:href="#ac"/></g><path fill="#282c33" d="M158 0v-1118h175l1 205c55-151 181-225 313-225 147 0 245 90 285 228 53-141 190-228 352-228 194 0 352 125 352 384V0h-181v-749c0-161-105-225-225-225-151 0-243 103-243 244V0H807v-767c0-124-93-207-219-207-131 0-250 92-250 270V0H158" id="ax"/><path fill="#282c33" d="M140 405l46-156c120 36 205 19 263-150l32-93L54-1118h197c107 313 237 620 324 950 87-331 219-637 326-950h196L606 167c-68 178-176 259-334 259-64 0-113-12-132-21" id="ay"/><path fill="#282c33" d="M295 13c-75 0-135-60-135-135s60-135 135-135 135 60 135 135S370 13 295 13" id="az"/><g id="p"><use transform="matrix(0.006944444444444445,0,0,0.006944444444444445,0,0)" xlink:href="#ai"/><use transform="matrix(0.006944444444444445,0,0,0.006944444444444445,8.402777777777779,0)" xlink:href="#ah"/><use transform="matrix(0.006944444444444445,0,0,0.006944444444444445,16.930555555555557,0)" xlink:href="#an"/><use transform="matrix(0.006944444444444445,0,0,0.006944444444444445,22.506944444444446,0)" xlink:href="#ax"/><use transform="matrix(0.006944444444444445,0,0,0.006944444444444445,34.96527777777778,0)" xlink:href="#am"/><use transform="matrix(0.006944444444444445,0,0,0.006944444444444445,42.95138888888889,0)" xlink:href="#au"/><use transform="matrix(0.006944444444444445,0,0,0.006944444444444445,46.395833333333336,0)" xlink:href="#au"/><use transform="matrix(0.006944444444444445,0,0,0.006944444444444445,49.90972222222222,0)" xlink:href="#ay"/><use transform="matrix(0.006944444444444445,0,0,0.006944444444444445,57.27777777777778,0)" xlink:href="#az"/></g><path fill="#333" d="M135 0v-1490h340l471 754c59 97 122 210 187 365-32-387-14-721-19-1119h312V0h-341C855-382 627-689 427-1113c32 420 16 695 20 1113H135" id="aA"/><path fill="#333" d="M628 22C291 22 81-210 81-554c0-346 210-578 547-578 336 0 547 232 547 578 0 344-211 576-547 576zm0-236c160 0 242-146 242-341 0-197-82-341-242-341S387-753 387-555c0 195 81 341 241 341" id="aB"/><g id="q"><use transform="matrix(0.008680555555555556,0,0,0.008680555555555556,0,0)" xlink:href="#aA"/><use transform="matrix(0.008680555555555556,0,0,0.008680555555555556,13.550347222222223,0)" xlink:href="#aB"/></g><path d="M370-1490V0H180v-1490h190" id="aC"/><path d="M538 24C308 24 148-78 108-271l171-41c32 123 123 178 257 178 156 0 256-77 256-169 0-77-54-128-164-154l-186-44c-203-48-300-148-300-305 0-192 176-326 414-326 230 0 351 112 402 269l-163 42c-31-80-94-158-238-158-133 0-233 69-233 162 0 83 57 129 188 160l169 40c203 48 298 149 298 302 0 196-179 339-441 339" id="aD"/><g id="r"><use transform="matrix(0.006510416666666667,0,0,0.006510416666666667,0,0)" xlink:href="#aC"/><use transform="matrix(0.006510416666666667,0,0,0.006510416666666667,3.580729166666667,0)" xlink:href="#aD"/></g><path d="M598-1118v154H368v674c0 100 37 144 132 144 23 0 62-6 92-12L629-6c-37 13-88 20-134 20-193 0-307-107-307-290v-688H20v-154h168v-266h180v266h230" id="aE"/><path d="M338-670V0H158v-1490h180v566c73-149 190-208 336-208 226 0 379 139 379 422V0H872v-695c0-172-96-275-252-275-161 0-282 109-282 300" id="aF"/><path d="M628 24c-324 0-524-230-524-574 0-343 198-582 503-582 237 0 487 146 487 559v75H286c9 234 145 362 343 362 132 0 231-58 273-172l174 48C1024-91 857 24 628 24zM287-650h624c-17-190-120-322-304-322-192 0-309 151-320 322" id="aG"/><g id="s"><use transform="matrix(0.006510416666666667,0,0,0.006510416666666667,0,0)" xlink:href="#aE"/><use transform="matrix(0.006510416666666667,0,0,0.006510416666666667,4.361979166666667,0)" xlink:href="#aF"/><use transform="matrix(0.006510416666666667,0,0,0.006510416666666667,12.24609375,0)" xlink:href="#aG"/></g><path d="M611 442c-248 0-391-105-460-228l146-94c47 65 117 165 314 165 178 0 307-82 307-266v-224h-17C863-141 792-18 576-18c-268 0-472-195-472-546 0-346 197-568 476-568 216 0 288 133 326 193h17v-179h175V29c0 289-215 413-487 413zm-5-620c203 0 314-146 314-390 0-237-108-403-314-403-213 0-319 180-319 403 0 230 109 390 319 390" id="aH"/><path d="M158 0v-1118h174v172h12c41-113 157-188 290-188 26 0 70 2 91 3v181c-11-2-60-10-108-10-161 0-279 109-279 260V0H158" id="aI"/><path d="M471 26C259 26 90-98 90-318c0-256 228-303 435-329 202-27 287-16 287-108 0-139-79-219-234-219-161 0-248 86-283 164l-173-57c86-203 278-265 451-265 150 0 419 46 419 395V0H815v-152h-12C765-73 660 26 471 26zm31-159c199 0 310-134 310-271v-155c-30 35-226 55-295 64-131 17-246 59-246 186 0 116 97 176 231 176" id="aJ"/><path d="M613 24c-304 0-509-231-509-576 0-350 205-580 509-580 216 0 392 114 453 309l-173 49c-33-115-133-197-280-197-223 0-326 196-326 419 0 220 103 415 326 415 150 0 252-85 285-206l172 49C1010-95 832 24 613 24" id="aK"/><g id="t"><use transform="matrix(0.006510416666666667,0,0,0.006510416666666667,0,0)" xlink:href="#aH"/><use transform="matrix(0.006510416666666667,0,0,0.006510416666666667,8.177083333333334,0)" xlink:href="#aI"/><use transform="matrix(0.006510416666666667,0,0,0.006510416666666667,13.196614583333334,0)" xlink:href="#aJ"/><use transform="matrix(0.006510416666666667,0,0,0.006510416666666667,20.68359375,0)" xlink:href="#aK"/><use transform="matrix(0.006510416666666667,0,0,0.006510416666666667,28.30078125,0)" xlink:href="#aG"/></g><path d="M158 418v-1536h174v179h20c37-59 106-193 324-193 279 0 474 222 474 576 0 356-194 580-473 580-213 0-288-135-325-197h-14v591H158zm492-555c209 0 317-186 317-421 0-232-105-413-317-413-206 0-314 166-314 413 0 249 111 421 314 421" id="aL"/><path d="M158 0v-1118h180V0H158zm91-1301c-68 0-125-53-125-119s57-119 125-119c69 0 126 53 126 119s-57 119-126 119" id="aM"/><path d="M613 24c-304 0-509-231-509-576 0-350 205-580 509-580 305 0 511 230 511 580 0 345-206 576-511 576zm0-161c226 0 329-195 329-415 0-222-103-419-329-419-223 0-326 196-326 419 0 220 103 415 326 415" id="aN"/><path d="M577 24c-279 0-473-224-473-580 0-354 195-576 474-576 218 0 287 134 324 193h14v-551h180V0H922v-173h-20C865-111 790 24 577 24zm27-161c203 0 314-172 314-421 0-247-108-413-314-413-212 0-317 181-317 413 0 235 108 421 317 421" id="aO"/><g id="u"><use transform="matrix(0.006510416666666667,0,0,0.006510416666666667,0,0)" xlink:href="#aL"/><use transform="matrix(0.006510416666666667,0,0,0.006510416666666667,8.1640625,0)" xlink:href="#aG"/><use transform="matrix(0.006510416666666667,0,0,0.006510416666666667,15.9375,0)" xlink:href="#aI"/><use transform="matrix(0.006510416666666667,0,0,0.006510416666666667,21.165364583333332,0)" xlink:href="#aM"/><use transform="matrix(0.006510416666666667,0,0,0.006510416666666667,24.39453125,0)" xlink:href="#aN"/><use transform="matrix(0.006510416666666667,0,0,0.006510416666666667,32.389322916666664,0)" xlink:href="#aO"/></g><path d="M481 0L54-1118h197c107 314 236 620 325 951 87-331 217-637 324-951h197L670 0H481" id="aP"/><g id="v"><use transform="matrix(0.006510416666666667,0,0,0.006510416666666667,0,0)" xlink:href="#aO"/><use transform="matrix(0.006510416666666667,0,0,0.006510416666666667,8.1640625,0)" xlink:href="#aM"/><use transform="matrix(0.006510416666666667,0,0,0.006510416666666667,11.393229166666668,0)" xlink:href="#aI"/><use transform="matrix(0.006510416666666667,0,0,0.006510416666666667,16.19140625,0)" xlink:href="#aG"/><use transform="matrix(0.006510416666666667,0,0,0.006510416666666667,23.96484375,0)" xlink:href="#aK"/><use transform="matrix(0.006510416666666667,0,0,0.006510416666666667,31.58203125,0)" xlink:href="#aE"/><use transform="matrix(0.006510416666666667,0,0,0.006510416666666667,35.944010416666664,0)" xlink:href="#aM"/><use transform="matrix(0.006510416666666667,0,0,0.006510416666666667,39.17317708333333,0)" xlink:href="#aP"/><use transform="matrix(0.006510416666666667,0,0,0.006510416666666667,46.40625,0)" xlink:href="#aG"/></g><path d="M218-607c0-325 108-727 258-974h175c-155 315-250 682-250 974 0 265 78 531 250 886H476C306-10 218-315 218-607" id="aQ"/><path d="M338-670V0H158v-1118h173l1 207c72-158 192-221 342-221 226 0 378 139 378 422V0H872v-695c0-172-96-275-252-275-161 0-282 109-282 300" id="aR"/><path d="M678-1118v154H420V0H240v-964H20v-154h220v-149c0-194 155-293 318-293 85 0 141 18 168 30l-50 154c-19-6-47-17-97-17-111 0-159 58-159 166v109h258" id="aS"/><path d="M934 0v166H0V0h934" id="aT"/><path d="M338-1490V0H158v-1490h180" id="aU"/><path d="M96 279C273-86 346-350 346-607c0-292-95-659-250-974h175c150 246 258 650 258 974 0 297-91 602-258 886H96" id="aV"/><g id="w"><use transform="matrix(0.006510416666666667,0,0,0.006510416666666667,0,0)" xlink:href="#aQ"/><use transform="matrix(0.006510416666666667,0,0,0.006510416666666667,4.713541666666667,0)" xlink:href="#aG"/><use transform="matrix(0.006510416666666667,0,0,0.006510416666666667,12.486979166666668,0)" xlink:href="#aR"/><use transform="matrix(0.006510416666666667,0,0,0.006510416666666667,20.364583333333336,0)" xlink:href="#aS"/><use transform="matrix(0.006510416666666667,0,0,0.006510416666666667,24.90885416666667,0)" xlink:href="#aN"/><use transform="matrix(0.006510416666666667,0,0,0.006510416666666667,32.903645833333336,0)" xlink:href="#aI"/><use transform="matrix(0.006510416666666667,0,0,0.006510416666666667,37.70182291666667,0)" xlink:href="#aK"/><use transform="matrix(0.006510416666666667,0,0,0.006510416666666667,45.31901041666667,0)" xlink:href="#aG"/><use transform="matrix(0.006510416666666667,0,0,0.006510416666666667,53.09244791666667,0)" xlink:href="#aT"/><use transform="matrix(0.006510416666666667,0,0,0.006510416666666667,59.622395833333336,0)" xlink:href="#aM"/><use transform="matrix(0.006510416666666667,0,0,0.006510416666666667,62.8515625,0)" xlink:href="#aR"/><use transform="matrix(0.006510416666666667,0,0,0.006510416666666667,70.72916666666667,0)" xlink:href="#aM"/><use transform="matrix(0.006510416666666667,0,0,0.006510416666666667,73.95833333333334,0)" xlink:href="#aE"/><use transform="matrix(0.006510416666666667,0,0,0.006510416666666667,78.32031250000001,0)" xlink:href="#aM"/><use transform="matrix(0.006510416666666667,0,0,0.006510416666666667,81.54947916666669,0)" xlink:href="#aJ"/><use transform="matrix(0.006510416666666667,0,0,0.006510416666666667,89.03645833333336,0)" xlink:href="#aU"/><use transform="matrix(0.006510416666666667,0,0,0.006510416666666667,92.26562500000003,0)" xlink:href="#aT"/><use transform="matrix(0.006510416666666667,0,0,0.006510416666666667,98.7955729166667,0)" xlink:href="#aI"/><use transform="matrix(0.006510416666666667,0,0,0.006510416666666667,103.59375000000003,0)" xlink:href="#aG"/><use transform="matrix(0.006510416666666667,0,0,0.006510416666666667,111.36718750000003,0)" xlink:href="#aL"/><use transform="matrix(0.006510416666666667,0,0,0.006510416666666667,119.53125000000003,0)" xlink:href="#aN"/><use transform="matrix(0.006510416666666667,0,0,0.006510416666666667,127.5260416666667,0)" xlink:href="#aI"/><use transform="matrix(0.006510416666666667,0,0,0.006510416666666667,132.75390625000003,0)" xlink:href="#aE"/><use transform="matrix(0.006510416666666667,0,0,0.006510416666666667,137.11588541666669,0)" xlink:href="#aV"/></g><g id="x"><use transform="matrix(0.006510416666666667,0,0,0.006510416666666667,0,0)" xlink:href="#aD"/><use transform="matrix(0.006510416666666667,0,0,0.006510416666666667,7.037760416666667,0)" xlink:href="#aG"/><use transform="matrix(0.006510416666666667,0,0,0.006510416666666667,14.811197916666668,0)" xlink:href="#aE"/></g><g id="y"><use transform="matrix(0.006510416666666667,0,0,0.006510416666666667,0,0)" xlink:href="#aE"/><use transform="matrix(0.006510416666666667,0,0,0.006510416666666667,4.231770833333334,0)" xlink:href="#aN"/></g><path d="M383-449c-3-277 82-343 222-425 88-53 156-134 156-250 0-139-108-227-243-227-118 0-235 70-246 236H82c10-251 200-395 436-395 259 0 427 165 427 393 0 161-74 273-203 352-132 80-180 132-178 316H383zm93 462c-75 0-135-60-135-134 0-75 60-135 135-135 74 0 134 60 134 135 0 74-60 134-134 134" id="aW"/><g id="z"><use transform="matrix(0.006510416666666667,0,0,0.006510416666666667,0,0)" xlink:href="#aN"/><use transform="matrix(0.006510416666666667,0,0,0.006510416666666667,7.994791666666667,0)" xlink:href="#aS"/><use transform="matrix(0.006510416666666667,0,0,0.006510416666666667,12.408854166666668,0)" xlink:href="#aS"/><use transform="matrix(0.006510416666666667,0,0,0.006510416666666667,17.34375,0)" xlink:href="#aW"/></g><path fill="#333" d="M601 0v-560L49-1490h357l252 464c38 68 67 130 97 208 96-243 225-446 337-672h356L905-560V0H601" id="aX"/><path fill="#333" d="M633 22C291 22 81-200 81-553c0-345 210-579 537-579 292 0 525 185 525 567v84H378c7 183 109 277 260 277 105 0 184-46 216-132l272 51C1071-99 893 22 633 22zM380-669h474c-15-146-94-237-233-237-143 0-229 99-241 237" id="aY"/><path fill="#333" d="M572 22C302 22 117-98 78-306l279-48c29 105 101 156 224 156 114 0 185-48 185-115 0-118-228-130-337-155-215-49-322-150-322-317 0-215 187-347 470-347 265 0 424 116 466 298l-266 47c-24-76-87-130-196-130-98 0-174 46-174 113 0 56 38 95 144 117l201 40c216 44 320 143 320 302 0 220-207 367-500 367" id="aZ"/><g id="A"><use transform="matrix(0.008680555555555556,0,0,0.008680555555555556,0,0)" xlink:href="#aX"/><use transform="matrix(0.008680555555555556,0,0,0.008680555555555556,11.050347222222223,0)" xlink:href="#aY"/><use transform="matrix(0.008680555555555556,0,0,0.008680555555555556,21.640625,0)" xlink:href="#aZ"/></g><path d="M180 0v-1490h190v644h782v-644h190V0h-190v-678H370V0H180" id="ba"/><g id="B"><use transform="matrix(0.006510416666666667,0,0,0.006510416666666667,0,0)" xlink:href="#ba"/><use transform="matrix(0.006510416666666667,0,0,0.006510416666666667,9.908854166666668,0)" xlink:href="#aJ"/><use transform="matrix(0.006510416666666667,0,0,0.006510416666666667,17.395833333333336,0)" xlink:href="#aD"/></g><g id="C"><use transform="matrix(0.006510416666666667,0,0,0.006510416666666667,0,0)" xlink:href="#aM"/><use transform="matrix(0.006510416666666667,0,0,0.006510416666666667,3.229166666666667,0)" xlink:href="#aE"/></g><path d="M677 24c-213 0-288-135-325-197h-20V0H158v-1490h180v551h14c37-59 106-193 324-193 279 0 474 222 474 576 0 356-194 580-473 580zm-27-161c209 0 317-186 317-421 0-232-105-413-317-413-206 0-314 166-314 413 0 249 111 421 314 421" id="bb"/><g id="D"><use transform="matrix(0.006510416666666667,0,0,0.006510416666666667,0,0)" xlink:href="#bb"/><use transform="matrix(0.006510416666666667,0,0,0.006510416666666667,8.1640625,0)" xlink:href="#aG"/><use transform="matrix(0.006510416666666667,0,0,0.006510416666666667,15.9375,0)" xlink:href="#aG"/><use transform="matrix(0.006510416666666667,0,0,0.006510416666666667,23.7109375,0)" xlink:href="#aR"/></g><path d="M409 0L70-1118h191c89 329 165 560 243 925 75-353 154-601 240-925h192c85 325 161 564 235 922 77-354 157-598 244-922h191L1267 0h-179c-86-307-176-590-250-913C763-588 675-308 588 0H409" id="bc"/><g id="E"><use transform="matrix(0.006510416666666667,0,0,0.006510416666666667,0,0)" xlink:href="#aS"/><use transform="matrix(0.006510416666666667,0,0,0.006510416666666667,4.544270833333334,0)" xlink:href="#aG"/><use transform="matrix(0.006510416666666667,0,0,0.006510416666666667,12.076822916666668,0)" xlink:href="#bc"/><use transform="matrix(0.006510416666666667,0,0,0.006510416666666667,22.747395833333336,0)" xlink:href="#aG"/><use transform="matrix(0.006510416666666667,0,0,0.006510416666666667,30.520833333333336,0)" xlink:href="#aI"/></g><g id="F"><use transform="matrix(0.006510416666666667,0,0,0.006510416666666667,0,0)" xlink:href="#aE"/><use transform="matrix(0.006510416666666667,0,0,0.006510416666666667,4.361979166666667,0)" xlink:href="#aF"/><use transform="matrix(0.006510416666666667,0,0,0.006510416666666667,12.24609375,0)" xlink:href="#aJ"/><use transform="matrix(0.006510416666666667,0,0,0.006510416666666667,19.733072916666668,0)" xlink:href="#aR"/></g><path d="M653-1490V0H466v-1314h-10L96-1047v-204l324-239h233" id="bd"/><path d="M633 20c-303 0-511-173-511-416 0-188 124-348 291-378v-8c-145-37-237-174-237-332 0-227 192-396 457-396 261 0 456 169 456 396 0 158-94 295-235 332v8c162 30 291 190 291 378 0 243-212 416-512 416zm0-165c197 0 322-103 322-261 0-165-138-283-322-283-188 0-324 118-324 283 0 158 123 261 324 261zm0-703c157 0 272-101 272-252 0-149-110-246-272-246-165 0-273 97-273 246 0 151 112 252 273 252" id="be"/><path d="M646 20c-332 0-524-278-524-764 0-483 194-766 524-766s524 283 524 766c0 485-191 764-524 764zm0-166c218 0 341-220 341-598 0-380-123-601-341-601s-341 222-341 601c0 378 123 598 341 598" id="bf"/><g id="G"><use transform="matrix(0.006510416666666667,0,0,0.006510416666666667,0,0)" xlink:href="#bd"/><use transform="matrix(0.006510416666666667,0,0,0.006510416666666667,5.423177083333334,0)" xlink:href="#be"/><use transform="matrix(0.006510416666666667,0,0,0.006510416666666667,13.671875,0)" xlink:href="#bf"/></g><path d="M140 405l46-156c120 36 205 19 263-150l32-93L54-1118h197c107 313 237 620 324 950 87-331 219-637 326-950h196L606 167c-68 178-176 259-334 259-64 0-113-12-132-21" id="bg"/><g id="H"><use transform="matrix(0.006510416666666667,0,0,0.006510416666666667,0,0)" xlink:href="#aO"/><use transform="matrix(0.006510416666666667,0,0,0.006510416666666667,8.1640625,0)" xlink:href="#aJ"/><use transform="matrix(0.006510416666666667,0,0,0.006510416666666667,15.455729166666668,0)" xlink:href="#bg"/><use transform="matrix(0.006510416666666667,0,0,0.006510416666666667,22.94921875,0)" xlink:href="#aD"/></g><g id="I"><use transform="matrix(0.006510416666666667,0,0,0.006510416666666667,0,0)" xlink:href="#aD"/><use transform="matrix(0.006510416666666667,0,0,0.006510416666666667,7.037760416666667,0)" xlink:href="#aM"/><use transform="matrix(0.006510416666666667,0,0,0.006510416666666667,10.266927083333334,0)" xlink:href="#aR"/><use transform="matrix(0.006510416666666667,0,0,0.006510416666666667,18.14453125,0)" xlink:href="#aK"/><use transform="matrix(0.006510416666666667,0,0,0.006510416666666667,25.76171875,0)" xlink:href="#aG"/></g><g id="J"><use transform="matrix(0.006510416666666667,0,0,0.006510416666666667,0,0)" xlink:href="#aO"/><use transform="matrix(0.006510416666666667,0,0,0.006510416666666667,8.1640625,0)" xlink:href="#aM"/><use transform="matrix(0.006510416666666667,0,0,0.006510416666666667,11.393229166666668,0)" xlink:href="#aI"/><use transform="matrix(0.006510416666666667,0,0,0.006510416666666667,16.19140625,0)" xlink:href="#aG"/><use transform="matrix(0.006510416666666667,0,0,0.006510416666666667,23.96484375,0)" xlink:href="#aK"/><use transform="matrix(0.006510416666666667,0,0,0.006510416666666667,31.58203125,0)" xlink:href="#aE"/><use transform="matrix(0.006510416666666667,0,0,0.006510416666666667,35.944010416666664,0)" xlink:href="#aM"/><use transform="matrix(0.006510416666666667,0,0,0.006510416666666667,39.17317708333333,0)" xlink:href="#aP"/><use transform="matrix(0.006510416666666667,0,0,0.006510416666666667,46.40625,0)" xlink:href="#aG"/></g><g id="K"><use transform="matrix(0.006510416666666667,0,0,0.006510416666666667,0,0)" xlink:href="#bc"/><use transform="matrix(0.006510416666666667,0,0,0.006510416666666667,10.911458333333334,0)" xlink:href="#aJ"/><use transform="matrix(0.006510416666666667,0,0,0.006510416666666667,18.3984375,0)" xlink:href="#aD"/></g><g id="L"><use transform="matrix(0.006510416666666667,0,0,0.006510416666666667,0,0)" xlink:href="#aN"/><use transform="matrix(0.006510416666666667,0,0,0.006510416666666667,7.994791666666667,0)" xlink:href="#aI"/></g><g id="M"><use transform="matrix(0.006510416666666667,0,0,0.006510416666666667,0,0)" xlink:href="#aE"/><use transform="matrix(0.006510416666666667,0,0,0.006510416666666667,4.361979166666667,0)" xlink:href="#aF"/><use transform="matrix(0.006510416666666667,0,0,0.006510416666666667,12.24609375,0)" xlink:href="#aG"/></g><g id="N"><use transform="matrix(0.006510416666666667,0,0,0.006510416666666667,0,0)" xlink:href="#aU"/><use transform="matrix(0.006510416666666667,0,0,0.006510416666666667,3.229166666666667,0)" xlink:href="#aJ"/><use transform="matrix(0.006510416666666667,0,0,0.006510416666666667,10.716145833333334,0)" xlink:href="#aD"/><use transform="matrix(0.006510416666666667,0,0,0.006510416666666667,17.75390625,0)" xlink:href="#aE"/></g><path d="M537 14c-226 0-379-139-379-422v-710h180v695c0 172 97 275 253 275 160 0 281-109 281-300v-670h181V0H879v-209C806-46 684 14 537 14" id="bh"/><g id="O"><use transform="matrix(0.006510416666666667,0,0,0.006510416666666667,0,0)" xlink:href="#aD"/><use transform="matrix(0.006510416666666667,0,0,0.006510416666666667,7.037760416666667,0)" xlink:href="#bh"/><use transform="matrix(0.006510416666666667,0,0,0.006510416666666667,14.921875,0)" xlink:href="#aK"/><use transform="matrix(0.006510416666666667,0,0,0.006510416666666667,22.5390625,0)" xlink:href="#aK"/><use transform="matrix(0.006510416666666667,0,0,0.006510416666666667,30.15625,0)" xlink:href="#aG"/><use transform="matrix(0.006510416666666667,0,0,0.006510416666666667,37.9296875,0)" xlink:href="#aD"/><use transform="matrix(0.006510416666666667,0,0,0.006510416666666667,44.967447916666664,0)" xlink:href="#aD"/><use transform="matrix(0.006510416666666667,0,0,0.006510416666666667,52.00520833333333,0)" xlink:href="#aS"/><use transform="matrix(0.006510416666666667,0,0,0.006510416666666667,56.94010416666667,0)" xlink:href="#bh"/><use transform="matrix(0.006510416666666667,0,0,0.006510416666666667,64.82421875,0)" xlink:href="#aU"/></g><g id="P"><use transform="matrix(0.006510416666666667,0,0,0.006510416666666667,0,0)" xlink:href="#aI"/><use transform="matrix(0.006510416666666667,0,0,0.006510416666666667,4.798177083333333,0)" xlink:href="#aG"/><use transform="matrix(0.006510416666666667,0,0,0.006510416666666667,12.571614583333332,0)" xlink:href="#aL"/><use transform="matrix(0.006510416666666667,0,0,0.006510416666666667,20.735677083333332,0)" xlink:href="#aN"/><use transform="matrix(0.006510416666666667,0,0,0.006510416666666667,28.73046875,0)" xlink:href="#aI"/><use transform="matrix(0.006510416666666667,0,0,0.006510416666666667,33.95833333333333,0)" xlink:href="#aE"/><use transform="matrix(0.006510416666666667,0,0,0.006510416666666667,38.32031249999999,0)" xlink:href="#aW"/></g><path fill="#3a414a" d="M49 0l509-1490h400L1480 0h-339l-115-346H497L386 0H49zm524-585h374c-75-213-124-402-192-666-66 268-110 453-182 666" id="bi"/><use transform="matrix(0.010850694444444444,0,0,0.010850694444444444,0,0)" xlink:href="#bi" id="Q"/><g id="R"><use transform="matrix(0.006944444444444445,0,0,0.006944444444444445,0,0)" xlink:href="#ac"/><use transform="matrix(0.006944444444444445,0,0,0.006944444444444445,7.506944444444445,0)" xlink:href="#ak"/><use transform="matrix(0.006944444444444445,0,0,0.006944444444444445,12.020833333333332,0)" xlink:href="#ah"/><use transform="matrix(0.006944444444444445,0,0,0.006944444444444445,20.54861111111111,0)" xlink:href="#ao"/><use transform="matrix(0.006944444444444445,0,0,0.006944444444444445,29.25694444444444,0)" xlink:href="#ac"/></g><g id="S"><use transform="matrix(0.006944444444444445,0,0,0.006944444444444445,0,0)" xlink:href="#ao"/><use transform="matrix(0.006944444444444445,0,0,0.006944444444444445,8.708333333333334,0)" xlink:href="#an"/><use transform="matrix(0.006944444444444445,0,0,0.006944444444444445,13.82638888888889,0)" xlink:href="#ah"/><use transform="matrix(0.006944444444444445,0,0,0.006944444444444445,22.354166666666668,0)" xlink:href="#ag"/><use transform="matrix(0.006944444444444445,0,0,0.006944444444444445,30.479166666666668,0)" xlink:href="#aj"/><use transform="matrix(0.006944444444444445,0,0,0.006944444444444445,38.770833333333336,0)" xlink:href="#ac"/><use transform="matrix(0.006944444444444445,0,0,0.006944444444444445,46.27777777777778,0)" xlink:href="#ac"/><use transform="matrix(0.006944444444444445,0,0,0.006944444444444445,53.78472222222222,0)" xlink:href="#ap"/><use transform="matrix(0.006944444444444445,0,0,0.006944444444444445,57.22916666666666,0)" xlink:href="#ai"/><use transform="matrix(0.006944444444444445,0,0,0.006944444444444445,65.63194444444444,0)" xlink:href="#aq"/></g><path fill="#282c33" d="M678-1118v154H420V0H240v-964H20v-154h220v-149c0-194 155-293 318-293 85 0 141 18 168 30l-50 154c-19-6-47-17-97-17-111 0-159 58-159 166v109h258" id="bj"/><g id="T"><use transform="matrix(0.006944444444444445,0,0,0.006944444444444445,0,0)" xlink:href="#ak"/><use transform="matrix(0.006944444444444445,0,0,0.006944444444444445,4.652777777777778,0)" xlink:href="#an"/><use transform="matrix(0.006944444444444445,0,0,0.006944444444444445,10.006944444444445,0)" xlink:href="#am"/><use transform="matrix(0.006944444444444445,0,0,0.006944444444444445,17.993055555555557,0)" xlink:href="#bj"/><use transform="matrix(0.006944444444444445,0,0,0.006944444444444445,22.70138888888889,0)" xlink:href="#bj"/><use transform="matrix(0.006944444444444445,0,0,0.006944444444444445,27.96527777777778,0)" xlink:href="#ap"/><use transform="matrix(0.006944444444444445,0,0,0.006944444444444445,31.409722222222225,0)" xlink:href="#ag"/><use transform="matrix(0.006944444444444445,0,0,0.006944444444444445,39.53472222222222,0)" xlink:href="#az"/></g><g id="U"><use transform="matrix(0.006510416666666667,0,0,0.006510416666666667,0,0)" xlink:href="#ba"/><use transform="matrix(0.006510416666666667,0,0,0.006510416666666667,9.908854166666668,0)" xlink:href="#aJ"/><use transform="matrix(0.006510416666666667,0,0,0.006510416666666667,17.395833333333336,0)" xlink:href="#aD"/></g><g id="V"><use transform="matrix(0.006510416666666667,0,0,0.006510416666666667,0,0)" xlink:href="#aM"/><use transform="matrix(0.006510416666666667,0,0,0.006510416666666667,3.229166666666667,0)" xlink:href="#aR"/><use transform="matrix(0.006510416666666667,0,0,0.006510416666666667,11.106770833333334,0)" xlink:href="#aM"/><use transform="matrix(0.006510416666666667,0,0,0.006510416666666667,14.3359375,0)" xlink:href="#aE"/><use transform="matrix(0.006510416666666667,0,0,0.006510416666666667,18.697916666666668,0)" xlink:href="#aM"/><use transform="matrix(0.006510416666666667,0,0,0.006510416666666667,21.927083333333336,0)" xlink:href="#aJ"/><use transform="matrix(0.006510416666666667,0,0,0.006510416666666667,29.4140625,0)" xlink:href="#aU"/></g><g id="W"><use transform="matrix(0.006510416666666667,0,0,0.006510416666666667,0,0)" xlink:href="#aI"/><use transform="matrix(0.006510416666666667,0,0,0.006510416666666667,4.798177083333333,0)" xlink:href="#aG"/><use transform="matrix(0.006510416666666667,0,0,0.006510416666666667,12.571614583333332,0)" xlink:href="#aL"/><use transform="matrix(0.006510416666666667,0,0,0.006510416666666667,20.735677083333332,0)" xlink:href="#aN"/><use transform="matrix(0.006510416666666667,0,0,0.006510416666666667,28.73046875,0)" xlink:href="#aI"/><use transform="matrix(0.006510416666666667,0,0,0.006510416666666667,33.95833333333333,0)" xlink:href="#aE"/></g><g id="X"><use transform="matrix(0.006510416666666667,0,0,0.006510416666666667,0,0)" xlink:href="#aG"/><use transform="matrix(0.006510416666666667,0,0,0.006510416666666667,7.513020833333334,0)" xlink:href="#aP"/><use transform="matrix(0.006510416666666667,0,0,0.006510416666666667,14.74609375,0)" xlink:href="#aG"/><use transform="matrix(0.006510416666666667,0,0,0.006510416666666667,22.51953125,0)" xlink:href="#aI"/></g><g id="Y"><use transform="matrix(0.006510416666666667,0,0,0.006510416666666667,0,0)" xlink:href="#aD"/><use transform="matrix(0.006510416666666667,0,0,0.006510416666666667,7.037760416666667,0)" xlink:href="#aG"/><use transform="matrix(0.006510416666666667,0,0,0.006510416666666667,14.811197916666668,0)" xlink:href="#aR"/><use transform="matrix(0.006510416666666667,0,0,0.006510416666666667,22.688802083333336,0)" xlink:href="#aE"/></g><g id="Z"><use transform="matrix(0.006510416666666667,0,0,0.006510416666666667,0,0)" xlink:href="#aD"/><use transform="matrix(0.006510416666666667,0,0,0.006510416666666667,7.037760416666667,0)" xlink:href="#bh"/><use transform="matrix(0.006510416666666667,0,0,0.006510416666666667,14.921875,0)" xlink:href="#aK"/><use transform="matrix(0.006510416666666667,0,0,0.006510416666666667,22.5390625,0)" xlink:href="#aK"/><use transform="matrix(0.006510416666666667,0,0,0.006510416666666667,30.15625,0)" xlink:href="#aG"/><use transform="matrix(0.006510416666666667,0,0,0.006510416666666667,37.9296875,0)" xlink:href="#aD"/><use transform="matrix(0.006510416666666667,0,0,0.006510416666666667,44.967447916666664,0)" xlink:href="#aD"/><use transform="matrix(0.006510416666666667,0,0,0.006510416666666667,52.00520833333333,0)" xlink:href="#aS"/><use transform="matrix(0.006510416666666667,0,0,0.006510416666666667,56.94010416666667,0)" xlink:href="#bh"/><use transform="matrix(0.006510416666666667,0,0,0.006510416666666667,64.82421875,0)" xlink:href="#aU"/><use transform="matrix(0.006510416666666667,0,0,0.006510416666666667,68.05338541666667,0)" xlink:href="#aU"/><use transform="matrix(0.006510416666666667,0,0,0.006510416666666667,71.34765625000001,0)" xlink:href="#bg"/><use transform="matrix(0.006510416666666667,0,0,0.006510416666666667,78.84114583333334,0)" xlink:href="#aW"/></g></defs></g></svg>