<svg xmlns="http://www.w3.org/2000/svg" xmlns:xlink="http://www.w3.org/1999/xlink" xmlns:lucid="lucid" viewBox="0 0 933.83 797"><g transform="translate(-9.083333333333485 99.33333333333331)" lucid:page-tab-id="0_0"><path d="M88.9-95.8a8.2 8.2 0 0 1 9.7 0l74.98 54.92a4.4 4.4 0 0 1 0 7.1l-75 54.9a8.2 8.2 0 0 1-9.67 0l-74.98-54.9a4.4 4.4 0 0 1 0-7.1z" stroke="#282c33" stroke-width="2" fill="#fff"/><use xlink:href="#a" transform="matrix(1,0,0,1,14.083333333333485,-94.33333333333331) translate(50.90669270833334 45.26041666666667)"/><use xlink:href="#b" transform="matrix(1,0,0,1,14.083333333333485,-94.33333333333331) translate(65.27518229166667 45.26041666666667)"/><use xlink:href="#c" transform="matrix(1,0,0,1,14.083333333333485,-94.33333333333331) translate(101.616328125 45.26041666666667)"/><use xlink:href="#d" transform="matrix(1,0,0,1,14.083333333333485,-94.33333333333331) translate(12.30773437499999 61.39322916666667)"/><use xlink:href="#e" transform="matrix(1,0,0,1,14.083333333333485,-94.33333333333331) translate(60.59549479166666 61.39322916666667)"/><use xlink:href="#f" transform="matrix(1,0,0,1,14.083333333333485,-94.33333333333331) translate(80.217890625 61.39322916666667)"/><use xlink:href="#g" transform="matrix(1,0,0,1,14.083333333333485,-94.33333333333331) translate(103.987421875 61.39322916666667)"/><use xlink:href="#h" transform="matrix(1,0,0,1,14.083333333333485,-94.33333333333331) translate(49.93338541666667 77.52604166666667)"/><path d="M356.54-37.73l1 .24.93.4.86.53.78.66.67.76.53.87.4.94.23.98.07 1V129.2h-.95V-31.3l-.07-.9-.2-.84-.33-.8-.45-.74-.57-.66-.66-.56-.73-.46-.8-.33-.85-.2-.9-.06h-99.2v-.95h99.25zm-179.66.87v-.95h47.82v.94z" stroke="#000" stroke-width=".05"/><path d="M176.9-36.86h-.57l.05-.47-.05-.48h.56z"/><path stroke="#000" stroke-width=".05"/><path d="M361.53 143.96l-4.64-14.27h9.26z"/><path d="M361.53 145.5l-5.3-16.28h10.6zm-3.98-15.33l3.98 12.25 3.98-12.25z" stroke="#000" stroke-width=".05"/><use xlink:href="#i" transform="matrix(1,0,0,1,224.70138880555552,-48.08854166666663) translate(0 17.22222222222222)"/><path d="M356.63 148.14a8.47 8.47 0 0 1 9.8 0l74.87 53.06a4.25 4.25 0 0 1 0 6.94l-74.88 53.06a8.47 8.47 0 0 1-9.8 0l-74.86-53.06a4.25 4.25 0 0 1 0-6.94z" stroke="#282c33" stroke-width="2" fill="#fff"/><use xlink:href="#j" transform="matrix(1,0,0,1,281.8611111111113,149.66666666666674) translate(43.948359374999995 36.97916666666667)"/><use xlink:href="#k" transform="matrix(1,0,0,1,281.8611111111113,149.66666666666674) translate(72.131953125 36.97916666666667)"/><use xlink:href="#l" transform="matrix(1,0,0,1,281.8611111111113,149.66666666666674) translate(83.47309895833334 36.97916666666667)"/><use xlink:href="#m" transform="matrix(1,0,0,1,281.8611111111113,149.66666666666674) translate(27.91190104166666 53.11197916666667)"/><use xlink:href="#n" transform="matrix(1,0,0,1,281.8611111111113,149.66666666666674) translate(78.54341145833334 53.11197916666667)"/><use xlink:href="#o" transform="matrix(1,0,0,1,281.8611111111113,149.66666666666674) translate(99.85200520833334 53.11197916666667)"/><use xlink:href="#p" transform="matrix(1,0,0,1,281.8611111111113,149.66666666666674) translate(65.69966145833334 69.24479166666667)"/><use xlink:href="#q" transform="matrix(1,0,0,1,281.8611111111113,149.66666666666674) translate(50.88846354166666 85.37760416666667)"/><use xlink:href="#r" transform="matrix(1,0,0,1,281.8611111111113,149.66666666666674) translate(71.31815104166665 85.37760416666667)"/><path d="M13.75 366.67a6 6 0 0 1 6-6h148a6 6 0 0 1 6 6v108a6 6 0 0 1-6 6h-148a6 6 0 0 1-6-6z" stroke="#282c33" stroke-width="2" fill="#fff"/><path d="M29.75 360.67v120m128-120v120" stroke="#282c33" stroke-width="2" fill="none"/><use xlink:href="#s" transform="matrix(1,0,0,1,38.750000000000114,365.6666666666667) translate(0 27.584635416666668)"/><use xlink:href="#t" transform="matrix(1,0,0,1,38.750000000000114,365.6666666666667) translate(31.588541666666668 27.584635416666668)"/><use xlink:href="#u" transform="matrix(1,0,0,1,38.750000000000114,365.6666666666667) translate(46.4453125 27.584635416666668)"/><use xlink:href="#v" transform="matrix(1,0,0,1,38.750000000000114,365.6666666666667) translate(62.421875 27.584635416666668)"/><use xlink:href="#w" transform="matrix(1,0,0,1,38.750000000000114,365.6666666666667) translate(0 43.71744791666667)"/><use xlink:href="#x" transform="matrix(1,0,0,1,38.750000000000114,365.6666666666667) translate(27.278645833333336 43.71744791666667)"/><use xlink:href="#y" transform="matrix(1,0,0,1,38.750000000000114,365.6666666666667) translate(0 59.85026041666667)"/><use xlink:href="#z" transform="matrix(1,0,0,1,38.750000000000114,365.6666666666667) translate(23.76953125 59.85026041666667)"/><use xlink:href="#A" transform="matrix(1,0,0,1,38.750000000000114,365.6666666666667) translate(0 75.98307291666667)"/><use xlink:href="#B" transform="matrix(1,0,0,1,38.750000000000114,365.6666666666667) translate(33.157552083333336 75.98307291666667)"/><use xlink:href="#C" transform="matrix(1,0,0,1,38.750000000000114,365.6666666666667) translate(0 92.11588541666667)"/><path d="M93.75 482.17v77.1" stroke="#3a414a" fill="none"/><path d="M94.22 482.18h-.94v-.5h.94z" stroke="#3a414a" stroke-width=".05" fill="#3a414a"/><path d="M93.75 574.05l-4.64-14.27h9.3z" stroke="#3a414a" fill="#3a414a"/><path d="M13.75 582.67a6 6 0 0 1 6-6h148a6 6 0 0 1 6 6v108a6 6 0 0 1-6 6h-148a6 6 0 0 1-6-6z" stroke="#282c33" stroke-width="2" fill="#fff"/><path d="M29.75 576.67v120m128-120v120" stroke="#282c33" stroke-width="2" fill="none"/><use xlink:href="#D" transform="matrix(1,0,0,1,38.750000000000114,581.6666666666667) translate(0 34.36111111111111)"/><use xlink:href="#E" transform="matrix(1,0,0,1,38.750000000000114,581.6666666666667) translate(39.34027777777778 34.36111111111111)"/><use xlink:href="#F" transform="matrix(1,0,0,1,38.750000000000114,581.6666666666667) translate(0 51.56944444444444)"/><use xlink:href="#G" transform="matrix(1,0,0,1,38.750000000000114,581.6666666666667) translate(51.50694444444444 51.56944444444444)"/><use xlink:href="#E" transform="matrix(1,0,0,1,38.750000000000114,581.6666666666667) translate(68.54861111111111 51.56944444444444)"/><use xlink:href="#H" transform="matrix(1,0,0,1,38.750000000000114,581.6666666666667) translate(0 68.77777777777777)"/><use xlink:href="#I" transform="matrix(1,0,0,1,38.750000000000114,581.6666666666667) translate(0 85.98611111111111)"/><path d="M175.25 636.67H327.3a6 6 0 0 0 6-6v-368.4" stroke="#3a414a" fill="none"/><path d="M175.26 637.14h-.5v-.95h.5z" stroke="#3a414a" stroke-width=".05" fill="#3a414a"/><path d="M333.3 247.5l4.64 14.28h-9.27z" stroke="#3a414a" fill="#3a414a"/><path d="M390.23 336.15l.06.88.2.84.33.8.45.74.56.67.66.56.74.46.8.32.85.2.87.07h45.72v.94h-45.77l-1-.08-.98-.23-.94-.4-.86-.52-.77-.65-.66-.78-.52-.86-.4-.93-.23-1-.08-1V246.4h.96zm132.36 5.54v.94h-49.5v-.95z" stroke="#e81313" stroke-width=".05" fill="#e81313"/><path d="M390.23 246.4h-.96v-.17l.96-.67z" fill="#e81313"/><path stroke="#e81313" stroke-width=".05" fill="#e81313"/><path d="M537.35 342.17l-14.26 4.63v-9.27z" fill="#e81313"/><path d="M538.9 342.17l-16.3 5.3v-10.6zm-15.34 3.98l12.26-3.98-12.26-4z" stroke="#e81313" stroke-width=".05" fill="#e81313"/><g><use xlink:href="#J" transform="matrix(1,0,0,1,441.4893814938552,331.4114583333334) translate(0 17.22222222222222)"/></g><path d="M941.92 84.67c0 22.1-17.9 40-40 40s-40-17.9-40-40 17.9-40 40-40 40 17.9 40 40z" stroke="#282c33" stroke-width="2" fill="#008a0e"/><g><use xlink:href="#K" transform="matrix(1,0,0,1,866.9166666666665,49.66666666666674) translate(26.70464409722222 43.40277777777778)"/></g><path d="M539.97 269.67a6 6 0 0 1 6-6h201.78a6 6 0 0 1 6 6v145a6 6 0 0 1-6 6H545.97a6 6 0 0 1-6-6z" stroke="#e81313" stroke-width="2" fill="#fff"/><path d="M561.35 263.67v157m171.02-157v157" stroke="#e81313" stroke-width="2" fill="none"/><g><use xlink:href="#L" transform="matrix(1,0,0,1,571.6944444444448,268.6666666666667) translate(0 29.951822916666668)"/><use xlink:href="#M" transform="matrix(1,0,0,1,571.6944444444448,268.6666666666667) translate(46.46484375000001 29.951822916666668)"/><use xlink:href="#N" transform="matrix(1,0,0,1,571.6944444444448,268.6666666666667) translate(75.92447916666669 29.951822916666668)"/><use xlink:href="#O" transform="matrix(1,0,0,1,571.6944444444448,268.6666666666667) translate(91.90104166666669 29.951822916666668)"/><use xlink:href="#P" transform="matrix(1,0,0,1,571.6944444444448,268.6666666666667) translate(124.19270833333336 29.951822916666668)"/><use xlink:href="#Q" transform="matrix(1,0,0,1,571.6944444444448,268.6666666666667) translate(0 46.08463541666667)"/><use xlink:href="#R" transform="matrix(1,0,0,1,571.6944444444448,268.6666666666667) translate(30.188802083333336 46.08463541666667)"/><use xlink:href="#S" transform="matrix(1,0,0,1,571.6944444444448,268.6666666666667) translate(0 62.21744791666667)"/><use xlink:href="#T" transform="matrix(1,0,0,1,571.6944444444448,268.6666666666667) translate(81.11328125 62.21744791666667)"/><use xlink:href="#U" transform="matrix(1,0,0,1,571.6944444444448,268.6666666666667) translate(95.97005208333333 62.21744791666667)"/><use xlink:href="#V" transform="matrix(1,0,0,1,571.6944444444448,268.6666666666667) translate(119.73958333333333 62.21744791666667)"/><use xlink:href="#W" transform="matrix(1,0,0,1,571.6944444444448,268.6666666666667) translate(0 78.35026041666667)"/><use xlink:href="#X" transform="matrix(1,0,0,1,571.6944444444448,268.6666666666667) translate(0 94.48307291666667)"/><use xlink:href="#Y" transform="matrix(1,0,0,1,571.6944444444448,268.6666666666667) translate(45.62500000000001 94.48307291666667)"/><use xlink:href="#Z" transform="matrix(1,0,0,1,571.6944444444448,268.6666666666667) translate(59.86328125000001 94.48307291666667)"/><use xlink:href="#aa" transform="matrix(1,0,0,1,571.6944444444448,268.6666666666667) translate(0 110.61588541666667)"/><use xlink:href="#U" transform="matrix(1,0,0,1,571.6944444444448,268.6666666666667) translate(49.49218749999999 110.61588541666667)"/><use xlink:href="#ab" transform="matrix(1,0,0,1,571.6944444444448,268.6666666666667) translate(73.26171875 110.61588541666667)"/><use xlink:href="#ac" transform="matrix(1,0,0,1,571.6944444444448,268.6666666666667) translate(121.54947916666667 110.61588541666667)"/><use xlink:href="#ad" transform="matrix(1,0,0,1,571.6944444444448,268.6666666666667) translate(0 126.74869791666667)"/><use xlink:href="#ae" transform="matrix(1,0,0,1,571.6944444444448,268.6666666666667) translate(48.157552083333336 126.74869791666667)"/><use xlink:href="#af" transform="matrix(1,0,0,1,571.6944444444448,268.6666666666667) translate(95.40364583333334 126.74869791666667)"/></g><path d="M539.97 30.67a6 6 0 0 1 6-6h201.78a6 6 0 0 1 6 6v108a6 6 0 0 1-6 6H545.97a6 6 0 0 1-6-6z" stroke="#008a0e" stroke-width="2" fill="#fff"/><g><use xlink:href="#ag" transform="matrix(1,0,0,1,544.9722222222225,29.666666666666742) translate(25.625 58.46527777777778)"/><use xlink:href="#ah" transform="matrix(1,0,0,1,544.9722222222225,29.666666666666742) translate(75.1875 58.46527777777778)"/><use xlink:href="#ai" transform="matrix(1,0,0,1,544.9722222222225,29.666666666666742) translate(117 58.46527777777778)"/></g><path d="M755.6 84.67h88.93" stroke="#3a414a" fill="none"/><path d="M755.6 85.14h-.85v-.95h.85z" stroke="#3a414a" stroke-width=".05" fill="#3a414a"/><path d="M859.3 84.67l-14.27 4.63v-9.27z" stroke="#3a414a" fill="#3a414a"/><path d="M521.7 205.14h-77.1v-.95h77.1zm124.67-6.45l-.08.98-.24 1-.4.93-.52.87-.66.78-.77.66-.86.54-.94.4-1 .22-.98.08h-93.76v-.95h93.72l.88-.08.85-.2.8-.33.75-.47.65-.56.57-.66.45-.73.33-.8.2-.84.07-.88v-36.6h.95z" stroke="#008a0e" stroke-width=".05" fill="#008a0e"/><path d="M444.6 205.14h-.55l.05-.47-.05-.48h.56z" fill="#008a0e"/><path stroke="#008a0e" stroke-width=".05" fill="#008a0e"/><path d="M650.53 161.55h-9.27l4.64-14.27z" fill="#008a0e"/><path d="M651.2 162.03h-10.6l5.3-16.28zm-9.28-.96h7.96l-3.98-12.25z" stroke="#008a0e" stroke-width=".05" fill="#008a0e"/><g><use xlink:href="#aj" transform="matrix(1,0,0,1,521.7056499381232,193.9114583333334) translate(0 17.22222222222222)"/></g><path d="M13.75 150.67a6 6 0 0 1 6-6h148a6 6 0 0 1 6 6v108a6 6 0 0 1-6 6h-148a6 6 0 0 1-6-6z" stroke="#e81313" stroke-width="2" fill="#fff"/><g><use xlink:href="#ak" transform="matrix(1,0,0,1,25.750000000000114,156.66666666666674) translate(11.170572916666664 51.91666666666667)"/><use xlink:href="#al" transform="matrix(1,0,0,1,25.750000000000114,156.66666666666674) translate(57.63541666666667 51.91666666666667)"/><use xlink:href="#am" transform="matrix(1,0,0,1,25.750000000000114,156.66666666666674) translate(96.28776041666666 51.91666666666667)"/></g><path d="M94.22 127.28h-.94V94.44h.94zm0-54.35h-.94V24.2h.94z" stroke="#3a414a" stroke-width=".05" fill="#3a414a"/><path d="M93.75 23.7l.47-.02v.54h-.94v-.54z" fill="#3a414a"/><path stroke="#3a414a" stroke-width=".05" fill="#3a414a"/><path d="M93.75 142.05l-4.64-14.27h9.3z" fill="#3a414a"/><path d="M93.75 143.6l-5.3-16.3h10.6zm-3.98-15.34l3.98 12.25 3.98-12.24z" stroke="#3a414a" stroke-width=".05" fill="#3a414a"/><g><use xlink:href="#aj" transform="matrix(1,0,0,1,81.5234375,72.93149661438332) translate(0 17.22222222222222)"/></g><path d="M93.75 266.17v77.1" stroke="#3a414a" fill="none"/><path d="M94.22 266.18h-.94v-.5h.94z" stroke="#3a414a" stroke-width=".05" fill="#3a414a"/><path d="M93.75 358.05l-4.64-14.27h9.3z" stroke="#3a414a" fill="#3a414a"/><defs><path fill="#282c33" d="M370-1490V0H180v-1490h190" id="an"/><path fill="#282c33" d="M538 24C308 24 148-78 108-271l171-41c32 123 123 178 257 178 156 0 256-77 256-169 0-77-54-128-164-154l-186-44c-203-48-300-148-300-305 0-192 176-326 414-326 230 0 351 112 402 269l-163 42c-31-80-94-158-238-158-133 0-233 69-233 162 0 83 57 129 188 160l169 40c203 48 298 149 298 302 0 196-179 339-441 339" id="ao"/><g id="a"><use transform="matrix(0.006510416666666667,0,0,0.006510416666666667,0,0)" xlink:href="#an"/><use transform="matrix(0.006510416666666667,0,0,0.006510416666666667,3.580729166666667,0)" xlink:href="#ao"/></g><path fill="#282c33" d="M598-1118v154H368v674c0 100 37 144 132 144 23 0 62-6 92-12L629-6c-37 13-88 20-134 20-193 0-307-107-307-290v-688H20v-154h168v-266h180v266h230" id="ap"/><path fill="#282c33" d="M338-670V0H158v-1490h180v566c73-149 190-208 336-208 226 0 379 139 379 422V0H872v-695c0-172-96-275-252-275-161 0-282 109-282 300" id="aq"/><path fill="#282c33" d="M628 24c-324 0-524-230-524-574 0-343 198-582 503-582 237 0 487 146 487 559v75H286c9 234 145 362 343 362 132 0 231-58 273-172l174 48C1024-91 857 24 628 24zM287-650h624c-17-190-120-322-304-322-192 0-309 151-320 322" id="ar"/><path fill="#282c33" d="M158 0v-1118h174v172h12c41-113 157-188 290-188 26 0 70 2 91 3v181c-11-2-60-10-108-10-161 0-279 109-279 260V0H158" id="as"/><g id="b"><use transform="matrix(0.006510416666666667,0,0,0.006510416666666667,0,0)" xlink:href="#ap"/><use transform="matrix(0.006510416666666667,0,0,0.006510416666666667,4.361979166666667,0)" xlink:href="#aq"/><use transform="matrix(0.006510416666666667,0,0,0.006510416666666667,12.24609375,0)" xlink:href="#ar"/><use transform="matrix(0.006510416666666667,0,0,0.006510416666666667,20.01953125,0)" xlink:href="#as"/><use transform="matrix(0.006510416666666667,0,0,0.006510416666666667,24.817708333333332,0)" xlink:href="#ar"/></g><path fill="#282c33" d="M471 26C259 26 90-98 90-318c0-256 228-303 435-329 202-27 287-16 287-108 0-139-79-219-234-219-161 0-248 86-283 164l-173-57c86-203 278-265 451-265 150 0 419 46 419 395V0H815v-152h-12C765-73 660 26 471 26zm31-159c199 0 310-134 310-271v-155c-30 35-226 55-295 64-131 17-246 59-246 186 0 116 97 176 231 176" id="at"/><use transform="matrix(0.006510416666666667,0,0,0.006510416666666667,0,0)" xlink:href="#at" id="c"/><path fill="#282c33" d="M338-1490V0H158v-1490h180" id="au"/><path fill="#282c33" d="M158 0v-1118h180V0H158zm91-1301c-68 0-125-53-125-119s57-119 125-119c69 0 126 53 126 119s-57 119-126 119" id="av"/><path fill="#282c33" d="M613 24c-304 0-509-231-509-576 0-350 205-580 509-580 216 0 392 114 453 309l-173 49c-33-115-133-197-280-197-223 0-326 196-326 419 0 220 103 415 326 415 150 0 252-85 285-206l172 49C1010-95 832 24 613 24" id="aw"/><path fill="#282c33" d="M338-670V0H158v-1118h173l1 207c72-158 192-221 342-221 226 0 378 139 378 422V0H872v-695c0-172-96-275-252-275-161 0-282 109-282 300" id="ax"/><g id="d"><use transform="matrix(0.006510416666666667,0,0,0.006510416666666667,0,0)" xlink:href="#au"/><use transform="matrix(0.006510416666666667,0,0,0.006510416666666667,3.229166666666667,0)" xlink:href="#av"/><use transform="matrix(0.006510416666666667,0,0,0.006510416666666667,6.458333333333334,0)" xlink:href="#aw"/><use transform="matrix(0.006510416666666667,0,0,0.006510416666666667,14.075520833333334,0)" xlink:href="#ar"/><use transform="matrix(0.006510416666666667,0,0,0.006510416666666667,21.848958333333336,0)" xlink:href="#ax"/><use transform="matrix(0.006510416666666667,0,0,0.006510416666666667,29.7265625,0)" xlink:href="#ao"/><use transform="matrix(0.006510416666666667,0,0,0.006510416666666667,36.76432291666667,0)" xlink:href="#ar"/></g><path fill="#282c33" d="M613 24c-304 0-509-231-509-576 0-350 205-580 509-580 305 0 511 230 511 580 0 345-206 576-511 576zm0-161c226 0 329-195 329-415 0-222-103-419-329-419-223 0-326 196-326 419 0 220 103 415 326 415" id="ay"/><g id="e"><use transform="matrix(0.006510416666666667,0,0,0.006510416666666667,0,0)" xlink:href="#ay"/><use transform="matrix(0.006510416666666667,0,0,0.006510416666666667,7.994791666666667,0)" xlink:href="#ax"/></g><g id="f"><use transform="matrix(0.006510416666666667,0,0,0.006510416666666667,0,0)" xlink:href="#ap"/><use transform="matrix(0.006510416666666667,0,0,0.006510416666666667,4.361979166666667,0)" xlink:href="#aq"/><use transform="matrix(0.006510416666666667,0,0,0.006510416666666667,12.24609375,0)" xlink:href="#ar"/></g><path fill="#282c33" d="M180 0v-1490h224l606 953c40 63 108 177 176 312-27-437-7-821-13-1265h190V0h-226C860-448 622-778 356-1262c27 476 11 792 15 1262H180" id="az"/><path fill="#282c33" d="M789 20c-398 0-667-293-667-764 0-473 273-766 655-766 315 0 558 198 612 487h-196c-61-191-204-311-415-311-262 0-471 207-471 590 0 380 208 588 482 588 249 0 420-165 425-427H828v-166h572v163c0 370-256 606-611 606" id="aA"/><path fill="#282c33" d="M57 0l534-763-501-727h220c122 187 296 416 391 605 94-191 272-419 396-605h215L811-770 1340 0h-219C986-204 811-426 699-640 588-430 407-202 273 0H57" id="aB"/><g id="g"><use transform="matrix(0.006510416666666667,0,0,0.006510416666666667,0,0)" xlink:href="#az"/><use transform="matrix(0.006510416666666667,0,0,0.006510416666666667,10.045572916666668,0)" xlink:href="#aA"/><use transform="matrix(0.006510416666666667,0,0,0.006510416666666667,19.993489583333336,0)" xlink:href="#an"/><use transform="matrix(0.006510416666666667,0,0,0.006510416666666667,23.574218750000004,0)" xlink:href="#az"/><use transform="matrix(0.006510416666666667,0,0,0.006510416666666667,33.61979166666667,0)" xlink:href="#aB"/></g><path fill="#282c33" d="M383-449c-3-277 82-343 222-425 88-53 156-134 156-250 0-139-108-227-243-227-118 0-235 70-246 236H82c10-251 200-395 436-395 259 0 427 165 427 393 0 161-74 273-203 352-132 80-180 132-178 316H383zm93 462c-75 0-135-60-135-134 0-75 60-135 135-135 74 0 134 60 134 135 0 74-60 134-134 134" id="aC"/><g id="h"><use transform="matrix(0.006510416666666667,0,0,0.006510416666666667,0,0)" xlink:href="#av"/><use transform="matrix(0.006510416666666667,0,0,0.006510416666666667,3.229166666666667,0)" xlink:href="#ax"/><use transform="matrix(0.006510416666666667,0,0,0.006510416666666667,11.106770833333334,0)" xlink:href="#ao"/><use transform="matrix(0.006510416666666667,0,0,0.006510416666666667,18.14453125,0)" xlink:href="#ap"/><use transform="matrix(0.006510416666666667,0,0,0.006510416666666667,22.571614583333336,0)" xlink:href="#at"/><use transform="matrix(0.006510416666666667,0,0,0.006510416666666667,30.05859375,0)" xlink:href="#ax"/><use transform="matrix(0.006510416666666667,0,0,0.006510416666666667,37.93619791666667,0)" xlink:href="#aw"/><use transform="matrix(0.006510416666666667,0,0,0.006510416666666667,45.55338541666667,0)" xlink:href="#ar"/><use transform="matrix(0.006510416666666667,0,0,0.006510416666666667,53.32682291666667,0)" xlink:href="#aC"/></g><path fill="#333" d="M601 0v-560L49-1490h357l252 464c38 68 67 130 97 208 96-243 225-446 337-672h356L905-560V0H601" id="aD"/><path fill="#333" d="M633 22C291 22 81-200 81-553c0-345 210-579 537-579 292 0 525 185 525 567v84H378c7 183 109 277 260 277 105 0 184-46 216-132l272 51C1071-99 893 22 633 22zM380-669h474c-15-146-94-237-233-237-143 0-229 99-241 237" id="aE"/><path fill="#333" d="M572 22C302 22 117-98 78-306l279-48c29 105 101 156 224 156 114 0 185-48 185-115 0-118-228-130-337-155-215-49-322-150-322-317 0-215 187-347 470-347 265 0 424 116 466 298l-266 47c-24-76-87-130-196-130-98 0-174 46-174 113 0 56 38 95 144 117l201 40c216 44 320 143 320 302 0 220-207 367-500 367" id="aF"/><g id="i"><use transform="matrix(0.008680555555555556,0,0,0.008680555555555556,0,0)" xlink:href="#aD"/><use transform="matrix(0.008680555555555556,0,0,0.008680555555555556,11.050347222222223,0)" xlink:href="#aE"/><use transform="matrix(0.008680555555555556,0,0,0.008680555555555556,21.640625,0)" xlink:href="#aF"/></g><path d="M180 0v-1490h190v644h782v-644h190V0h-190v-678H370V0H180" id="aG"/><path d="M471 26C259 26 90-98 90-318c0-256 228-303 435-329 202-27 287-16 287-108 0-139-79-219-234-219-161 0-248 86-283 164l-173-57c86-203 278-265 451-265 150 0 419 46 419 395V0H815v-152h-12C765-73 660 26 471 26zm31-159c199 0 310-134 310-271v-155c-30 35-226 55-295 64-131 17-246 59-246 186 0 116 97 176 231 176" id="aH"/><path d="M538 24C308 24 148-78 108-271l171-41c32 123 123 178 257 178 156 0 256-77 256-169 0-77-54-128-164-154l-186-44c-203-48-300-148-300-305 0-192 176-326 414-326 230 0 351 112 402 269l-163 42c-31-80-94-158-238-158-133 0-233 69-233 162 0 83 57 129 188 160l169 40c203 48 298 149 298 302 0 196-179 339-441 339" id="aI"/><g id="j"><use transform="matrix(0.006510416666666667,0,0,0.006510416666666667,0,0)" xlink:href="#aG"/><use transform="matrix(0.006510416666666667,0,0,0.006510416666666667,9.908854166666668,0)" xlink:href="#aH"/><use transform="matrix(0.006510416666666667,0,0,0.006510416666666667,17.395833333333336,0)" xlink:href="#aI"/></g><path d="M158 0v-1118h180V0H158zm91-1301c-68 0-125-53-125-119s57-119 125-119c69 0 126 53 126 119s-57 119-126 119" id="aJ"/><path d="M598-1118v154H368v674c0 100 37 144 132 144 23 0 62-6 92-12L629-6c-37 13-88 20-134 20-193 0-307-107-307-290v-688H20v-154h168v-266h180v266h230" id="aK"/><g id="k"><use transform="matrix(0.006510416666666667,0,0,0.006510416666666667,0,0)" xlink:href="#aJ"/><use transform="matrix(0.006510416666666667,0,0,0.006510416666666667,3.229166666666667,0)" xlink:href="#aK"/></g><path d="M677 24c-213 0-288-135-325-197h-20V0H158v-1490h180v551h14c37-59 106-193 324-193 279 0 474 222 474 576 0 356-194 580-473 580zm-27-161c209 0 317-186 317-421 0-232-105-413-317-413-206 0-314 166-314 413 0 249 111 421 314 421" id="aL"/><path d="M628 24c-324 0-524-230-524-574 0-343 198-582 503-582 237 0 487 146 487 559v75H286c9 234 145 362 343 362 132 0 231-58 273-172l174 48C1024-91 857 24 628 24zM287-650h624c-17-190-120-322-304-322-192 0-309 151-320 322" id="aM"/><path d="M338-670V0H158v-1118h173l1 207c72-158 192-221 342-221 226 0 378 139 378 422V0H872v-695c0-172-96-275-252-275-161 0-282 109-282 300" id="aN"/><g id="l"><use transform="matrix(0.006510416666666667,0,0,0.006510416666666667,0,0)" xlink:href="#aL"/><use transform="matrix(0.006510416666666667,0,0,0.006510416666666667,8.1640625,0)" xlink:href="#aM"/><use transform="matrix(0.006510416666666667,0,0,0.006510416666666667,15.9375,0)" xlink:href="#aM"/><use transform="matrix(0.006510416666666667,0,0,0.006510416666666667,23.7109375,0)" xlink:href="#aN"/></g><path d="M65 0l393-574-370-544h210c88 136 192 297 267 435 67-142 176-302 264-435h206L661-564 1053 0H844c-94-144-206-310-287-458C484-308 366-142 273 0H65" id="aO"/><path d="M158 418v-1536h174v179h20c37-59 106-193 324-193 279 0 474 222 474 576 0 356-194 580-473 580-213 0-288-135-325-197h-14v591H158zm492-555c209 0 317-186 317-421 0-232-105-413-317-413-206 0-314 166-314 413 0 249 111 421 314 421" id="aP"/><path d="M158 0v-1118h174v172h12c41-113 157-188 290-188 26 0 70 2 91 3v181c-11-2-60-10-108-10-161 0-279 109-279 260V0H158" id="aQ"/><path d="M577 24c-279 0-473-224-473-580 0-354 195-576 474-576 218 0 287 134 324 193h14v-551h180V0H922v-173h-20C865-111 790 24 577 24zm27-161c203 0 314-172 314-421 0-247-108-413-314-413-212 0-317 181-317 413 0 235 108 421 317 421" id="aR"/><g id="m"><use transform="matrix(0.006510416666666667,0,0,0.006510416666666667,0,0)" xlink:href="#aM"/><use transform="matrix(0.006510416666666667,0,0,0.006510416666666667,7.473958333333334,0)" xlink:href="#aO"/><use transform="matrix(0.006510416666666667,0,0,0.006510416666666667,14.752604166666668,0)" xlink:href="#aP"/><use transform="matrix(0.006510416666666667,0,0,0.006510416666666667,22.916666666666668,0)" xlink:href="#aJ"/><use transform="matrix(0.006510416666666667,0,0,0.006510416666666667,26.145833333333336,0)" xlink:href="#aQ"/><use transform="matrix(0.006510416666666667,0,0,0.006510416666666667,30.944010416666668,0)" xlink:href="#aM"/><use transform="matrix(0.006510416666666667,0,0,0.006510416666666667,38.71744791666667,0)" xlink:href="#aR"/></g><path d="M678-1118v154H420V0H240v-964H20v-154h220v-149c0-194 155-293 318-293 85 0 141 18 168 30l-50 154c-19-6-47-17-97-17-111 0-159 58-159 166v109h258" id="aS"/><path d="M613 24c-304 0-509-231-509-576 0-350 205-580 509-580 305 0 511 230 511 580 0 345-206 576-511 576zm0-161c226 0 329-195 329-415 0-222-103-419-329-419-223 0-326 196-326 419 0 220 103 415 326 415" id="aT"/><g id="n"><use transform="matrix(0.006510416666666667,0,0,0.006510416666666667,0,0)" xlink:href="#aS"/><use transform="matrix(0.006510416666666667,0,0,0.006510416666666667,4.544270833333334,0)" xlink:href="#aT"/><use transform="matrix(0.006510416666666667,0,0,0.006510416666666667,12.5390625,0)" xlink:href="#aQ"/></g><path d="M158 0v-1118h175l1 205c55-151 181-225 313-225 147 0 245 90 285 228 53-141 190-228 352-228 194 0 352 125 352 384V0h-181v-749c0-161-105-225-225-225-151 0-243 103-243 244V0H807v-767c0-124-93-207-219-207-131 0-250 92-250 270V0H158" id="aU"/><g id="o"><use transform="matrix(0.006510416666666667,0,0,0.006510416666666667,0,0)" xlink:href="#aU"/><use transform="matrix(0.006510416666666667,0,0,0.006510416666666667,11.6796875,0)" xlink:href="#aT"/><use transform="matrix(0.006510416666666667,0,0,0.006510416666666667,19.674479166666668,0)" xlink:href="#aQ"/><use transform="matrix(0.006510416666666667,0,0,0.006510416666666667,24.47265625,0)" xlink:href="#aM"/></g><path d="M338-670V0H158v-1490h180v566c73-149 190-208 336-208 226 0 379 139 379 422V0H872v-695c0-172-96-275-252-275-161 0-282 109-282 300" id="aV"/><g id="p"><use transform="matrix(0.006510416666666667,0,0,0.006510416666666667,0,0)" xlink:href="#aK"/><use transform="matrix(0.006510416666666667,0,0,0.006510416666666667,4.361979166666667,0)" xlink:href="#aV"/><use transform="matrix(0.006510416666666667,0,0,0.006510416666666667,12.24609375,0)" xlink:href="#aH"/><use transform="matrix(0.006510416666666667,0,0,0.006510416666666667,19.733072916666668,0)" xlink:href="#aN"/></g><path d="M603 20c-253 0-434-161-469-399h188c31 132 124 231 281 231 227 0 367-207 367-568h-12c-80 122-211 199-367 199-257 0-469-206-469-493 0-278 200-505 506-500 245 4 520 158 520 706 0 527-208 824-545 824zm16-703c181 0 324-157 324-332 0-171-135-328-318-328-180 0-317 148-317 332 0 183 131 328 311 328" id="aW"/><path d="M646 20c-332 0-524-278-524-764 0-483 194-766 524-766s524 283 524 766c0 485-191 764-524 764zm0-166c218 0 341-220 341-598 0-380-123-601-341-601s-341 222-341 601c0 378 123 598 341 598" id="aX"/><g id="q"><use transform="matrix(0.006510416666666667,0,0,0.006510416666666667,0,0)" xlink:href="#aW"/><use transform="matrix(0.006510416666666667,0,0,0.006510416666666667,8.268229166666668,0)" xlink:href="#aX"/></g><path d="M140 405l46-156c120 36 205 19 263-150l32-93L54-1118h197c107 313 237 620 324 950 87-331 219-637 326-950h196L606 167c-68 178-176 259-334 259-64 0-113-12-132-21" id="aY"/><path d="M383-449c-3-277 82-343 222-425 88-53 156-134 156-250 0-139-108-227-243-227-118 0-235 70-246 236H82c10-251 200-395 436-395 259 0 427 165 427 393 0 161-74 273-203 352-132 80-180 132-178 316H383zm93 462c-75 0-135-60-135-134 0-75 60-135 135-135 74 0 134 60 134 135 0 74-60 134-134 134" id="aZ"/><g id="r"><use transform="matrix(0.006510416666666667,0,0,0.006510416666666667,0,0)" xlink:href="#aR"/><use transform="matrix(0.006510416666666667,0,0,0.006510416666666667,8.1640625,0)" xlink:href="#aH"/><use transform="matrix(0.006510416666666667,0,0,0.006510416666666667,15.455729166666668,0)" xlink:href="#aY"/><use transform="matrix(0.006510416666666667,0,0,0.006510416666666667,22.94921875,0)" xlink:href="#aI"/><use transform="matrix(0.006510416666666667,0,0,0.006510416666666667,29.986979166666668,0)" xlink:href="#aZ"/></g><path d="M657 26c-323 0-524-166-541-416h195c15 169 171 246 346 246 202 0 356-106 356-265 5-203-294-238-475-293-239-73-380-191-380-389 0-252 224-419 512-419 294 0 499 171 508 396H992c-17-145-151-228-328-228-193 0-321 102-321 242 0 156 175 211 284 241l149 41c160 44 422 134 422 412 0 244-197 432-541 432" id="ba"/><path d="M611 442c-248 0-391-105-460-228l146-94c47 65 117 165 314 165 178 0 307-82 307-266v-224h-17C863-141 792-18 576-18c-268 0-472-195-472-546 0-346 197-568 476-568 216 0 288 133 326 193h17v-179h175V29c0 289-215 413-487 413zm-5-620c203 0 314-146 314-390 0-237-108-403-314-403-213 0-319 180-319 403 0 230 109 390 319 390" id="bb"/><g id="s"><use transform="matrix(0.006510416666666667,0,0,0.006510416666666667,0,0)" xlink:href="#ba"/><use transform="matrix(0.006510416666666667,0,0,0.006510416666666667,8.5546875,0)" xlink:href="#aJ"/><use transform="matrix(0.006510416666666667,0,0,0.006510416666666667,11.783854166666668,0)" xlink:href="#bb"/><use transform="matrix(0.006510416666666667,0,0,0.006510416666666667,19.9609375,0)" xlink:href="#aN"/></g><g id="t"><use transform="matrix(0.006510416666666667,0,0,0.006510416666666667,0,0)" xlink:href="#aJ"/><use transform="matrix(0.006510416666666667,0,0,0.006510416666666667,3.229166666666667,0)" xlink:href="#aN"/></g><g id="u"><use transform="matrix(0.006510416666666667,0,0,0.006510416666666667,0,0)" xlink:href="#aK"/><use transform="matrix(0.006510416666666667,0,0,0.006510416666666667,4.231770833333334,0)" xlink:href="#aT"/></g><path d="M180 0v-1490h270l367 940c28 72 75 218 110 339 35-117 81-264 110-339l362-940h271V0h-187c2-448-5-837 7-1287-157 497-311 829-483 1287H842C666-458 514-784 354-1284c12 438 5 843 7 1284H180" id="bc"/><path d="M180 0v-1490h901v168H370v510h643v168H370V0H180" id="bd"/><path d="M626 20c-262 0-458-168-468-396h184c12 133 134 229 284 229 180 0 311-137 311-326 0-192-136-335-323-335-92 0-196 33-255 78l-178-22 88-738h784v167H429l-51 435h8c61-51 160-87 263-87 273 0 474 211 474 499 0 286-210 496-497 496" id="be"/><g id="v"><use transform="matrix(0.006510416666666667,0,0,0.006510416666666667,0,0)" xlink:href="#bc"/><use transform="matrix(0.006510416666666667,0,0,0.006510416666666667,12.109375,0)" xlink:href="#aY"/><use transform="matrix(0.006510416666666667,0,0,0.006510416666666667,19.66796875,0)" xlink:href="#bd"/><use transform="matrix(0.006510416666666667,0,0,0.006510416666666667,27.5390625,0)" xlink:href="#be"/></g><g id="w"><use transform="matrix(0.006510416666666667,0,0,0.006510416666666667,0,0)" xlink:href="#aH"/><use transform="matrix(0.006510416666666667,0,0,0.006510416666666667,7.486979166666667,0)" xlink:href="#aN"/><use transform="matrix(0.006510416666666667,0,0,0.006510416666666667,15.364583333333334,0)" xlink:href="#aR"/></g><path d="M409 0L70-1118h191c89 329 165 560 243 925 75-353 154-601 240-925h192c85 325 161 564 235 922 77-354 157-598 244-922h191L1267 0h-179c-86-307-176-590-250-913C763-588 675-308 588 0H409" id="bf"/><path d="M338-1490V0H158v-1490h180" id="bg"/><g id="x"><use transform="matrix(0.006510416666666667,0,0,0.006510416666666667,0,0)" xlink:href="#aR"/><use transform="matrix(0.006510416666666667,0,0,0.006510416666666667,8.1640625,0)" xlink:href="#aT"/><use transform="matrix(0.006510416666666667,0,0,0.006510416666666667,15.91796875,0)" xlink:href="#bf"/><use transform="matrix(0.006510416666666667,0,0,0.006510416666666667,26.829427083333336,0)" xlink:href="#aN"/><use transform="matrix(0.006510416666666667,0,0,0.006510416666666667,34.70703125,0)" xlink:href="#bg"/><use transform="matrix(0.006510416666666667,0,0,0.006510416666666667,37.936197916666664,0)" xlink:href="#aT"/><use transform="matrix(0.006510416666666667,0,0,0.006510416666666667,46.061197916666664,0)" xlink:href="#aH"/><use transform="matrix(0.006510416666666667,0,0,0.006510416666666667,53.54817708333332,0)" xlink:href="#aR"/></g><g id="y"><use transform="matrix(0.006510416666666667,0,0,0.006510416666666667,0,0)" xlink:href="#aK"/><use transform="matrix(0.006510416666666667,0,0,0.006510416666666667,4.361979166666667,0)" xlink:href="#aV"/><use transform="matrix(0.006510416666666667,0,0,0.006510416666666667,12.24609375,0)" xlink:href="#aM"/></g><path d="M613 24c-304 0-509-231-509-576 0-350 205-580 509-580 216 0 392 114 453 309l-173 49c-33-115-133-197-280-197-223 0-326 196-326 419 0 220 103 415 326 415 150 0 252-85 285-206l172 49C1010-95 832 24 613 24" id="bh"/><g id="z"><use transform="matrix(0.006510416666666667,0,0,0.006510416666666667,0,0)" xlink:href="#bg"/><use transform="matrix(0.006510416666666667,0,0,0.006510416666666667,3.229166666666667,0)" xlink:href="#aJ"/><use transform="matrix(0.006510416666666667,0,0,0.006510416666666667,6.458333333333334,0)" xlink:href="#bh"/><use transform="matrix(0.006510416666666667,0,0,0.006510416666666667,14.075520833333334,0)" xlink:href="#aM"/><use transform="matrix(0.006510416666666667,0,0,0.006510416666666667,21.848958333333336,0)" xlink:href="#aN"/><use transform="matrix(0.006510416666666667,0,0,0.006510416666666667,29.7265625,0)" xlink:href="#aI"/><use transform="matrix(0.006510416666666667,0,0,0.006510416666666667,36.76432291666667,0)" xlink:href="#aM"/></g><g id="A"><use transform="matrix(0.006510416666666667,0,0,0.006510416666666667,0,0)" xlink:href="#aS"/><use transform="matrix(0.006510416666666667,0,0,0.006510416666666667,4.934895833333334,0)" xlink:href="#aQ"/><use transform="matrix(0.006510416666666667,0,0,0.006510416666666667,9.733072916666668,0)" xlink:href="#aT"/><use transform="matrix(0.006510416666666667,0,0,0.006510416666666667,17.727864583333336,0)" xlink:href="#aU"/></g><path d="M537 14c-226 0-379-139-379-422v-710h180v695c0 172 97 275 253 275 160 0 281-109 281-300v-670h181V0H879v-209C806-46 684 14 537 14" id="bi"/><g id="B"><use transform="matrix(0.006510416666666667,0,0,0.006510416666666667,0,0)" xlink:href="#aY"/><use transform="matrix(0.006510416666666667,0,0,0.006510416666666667,7.233072916666667,0)" xlink:href="#aT"/><use transform="matrix(0.006510416666666667,0,0,0.006510416666666667,15.227864583333334,0)" xlink:href="#bi"/><use transform="matrix(0.006510416666666667,0,0,0.006510416666666667,23.111979166666668,0)" xlink:href="#aQ"/></g><path d="M295 13c-75 0-135-60-135-135s60-135 135-135 135 60 135 135S370 13 295 13" id="bj"/><g id="C"><use transform="matrix(0.006510416666666667,0,0,0.006510416666666667,0,0)" xlink:href="#aI"/><use transform="matrix(0.006510416666666667,0,0,0.006510416666666667,7.037760416666667,0)" xlink:href="#bi"/><use transform="matrix(0.006510416666666667,0,0,0.006510416666666667,14.921875,0)" xlink:href="#aL"/><use transform="matrix(0.006510416666666667,0,0,0.006510416666666667,23.0859375,0)" xlink:href="#aI"/><use transform="matrix(0.006510416666666667,0,0,0.006510416666666667,30.123697916666668,0)" xlink:href="#bh"/><use transform="matrix(0.006510416666666667,0,0,0.006510416666666667,37.74088541666667,0)" xlink:href="#aQ"/><use transform="matrix(0.006510416666666667,0,0,0.006510416666666667,42.96875000000001,0)" xlink:href="#aJ"/><use transform="matrix(0.006510416666666667,0,0,0.006510416666666667,46.19791666666667,0)" xlink:href="#aP"/><use transform="matrix(0.006510416666666667,0,0,0.006510416666666667,54.36197916666667,0)" xlink:href="#aK"/><use transform="matrix(0.006510416666666667,0,0,0.006510416666666667,58.723958333333336,0)" xlink:href="#aJ"/><use transform="matrix(0.006510416666666667,0,0,0.006510416666666667,61.953125,0)" xlink:href="#aT"/><use transform="matrix(0.006510416666666667,0,0,0.006510416666666667,69.94791666666667,0)" xlink:href="#aN"/><use transform="matrix(0.006510416666666667,0,0,0.006510416666666667,77.82552083333334,0)" xlink:href="#bj"/></g><path fill="#282c33" d="M783 20c-382 0-661-292-661-764 0-473 279-766 661-766 302 0 548 182 601 489h-190c-42-204-217-313-411-313-268 0-476 208-476 590 0 381 209 588 476 588 195 0 369-110 411-313h190c-52 303-296 489-601 489" id="bk"/><path fill="#282c33" d="M158 418v-1536h174v179h20c37-59 106-193 324-193 279 0 474 222 474 576 0 356-194 580-473 580-213 0-288-135-325-197h-14v591H158zm492-555c209 0 317-186 317-421 0-232-105-413-317-413-206 0-314 166-314 413 0 249 111 421 314 421" id="bl"/><path fill="#282c33" d="M140 405l46-156c120 36 205 19 263-150l32-93L54-1118h197c107 313 237 620 324 950 87-331 219-637 326-950h196L606 167c-68 178-176 259-334 259-64 0-113-12-132-21" id="bm"/><g id="D"><use transform="matrix(0.006944444444444445,0,0,0.006944444444444445,0,0)" xlink:href="#bk"/><use transform="matrix(0.006944444444444445,0,0,0.006944444444444445,10.38888888888889,0)" xlink:href="#ay"/><use transform="matrix(0.006944444444444445,0,0,0.006944444444444445,18.916666666666668,0)" xlink:href="#bl"/><use transform="matrix(0.006944444444444445,0,0,0.006944444444444445,27.34722222222222,0)" xlink:href="#bm"/></g><g id="E"><use transform="matrix(0.006944444444444445,0,0,0.006944444444444445,0,0)" xlink:href="#ap"/><use transform="matrix(0.006944444444444445,0,0,0.006944444444444445,4.652777777777778,0)" xlink:href="#aq"/><use transform="matrix(0.006944444444444445,0,0,0.006944444444444445,13.0625,0)" xlink:href="#ar"/></g><g id="F"><use transform="matrix(0.006944444444444445,0,0,0.006944444444444445,0,0)" xlink:href="#au"/><use transform="matrix(0.006944444444444445,0,0,0.006944444444444445,3.4444444444444446,0)" xlink:href="#av"/><use transform="matrix(0.006944444444444445,0,0,0.006944444444444445,6.888888888888889,0)" xlink:href="#aw"/><use transform="matrix(0.006944444444444445,0,0,0.006944444444444445,15.01388888888889,0)" xlink:href="#ar"/><use transform="matrix(0.006944444444444445,0,0,0.006944444444444445,23.305555555555557,0)" xlink:href="#ax"/><use transform="matrix(0.006944444444444445,0,0,0.006944444444444445,31.708333333333336,0)" xlink:href="#ao"/><use transform="matrix(0.006944444444444445,0,0,0.006944444444444445,39.21527777777778,0)" xlink:href="#ar"/></g><g id="G"><use transform="matrix(0.006944444444444445,0,0,0.006944444444444445,0,0)" xlink:href="#ap"/><use transform="matrix(0.006944444444444445,0,0,0.006944444444444445,4.513888888888888,0)" xlink:href="#ay"/></g><g id="H"><use transform="matrix(0.006944444444444445,0,0,0.006944444444444445,0,0)" xlink:href="#az"/><use transform="matrix(0.006944444444444445,0,0,0.006944444444444445,10.715277777777779,0)" xlink:href="#aA"/><use transform="matrix(0.006944444444444445,0,0,0.006944444444444445,21.326388888888893,0)" xlink:href="#an"/><use transform="matrix(0.006944444444444445,0,0,0.006944444444444445,25.145833333333336,0)" xlink:href="#az"/><use transform="matrix(0.006944444444444445,0,0,0.006944444444444445,35.861111111111114,0)" xlink:href="#aB"/></g><path fill="#282c33" d="M295 13c-75 0-135-60-135-135s60-135 135-135 135 60 135 135S370 13 295 13" id="bn"/><g id="I"><use transform="matrix(0.006944444444444445,0,0,0.006944444444444445,0,0)" xlink:href="#av"/><use transform="matrix(0.006944444444444445,0,0,0.006944444444444445,3.4444444444444446,0)" xlink:href="#ax"/><use transform="matrix(0.006944444444444445,0,0,0.006944444444444445,11.847222222222223,0)" xlink:href="#ao"/><use transform="matrix(0.006944444444444445,0,0,0.006944444444444445,19.354166666666668,0)" xlink:href="#ap"/><use transform="matrix(0.006944444444444445,0,0,0.006944444444444445,24.07638888888889,0)" xlink:href="#at"/><use transform="matrix(0.006944444444444445,0,0,0.006944444444444445,32.0625,0)" xlink:href="#ax"/><use transform="matrix(0.006944444444444445,0,0,0.006944444444444445,40.46527777777778,0)" xlink:href="#aw"/><use transform="matrix(0.006944444444444445,0,0,0.006944444444444445,48.59027777777778,0)" xlink:href="#ar"/><use transform="matrix(0.006944444444444445,0,0,0.006944444444444445,56.88194444444444,0)" xlink:href="#bn"/></g><path d="M601 0v-560L49-1490h357l252 464c38 68 67 130 97 208 96-243 225-446 337-672h356L905-560V0H601" id="bo"/><path d="M633 22C291 22 81-200 81-553c0-345 210-579 537-579 292 0 525 185 525 567v84H378c7 183 109 277 260 277 105 0 184-46 216-132l272 51C1071-99 893 22 633 22zM380-669h474c-15-146-94-237-233-237-143 0-229 99-241 237" id="bp"/><path d="M572 22C302 22 117-98 78-306l279-48c29 105 101 156 224 156 114 0 185-48 185-115 0-118-228-130-337-155-215-49-322-150-322-317 0-215 187-347 470-347 265 0 424 116 466 298l-266 47c-24-76-87-130-196-130-98 0-174 46-174 113 0 56 38 95 144 117l201 40c216 44 320 143 320 302 0 220-207 367-500 367" id="bq"/><g id="J"><use transform="matrix(0.008680555555555556,0,0,0.008680555555555556,0,0)" xlink:href="#bo"/><use transform="matrix(0.008680555555555556,0,0,0.008680555555555556,11.050347222222223,0)" xlink:href="#bp"/><use transform="matrix(0.008680555555555556,0,0,0.008680555555555556,21.640625,0)" xlink:href="#bq"/></g><path d="M49 0l509-1490h400L1480 0h-339l-115-346H497L386 0H49zm524-585h374c-75-213-124-402-192-666-66 268-110 453-182 666" id="br"/><use transform="matrix(0.010850694444444444,0,0,0.010850694444444444,0,0)" xlink:href="#br" id="K"/><path d="M180 0v-1490h224l606 953c40 63 108 177 176 312-27-437-7-821-13-1265h190V0h-226C860-448 622-778 356-1262c27 476 11 792 15 1262H180" id="bs"/><path d="M789 20c-398 0-667-293-667-764 0-473 273-766 655-766 315 0 558 198 612 487h-196c-61-191-204-311-415-311-262 0-471 207-471 590 0 380 208 588 482 588 249 0 420-165 425-427H828v-166h572v163c0 370-256 606-611 606" id="bt"/><path d="M370-1490V0H180v-1490h190" id="bu"/><path d="M57 0l534-763-501-727h220c122 187 296 416 391 605 94-191 272-419 396-605h215L811-770 1340 0h-219C986-204 811-426 699-640 588-430 407-202 273 0H57" id="bv"/><g id="L"><use transform="matrix(0.006510416666666667,0,0,0.006510416666666667,0,0)" xlink:href="#bs"/><use transform="matrix(0.006510416666666667,0,0,0.006510416666666667,10.045572916666668,0)" xlink:href="#bt"/><use transform="matrix(0.006510416666666667,0,0,0.006510416666666667,19.993489583333336,0)" xlink:href="#bu"/><use transform="matrix(0.006510416666666667,0,0,0.006510416666666667,23.574218750000004,0)" xlink:href="#bs"/><use transform="matrix(0.006510416666666667,0,0,0.006510416666666667,33.61979166666667,0)" xlink:href="#bv"/></g><g id="M"><use transform="matrix(0.006510416666666667,0,0,0.006510416666666667,0,0)" xlink:href="#aS"/><use transform="matrix(0.006510416666666667,0,0,0.006510416666666667,4.726562500000001,0)" xlink:href="#aH"/><use transform="matrix(0.006510416666666667,0,0,0.006510416666666667,12.213541666666668,0)" xlink:href="#aJ"/><use transform="matrix(0.006510416666666667,0,0,0.006510416666666667,15.442708333333337,0)" xlink:href="#bg"/><use transform="matrix(0.006510416666666667,0,0,0.006510416666666667,18.671875000000004,0)" xlink:href="#aI"/></g><g id="N"><use transform="matrix(0.006510416666666667,0,0,0.006510416666666667,0,0)" xlink:href="#aK"/><use transform="matrix(0.006510416666666667,0,0,0.006510416666666667,4.231770833333334,0)" xlink:href="#aT"/></g><g id="O"><use transform="matrix(0.006510416666666667,0,0,0.006510416666666667,0,0)" xlink:href="#aI"/><use transform="matrix(0.006510416666666667,0,0,0.006510416666666667,7.037760416666667,0)" xlink:href="#aK"/><use transform="matrix(0.006510416666666667,0,0,0.006510416666666667,11.46484375,0)" xlink:href="#aH"/><use transform="matrix(0.006510416666666667,0,0,0.006510416666666667,18.951822916666668,0)" xlink:href="#aQ"/><use transform="matrix(0.006510416666666667,0,0,0.006510416666666667,24.1796875,0)" xlink:href="#aK"/></g><g id="P"><use transform="matrix(0.006510416666666667,0,0,0.006510416666666667,0,0)" xlink:href="#aH"/><use transform="matrix(0.006510416666666667,0,0,0.006510416666666667,7.486979166666667,0)" xlink:href="#aN"/><use transform="matrix(0.006510416666666667,0,0,0.006510416666666667,15.364583333333334,0)" xlink:href="#aR"/></g><g id="Q"><use transform="matrix(0.006510416666666667,0,0,0.006510416666666667,0,0)" xlink:href="#bg"/><use transform="matrix(0.006510416666666667,0,0,0.006510416666666667,3.229166666666667,0)" xlink:href="#aT"/><use transform="matrix(0.006510416666666667,0,0,0.006510416666666667,11.223958333333334,0)" xlink:href="#bb"/><use transform="matrix(0.006510416666666667,0,0,0.006510416666666667,19.401041666666668,0)" xlink:href="#aI"/></g><path d="M180 0v-1490h908v168H370v486h669v168H370v500h727V0H180" id="bw"/><path d="M180 0v-1490h510c348 0 508 194 508 460 0 198-88 351-276 417L1256 0h-220L726-579c-117 2-238 0-356 1V0H180zm190-747h312c235 0 327-108 327-283 0-177-92-293-329-293H370v576" id="bx"/><path d="M783 20c-382 0-661-292-661-764 0-473 279-766 661-766 302 0 548 182 601 489h-190c-42-204-217-313-411-313-268 0-476 208-476 590 0 381 209 588 476 588 195 0 369-110 411-313h190c-52 303-296 489-601 489" id="by"/><path d="M600 0v-610L52-1490h220l295 481c50 82 90 150 130 243 40-96 80-164 128-243l294-481h219L790-610V0H600" id="bz"/><g id="R"><use transform="matrix(0.006510416666666667,0,0,0.006510416666666667,0,0)" xlink:href="#bw"/><use transform="matrix(0.006510416666666667,0,0,0.006510416666666667,8.014322916666668,0)" xlink:href="#bc"/><use transform="matrix(0.006510416666666667,0,0,0.006510416666666667,20.05859375,0)" xlink:href="#bw"/><use transform="matrix(0.006510416666666667,0,0,0.006510416666666667,28.072916666666668,0)" xlink:href="#bx"/><use transform="matrix(0.006510416666666667,0,0,0.006510416666666667,36.653645833333336,0)" xlink:href="#bt"/><use transform="matrix(0.006510416666666667,0,0,0.006510416666666667,46.6015625,0)" xlink:href="#bw"/><use transform="matrix(0.006510416666666667,0,0,0.006510416666666667,54.61588541666667,0)" xlink:href="#bs"/><use transform="matrix(0.006510416666666667,0,0,0.006510416666666667,64.66145833333334,0)" xlink:href="#by"/><use transform="matrix(0.006510416666666667,0,0,0.006510416666666667,74.40104166666667,0)" xlink:href="#bz"/></g><g id="S"><use transform="matrix(0.006510416666666667,0,0,0.006510416666666667,0,0)" xlink:href="#aN"/><use transform="matrix(0.006510416666666667,0,0,0.006510416666666667,7.877604166666667,0)" xlink:href="#aT"/><use transform="matrix(0.006510416666666667,0,0,0.006510416666666667,15.872395833333334,0)" xlink:href="#aK"/><use transform="matrix(0.006510416666666667,0,0,0.006510416666666667,20.234375,0)" xlink:href="#aJ"/><use transform="matrix(0.006510416666666667,0,0,0.006510416666666667,23.463541666666668,0)" xlink:href="#aS"/><use transform="matrix(0.006510416666666667,0,0,0.006510416666666667,28.3984375,0)" xlink:href="#aJ"/><use transform="matrix(0.006510416666666667,0,0,0.006510416666666667,31.627604166666668,0)" xlink:href="#bh"/><use transform="matrix(0.006510416666666667,0,0,0.006510416666666667,39.375,0)" xlink:href="#aH"/><use transform="matrix(0.006510416666666667,0,0,0.006510416666666667,46.861979166666664,0)" xlink:href="#aK"/><use transform="matrix(0.006510416666666667,0,0,0.006510416666666667,51.22395833333333,0)" xlink:href="#aJ"/><use transform="matrix(0.006510416666666667,0,0,0.006510416666666667,54.45312499999999,0)" xlink:href="#aT"/><use transform="matrix(0.006510416666666667,0,0,0.006510416666666667,62.44791666666666,0)" xlink:href="#aN"/><use transform="matrix(0.006510416666666667,0,0,0.006510416666666667,70.32552083333333,0)" xlink:href="#aI"/></g><g id="T"><use transform="matrix(0.006510416666666667,0,0,0.006510416666666667,0,0)" xlink:href="#aJ"/><use transform="matrix(0.006510416666666667,0,0,0.006510416666666667,3.229166666666667,0)" xlink:href="#aN"/></g><g id="U"><use transform="matrix(0.006510416666666667,0,0,0.006510416666666667,0,0)" xlink:href="#aK"/><use transform="matrix(0.006510416666666667,0,0,0.006510416666666667,4.361979166666667,0)" xlink:href="#aV"/><use transform="matrix(0.006510416666666667,0,0,0.006510416666666667,12.24609375,0)" xlink:href="#aM"/></g><g id="V"><use transform="matrix(0.006510416666666667,0,0,0.006510416666666667,0,0)" xlink:href="#aM"/><use transform="matrix(0.006510416666666667,0,0,0.006510416666666667,7.7734375,0)" xlink:href="#aQ"/><use transform="matrix(0.006510416666666667,0,0,0.006510416666666667,13.001302083333332,0)" xlink:href="#aQ"/><use transform="matrix(0.006510416666666667,0,0,0.006510416666666667,17.799479166666664,0)" xlink:href="#aT"/><use transform="matrix(0.006510416666666667,0,0,0.006510416666666667,25.794270833333332,0)" xlink:href="#aQ"/></g><g id="W"><use transform="matrix(0.006510416666666667,0,0,0.006510416666666667,0,0)" xlink:href="#bg"/><use transform="matrix(0.006510416666666667,0,0,0.006510416666666667,3.229166666666667,0)" xlink:href="#aT"/><use transform="matrix(0.006510416666666667,0,0,0.006510416666666667,11.223958333333334,0)" xlink:href="#bb"/><use transform="matrix(0.006510416666666667,0,0,0.006510416666666667,19.401041666666668,0)" xlink:href="#bj"/></g><path d="M628 22C291 22 81-210 81-554c0-346 210-578 547-578 265 0 455 142 497 372l-279 52c-25-116-99-188-215-188-160 0-244 139-244 341 0 200 84 341 244 341 116 0 193-74 217-195l279 51C1085-123 896 22 628 22" id="bA"/><path d="M683-1118v229H474v562c0 71 29 104 102 104 23 0 73-7 95-13l43 225C647 9 580 16 520 16 296 16 174-96 174-301v-588H20v-229h154v-266h300v266h209" id="bB"/><path d="M128 0v-1118h300V0H128zm150-1264c-91 0-165-68-165-154 0-85 74-154 165-154 90 0 165 69 165 154 0 86-75 154-165 154" id="bC"/><path d="M628 22C291 22 81-210 81-554c0-346 210-578 547-578 336 0 547 232 547 578 0 344-211 576-547 576zm0-236c160 0 242-146 242-341 0-197-82-341-242-341S387-753 387-555c0 195 81 341 241 341" id="bD"/><path d="M428-647V0H128v-1118h283l4 231c63-156 176-245 348-245 232 0 384 159 384 421V0H847v-659c0-139-76-222-202-222-128 0-217 86-217 234" id="bE"/><g id="X"><use transform="matrix(0.006510416666666667,0,0,0.006510416666666667,0,0)" xlink:href="#br"/><use transform="matrix(0.006510416666666667,0,0,0.006510416666666667,9.6484375,0)" xlink:href="#bA"/><use transform="matrix(0.006510416666666667,0,0,0.006510416666666667,17.493489583333336,0)" xlink:href="#bB"/><use transform="matrix(0.006510416666666667,0,0,0.006510416666666667,22.376302083333336,0)" xlink:href="#bC"/><use transform="matrix(0.006510416666666667,0,0,0.006510416666666667,25.989583333333336,0)" xlink:href="#bD"/><use transform="matrix(0.006510416666666667,0,0,0.006510416666666667,34.16666666666667,0)" xlink:href="#bE"/></g><g id="Y"><use transform="matrix(0.006510416666666667,0,0,0.006510416666666667,0,0)" xlink:href="#bC"/><use transform="matrix(0.006510416666666667,0,0,0.006510416666666667,3.61328125,0)" xlink:href="#bq"/></g><path d="M128 0v-1118h290v195h12c54-169 184-238 367-200v268c-27-8-86-15-130-15-138 0-239 95-239 234V0H128" id="bF"/><path d="M1163 418H863v-597h-10C812-89 719 19 537 19 279 19 81-185 81-557c0-382 206-575 454-575 190 0 278 113 318 202h15v-188h295V418zM629-222c153 0 240-134 240-336 0-203-86-334-240-334-158 0-240 138-240 334 0 197 84 336 240 336" id="bG"/><path d="M513 14c-232 0-385-159-385-421v-711h300v659c0 139 76 222 202 222 127 0 217-86 217-234v-647h301V0H864l-4-232C797-74 683 14 513 14" id="bH"/><path d="M537 19C279 19 81-185 81-557c0-382 206-575 454-575 190 0 278 113 318 202h10v-560h300V0H868v-179h-15C812-89 719 19 537 19zm92-241c153 0 240-134 240-336 0-203-86-334-240-334-158 0-240 138-240 334 0 197 84 336 240 336" id="bI"/><path d="M342-723c-98 0-173-75-173-172s75-172 173-172 173 75 173 172-75 172-173 172zm0 742c-98 0-173-75-173-172s75-172 173-172 173 75 173 172S440 19 342 19" id="bJ"/><g id="Z"><use transform="matrix(0.006510416666666667,0,0,0.006510416666666667,0,0)" xlink:href="#bF"/><use transform="matrix(0.006510416666666667,0,0,0.006510416666666667,5.104166666666667,0)" xlink:href="#bp"/><use transform="matrix(0.006510416666666667,0,0,0.006510416666666667,13.046875,0)" xlink:href="#bG"/><use transform="matrix(0.006510416666666667,0,0,0.006510416666666667,21.451822916666668,0)" xlink:href="#bH"/><use transform="matrix(0.006510416666666667,0,0,0.006510416666666667,29.752604166666668,0)" xlink:href="#bC"/><use transform="matrix(0.006510416666666667,0,0,0.006510416666666667,33.36588541666667,0)" xlink:href="#bF"/><use transform="matrix(0.006510416666666667,0,0,0.006510416666666667,38.470052083333336,0)" xlink:href="#bp"/><use transform="matrix(0.006510416666666667,0,0,0.006510416666666667,46.41276041666667,0)" xlink:href="#bI"/><use transform="matrix(0.006510416666666667,0,0,0.006510416666666667,54.81770833333335,0)" xlink:href="#bJ"/></g><path d="M763 24c-353 0-583-224-583-531v-983h190v968c0 214 149 370 393 370 243 0 391-156 391-370v-968h190v983c0 307-230 531-581 531" id="bK"/><g id="aa"><use transform="matrix(0.006510416666666667,0,0,0.006510416666666667,0,0)" xlink:href="#bK"/><use transform="matrix(0.006510416666666667,0,0,0.006510416666666667,9.921875,0)" xlink:href="#aP"/><use transform="matrix(0.006510416666666667,0,0,0.006510416666666667,18.0859375,0)" xlink:href="#aR"/><use transform="matrix(0.006510416666666667,0,0,0.006510416666666667,26.25,0)" xlink:href="#aH"/><use transform="matrix(0.006510416666666667,0,0,0.006510416666666667,33.736979166666664,0)" xlink:href="#aK"/><use transform="matrix(0.006510416666666667,0,0,0.006510416666666667,37.96874999999999,0)" xlink:href="#aM"/></g><g id="ab"><use transform="matrix(0.006510416666666667,0,0,0.006510416666666667,0,0)" xlink:href="#bg"/><use transform="matrix(0.006510416666666667,0,0,0.006510416666666667,3.229166666666667,0)" xlink:href="#aJ"/><use transform="matrix(0.006510416666666667,0,0,0.006510416666666667,6.458333333333334,0)" xlink:href="#bh"/><use transform="matrix(0.006510416666666667,0,0,0.006510416666666667,14.075520833333334,0)" xlink:href="#aM"/><use transform="matrix(0.006510416666666667,0,0,0.006510416666666667,21.848958333333336,0)" xlink:href="#aN"/><use transform="matrix(0.006510416666666667,0,0,0.006510416666666667,29.7265625,0)" xlink:href="#aI"/><use transform="matrix(0.006510416666666667,0,0,0.006510416666666667,36.76432291666667,0)" xlink:href="#aM"/></g><g id="ac"><use transform="matrix(0.006510416666666667,0,0,0.006510416666666667,0,0)" xlink:href="#aK"/><use transform="matrix(0.006510416666666667,0,0,0.006510416666666667,4.231770833333334,0)" xlink:href="#aT"/></g><g id="ad"><use transform="matrix(0.006510416666666667,0,0,0.006510416666666667,0,0)" xlink:href="#aQ"/><use transform="matrix(0.006510416666666667,0,0,0.006510416666666667,4.798177083333333,0)" xlink:href="#aM"/><use transform="matrix(0.006510416666666667,0,0,0.006510416666666667,12.571614583333332,0)" xlink:href="#aI"/><use transform="matrix(0.006510416666666667,0,0,0.006510416666666667,19.609375,0)" xlink:href="#aK"/><use transform="matrix(0.006510416666666667,0,0,0.006510416666666667,23.841145833333336,0)" xlink:href="#aT"/><use transform="matrix(0.006510416666666667,0,0,0.006510416666666667,31.8359375,0)" xlink:href="#aQ"/><use transform="matrix(0.006510416666666667,0,0,0.006510416666666667,36.634114583333336,0)" xlink:href="#aM"/></g><g id="ae"><use transform="matrix(0.006510416666666667,0,0,0.006510416666666667,0,0)" xlink:href="#aN"/><use transform="matrix(0.006510416666666667,0,0,0.006510416666666667,7.877604166666667,0)" xlink:href="#aT"/><use transform="matrix(0.006510416666666667,0,0,0.006510416666666667,15.872395833333334,0)" xlink:href="#aQ"/><use transform="matrix(0.006510416666666667,0,0,0.006510416666666667,21.100260416666668,0)" xlink:href="#aU"/><use transform="matrix(0.006510416666666667,0,0,0.006510416666666667,32.77994791666667,0)" xlink:href="#aH"/><use transform="matrix(0.006510416666666667,0,0,0.006510416666666667,40.266927083333336,0)" xlink:href="#bg"/></g><path d="M481 0L54-1118h197c107 314 236 620 325 951 87-331 217-637 324-951h197L670 0H481" id="bL"/><g id="af"><use transform="matrix(0.006510416666666667,0,0,0.006510416666666667,0,0)" xlink:href="#aI"/><use transform="matrix(0.006510416666666667,0,0,0.006510416666666667,7.037760416666667,0)" xlink:href="#aM"/><use transform="matrix(0.006510416666666667,0,0,0.006510416666666667,14.811197916666668,0)" xlink:href="#aQ"/><use transform="matrix(0.006510416666666667,0,0,0.006510416666666667,20.0390625,0)" xlink:href="#bL"/><use transform="matrix(0.006510416666666667,0,0,0.006510416666666667,27.532552083333336,0)" xlink:href="#aJ"/><use transform="matrix(0.006510416666666667,0,0,0.006510416666666667,30.76171875,0)" xlink:href="#bh"/><use transform="matrix(0.006510416666666667,0,0,0.006510416666666667,38.37890625,0)" xlink:href="#aM"/><use transform="matrix(0.006510416666666667,0,0,0.006510416666666667,46.15234375,0)" xlink:href="#bj"/></g><g id="ag"><use transform="matrix(0.006944444444444445,0,0,0.006944444444444445,0,0)" xlink:href="#az"/><use transform="matrix(0.006944444444444445,0,0,0.006944444444444445,10.715277777777779,0)" xlink:href="#aA"/><use transform="matrix(0.006944444444444445,0,0,0.006944444444444445,21.326388888888893,0)" xlink:href="#an"/><use transform="matrix(0.006944444444444445,0,0,0.006944444444444445,25.145833333333336,0)" xlink:href="#az"/><use transform="matrix(0.006944444444444445,0,0,0.006944444444444445,35.861111111111114,0)" xlink:href="#aB"/></g><g id="ah"><use transform="matrix(0.006944444444444445,0,0,0.006944444444444445,0,0)" xlink:href="#ao"/><use transform="matrix(0.006944444444444445,0,0,0.006944444444444445,7.506944444444445,0)" xlink:href="#ap"/><use transform="matrix(0.006944444444444445,0,0,0.006944444444444445,12.229166666666668,0)" xlink:href="#at"/><use transform="matrix(0.006944444444444445,0,0,0.006944444444444445,20.21527777777778,0)" xlink:href="#as"/><use transform="matrix(0.006944444444444445,0,0,0.006944444444444445,25.791666666666668,0)" xlink:href="#ap"/><use transform="matrix(0.006944444444444445,0,0,0.006944444444444445,30.305555555555557,0)" xlink:href="#ao"/></g><path fill="#282c33" d="M158 0v-1118h175l1 205c55-151 181-225 313-225 147 0 245 90 285 228 53-141 190-228 352-228 194 0 352 125 352 384V0h-181v-749c0-161-105-225-225-225-151 0-243 103-243 244V0H807v-767c0-124-93-207-219-207-131 0-250 92-250 270V0H158" id="bM"/><g id="ai"><use transform="matrix(0.006944444444444445,0,0,0.006944444444444445,0,0)" xlink:href="#ax"/><use transform="matrix(0.006944444444444445,0,0,0.006944444444444445,8.402777777777779,0)" xlink:href="#ay"/><use transform="matrix(0.006944444444444445,0,0,0.006944444444444445,16.930555555555557,0)" xlink:href="#as"/><use transform="matrix(0.006944444444444445,0,0,0.006944444444444445,22.506944444444446,0)" xlink:href="#bM"/><use transform="matrix(0.006944444444444445,0,0,0.006944444444444445,34.96527777777778,0)" xlink:href="#at"/><use transform="matrix(0.006944444444444445,0,0,0.006944444444444445,42.95138888888889,0)" xlink:href="#au"/><use transform="matrix(0.006944444444444445,0,0,0.006944444444444445,46.395833333333336,0)" xlink:href="#au"/><use transform="matrix(0.006944444444444445,0,0,0.006944444444444445,49.90972222222222,0)" xlink:href="#bm"/><use transform="matrix(0.006944444444444445,0,0,0.006944444444444445,57.27777777777778,0)" xlink:href="#bn"/></g><path fill="#333" d="M135 0v-1490h340l471 754c59 97 122 210 187 365-32-387-14-721-19-1119h312V0h-341C855-382 627-689 427-1113c32 420 16 695 20 1113H135" id="bN"/><path fill="#333" d="M628 22C291 22 81-210 81-554c0-346 210-578 547-578 336 0 547 232 547 578 0 344-211 576-547 576zm0-236c160 0 242-146 242-341 0-197-82-341-242-341S387-753 387-555c0 195 81 341 241 341" id="bO"/><g id="aj"><use transform="matrix(0.008680555555555556,0,0,0.008680555555555556,0,0)" xlink:href="#bN"/><use transform="matrix(0.008680555555555556,0,0,0.008680555555555556,13.550347222222223,0)" xlink:href="#bO"/></g><path fill="#3a414a" d="M180 0v-1490h224l606 953c40 63 108 177 176 312-27-437-7-821-13-1265h190V0h-226C860-448 622-778 356-1262c27 476 11 792 15 1262H180" id="bP"/><path fill="#3a414a" d="M789 20c-398 0-667-293-667-764 0-473 273-766 655-766 315 0 558 198 612 487h-196c-61-191-204-311-415-311-262 0-471 207-471 590 0 380 208 588 482 588 249 0 420-165 425-427H828v-166h572v163c0 370-256 606-611 606" id="bQ"/><path fill="#3a414a" d="M370-1490V0H180v-1490h190" id="bR"/><path fill="#3a414a" d="M57 0l534-763-501-727h220c122 187 296 416 391 605 94-191 272-419 396-605h215L811-770 1340 0h-219C986-204 811-426 699-640 588-430 407-202 273 0H57" id="bS"/><g id="ak"><use transform="matrix(0.006510416666666667,0,0,0.006510416666666667,0,0)" xlink:href="#bP"/><use transform="matrix(0.006510416666666667,0,0,0.006510416666666667,10.045572916666668,0)" xlink:href="#bQ"/><use transform="matrix(0.006510416666666667,0,0,0.006510416666666667,19.993489583333336,0)" xlink:href="#bR"/><use transform="matrix(0.006510416666666667,0,0,0.006510416666666667,23.574218750000004,0)" xlink:href="#bP"/><use transform="matrix(0.006510416666666667,0,0,0.006510416666666667,33.61979166666667,0)" xlink:href="#bS"/></g><path fill="#3a414a" d="M409 0L70-1118h191c89 329 165 560 243 925 75-353 154-601 240-925h192c85 325 161 564 235 922 77-354 157-598 244-922h191L1267 0h-179c-86-307-176-590-250-913C763-588 675-308 588 0H409" id="bT"/><path fill="#3a414a" d="M613 24c-304 0-509-231-509-576 0-350 205-580 509-580 305 0 511 230 511 580 0 345-206 576-511 576zm0-161c226 0 329-195 329-415 0-222-103-419-329-419-223 0-326 196-326 419 0 220 103 415 326 415" id="bU"/><path fill="#3a414a" d="M338-670V0H158v-1118h173l1 207c72-158 192-221 342-221 226 0 378 139 378 422V0H872v-695c0-172-96-275-252-275-161 0-282 109-282 300" id="bV"/><path fill="#3a414a" d="M232-923l-22-567h194l-22 567H232" id="bW"/><path fill="#3a414a" d="M598-1118v154H368v674c0 100 37 144 132 144 23 0 62-6 92-12L629-6c-37 13-88 20-134 20-193 0-307-107-307-290v-688H20v-154h168v-266h180v266h230" id="bX"/><g id="al"><use transform="matrix(0.006510416666666667,0,0,0.006510416666666667,0,0)" xlink:href="#bT"/><use transform="matrix(0.006510416666666667,0,0,0.006510416666666667,10.670572916666668,0)" xlink:href="#bU"/><use transform="matrix(0.006510416666666667,0,0,0.006510416666666667,18.665364583333336,0)" xlink:href="#bV"/><use transform="matrix(0.006510416666666667,0,0,0.006510416666666667,26.542968750000004,0)" xlink:href="#bW"/><use transform="matrix(0.006510416666666667,0,0,0.006510416666666667,30.540364583333336,0)" xlink:href="#bX"/></g><path fill="#3a414a" d="M538 24C308 24 148-78 108-271l171-41c32 123 123 178 257 178 156 0 256-77 256-169 0-77-54-128-164-154l-186-44c-203-48-300-148-300-305 0-192 176-326 414-326 230 0 351 112 402 269l-163 42c-31-80-94-158-238-158-133 0-233 69-233 162 0 83 57 129 188 160l169 40c203 48 298 149 298 302 0 196-179 339-441 339" id="bY"/><path fill="#3a414a" d="M471 26C259 26 90-98 90-318c0-256 228-303 435-329 202-27 287-16 287-108 0-139-79-219-234-219-161 0-248 86-283 164l-173-57c86-203 278-265 451-265 150 0 419 46 419 395V0H815v-152h-12C765-73 660 26 471 26zm31-159c199 0 310-134 310-271v-155c-30 35-226 55-295 64-131 17-246 59-246 186 0 116 97 176 231 176" id="bZ"/><path fill="#3a414a" d="M158 0v-1118h174v172h12c41-113 157-188 290-188 26 0 70 2 91 3v181c-11-2-60-10-108-10-161 0-279 109-279 260V0H158" id="ca"/><g id="am"><use transform="matrix(0.006510416666666667,0,0,0.006510416666666667,0,0)" xlink:href="#bY"/><use transform="matrix(0.006510416666666667,0,0,0.006510416666666667,7.037760416666667,0)" xlink:href="#bX"/><use transform="matrix(0.006510416666666667,0,0,0.006510416666666667,11.46484375,0)" xlink:href="#bZ"/><use transform="matrix(0.006510416666666667,0,0,0.006510416666666667,18.951822916666668,0)" xlink:href="#ca"/><use transform="matrix(0.006510416666666667,0,0,0.006510416666666667,24.1796875,0)" xlink:href="#bX"/></g></defs></g></svg>